M48
; DRILL file {KiCad (6.0.11)} date Sat Jul 20 12:09:32 2024
; FORMAT={-:-/ absolute / inch / decimal}
; #@! TF.CreationDate,2024-07-20T12:09:32-05:00
; #@! TF.GenerationSoftware,Kicad,Pcbnew,(6.0.11)
; #@! TF.FileFunction,Plated,1,2,PTH
FMAT,2
INCH
; #@! TA.AperFunction,Plated,PTH,ViaDrill
T1C0.0138
; #@! TA.AperFunction,Plated,PTH,ComponentDrill
T2C0.0236
; #@! TA.AperFunction,Plated,PTH,ComponentDrill
T3C0.0394
%
G90
G05
T1
X5.1693Y-4.2441
X5.1693Y-5.063
X5.1693Y-5.1142
X5.1717Y-4.6173
X5.1732Y-4.3002
X5.174Y-4.715
X5.185Y-4.3376
X5.187Y-4.7516
X5.1894Y-4.5953
X5.1929Y-4.2165
X5.1929Y-5.0354
X5.1951Y-5.1278
X5.1969Y-5.0
X5.2087Y-5.1693
X5.2165Y-4.0502
X5.2248Y-4.5126
X5.2323Y-4.873
X5.2362Y-4.3858
X5.2372Y-4.124
X5.2441Y-4.7717
X5.2461Y-5.2854
X5.2579Y-4.4764
X5.2854Y-4.3543
X5.2904Y-4.5728
X5.2943Y-4.748
X5.2953Y-5.1925
X5.2976Y-4.798
X5.2982Y-4.1614
X5.3035Y-4.9996
X5.3071Y-4.3941
X5.328Y-5.2161
X5.3366Y-4.0758
X5.372Y-4.0344
X5.378Y-4.0837
X5.4083Y-4.5575
X5.4203Y-4.0413
X5.4252Y-4.1535
X5.4579Y-4.9575
X5.5528Y-4.1331
X5.5531Y-4.0935
X5.5669Y-3.5157
X5.6283Y-4.1248
X5.6445Y-4.0571
X5.6457Y-4.689
X5.6488Y-4.802
X5.6516Y-4.8303
X5.6559Y-4.8579
X5.6677Y-4.8843
X5.6689Y-4.913
X5.6732Y-3.5866
X5.6831Y-4.2746
X5.6841Y-4.1516
X5.6854Y-4.9642
X5.6878Y-4.9366
X5.6988Y-4.4673
X5.7051Y-5.1063
X5.7406Y-3.8402
X5.7461Y-4.4677
X5.752Y-3.5669
X5.7697Y-4.4937
X5.8091Y-4.1063
X5.8091Y-4.7567
X5.8091Y-4.8378
X5.8091Y-4.8783
X5.8102Y-4.798
X5.8109Y-4.9236
X5.811Y-4.1949
X5.811Y-5.0008
X5.8122Y-4.9642
X5.813Y-4.1476
X5.8138Y-4.2539
X5.8194Y-3.8601
X5.8323Y-4.3945
X5.8339Y-4.4728
X5.8488Y-3.8874
X5.8504Y-4.1083
X5.8531Y-4.15
X5.8531Y-4.1957
X5.8537Y-3.5834
X5.8543Y-3.6929
X5.8724Y-3.8598
X5.8898Y-4.189
X5.8957Y-4.1122
X5.8996Y-4.1476
X5.9047Y-4.0575
X5.922Y-3.5969
X5.9283Y-4.5512
X5.9327Y-4.3791
X5.9331Y-3.4492
X5.9354Y-3.9327
X5.9433Y-4.0606
X5.9496Y-4.2374
X5.9709Y-4.3531
X5.9728Y-3.9031
X5.9772Y-3.4819
X5.9874Y-4.9594
X5.9878Y-4.8366
X5.9878Y-4.8783
X5.9886Y-4.9181
X5.9894Y-4.7972
X5.9894Y-4.9976
X5.9902Y-4.7567
X6.0043Y-4.587
X6.024Y-4.4209
X6.0409Y-4.1213
X6.0512Y-3.5591
X6.0681Y-3.6492
X6.074Y-3.7106
X6.0854Y-5.1122
X6.1043Y-4.9992
X6.1067Y-4.961
X6.1406Y-4.9142
X6.1421Y-4.8803
X6.1449Y-3.7004
X6.1469Y-3.9543
X6.1469Y-4.8441
X6.1571Y-4.8075
X6.1776Y-4.7752
X6.215Y-3.9528
X6.2598Y-3.5039
X6.3819Y-4.3445
X6.3858Y-4.7165
X6.3874Y-5.1449
X6.498Y-5.1228
X6.5079Y-4.8882
X6.5167Y-4.752
X6.5295Y-4.9236
X6.5305Y-4.4055
X6.5448Y-4.4946
X6.5638Y-5.1839
X6.5689Y-4.8457
X6.5738Y-4.0492
X6.5831Y-4.4094
X6.5984Y-4.9449
X6.6063Y-4.1654
X6.6063Y-4.3711
X6.6063Y-4.5276
X6.6063Y-4.7323
X6.6174Y-4.6582
X6.6181Y-4.5669
X6.6181Y-4.9843
X6.6181Y-5.0866
X6.6378Y-4.5866
X6.6378Y-4.6339
X6.6378Y-5.0118
X6.6378Y-5.0591
T3
X5.4134Y-3.775
X5.4134Y-3.875
X6.1496Y-4.1063
X6.1496Y-4.2063
X6.1496Y-4.3063
X6.3327Y-4.0303
X6.4327Y-4.0303
T2
G00X5.7287Y-3.3454
M15
G01X5.7287Y-3.3218
M16
G05
G00X5.7287Y-3.5198
M15
G01X5.7287Y-3.4765
M16
G05
G00X6.0689Y-3.3454
M15
G01X6.0689Y-3.3218
M16
G05
G00X6.0689Y-3.5198
M15
G01X6.0689Y-3.4765
M16
G05
T0
M30
