%TF.GenerationSoftware,KiCad,Pcbnew,(6.0.11)*%
%TF.CreationDate,2024-07-20T12:09:31-05:00*%
%TF.ProjectId,BizBopWhingWhang,42697a42-6f70-4576-9869-6e675768616e,rev?*%
%TF.SameCoordinates,Original*%
%TF.FileFunction,Legend,Top*%
%TF.FilePolarity,Positive*%
%FSLAX46Y46*%
G04 Gerber Fmt 4.6, Leading zero omitted, Abs format (unit mm)*
G04 Created by KiCad (PCBNEW (6.0.11)) date 2024-07-20 12:09:31*
%MOMM*%
%LPD*%
G01*
G04 APERTURE LIST*
G04 Aperture macros list*
%AMRoundRect*
0 Rectangle with rounded corners*
0 $1 Rounding radius*
0 $2 $3 $4 $5 $6 $7 $8 $9 X,Y pos of 4 corners*
0 Add a 4 corners polygon primitive as box body*
4,1,4,$2,$3,$4,$5,$6,$7,$8,$9,$2,$3,0*
0 Add four circle primitives for the rounded corners*
1,1,$1+$1,$2,$3*
1,1,$1+$1,$4,$5*
1,1,$1+$1,$6,$7*
1,1,$1+$1,$8,$9*
0 Add four rect primitives between the rounded corners*
20,1,$1+$1,$2,$3,$4,$5,0*
20,1,$1+$1,$4,$5,$6,$7,0*
20,1,$1+$1,$6,$7,$8,$9,0*
20,1,$1+$1,$8,$9,$2,$3,0*%
G04 Aperture macros list end*
%ADD10C,0.125000*%
%ADD11C,0.150000*%
%ADD12C,0.100000*%
%ADD13C,0.120000*%
%ADD14C,0.020000*%
%ADD15RoundRect,0.100000X0.637500X0.100000X-0.637500X0.100000X-0.637500X-0.100000X0.637500X-0.100000X0*%
%ADD16RoundRect,0.135000X-0.185000X0.135000X-0.185000X-0.135000X0.185000X-0.135000X0.185000X0.135000X0*%
%ADD17R,1.400000X1.200000*%
%ADD18RoundRect,0.140000X0.170000X-0.140000X0.170000X0.140000X-0.170000X0.140000X-0.170000X-0.140000X0*%
%ADD19RoundRect,0.147500X-0.147500X-0.172500X0.147500X-0.172500X0.147500X0.172500X-0.147500X0.172500X0*%
%ADD20RoundRect,0.147500X-0.172500X0.147500X-0.172500X-0.147500X0.172500X-0.147500X0.172500X0.147500X0*%
%ADD21RoundRect,0.147500X0.147500X0.172500X-0.147500X0.172500X-0.147500X-0.172500X0.147500X-0.172500X0*%
%ADD22RoundRect,0.147500X0.172500X-0.147500X0.172500X0.147500X-0.172500X0.147500X-0.172500X-0.147500X0*%
%ADD23RoundRect,0.100000X-0.637500X-0.100000X0.637500X-0.100000X0.637500X0.100000X-0.637500X0.100000X0*%
%ADD24R,1.000000X1.200000*%
%ADD25RoundRect,0.135000X-0.135000X-0.185000X0.135000X-0.185000X0.135000X0.185000X-0.135000X0.185000X0*%
%ADD26RoundRect,0.237500X0.237500X-0.250000X0.237500X0.250000X-0.237500X0.250000X-0.237500X-0.250000X0*%
%ADD27RoundRect,0.140000X0.140000X0.170000X-0.140000X0.170000X-0.140000X-0.170000X0.140000X-0.170000X0*%
%ADD28RoundRect,0.225000X0.225000X0.250000X-0.225000X0.250000X-0.225000X-0.250000X0.225000X-0.250000X0*%
%ADD29RoundRect,0.135000X0.185000X-0.135000X0.185000X0.135000X-0.185000X0.135000X-0.185000X-0.135000X0*%
%ADD30RoundRect,0.225000X0.250000X-0.225000X0.250000X0.225000X-0.250000X0.225000X-0.250000X-0.225000X0*%
%ADD31RoundRect,0.135000X0.135000X0.185000X-0.135000X0.185000X-0.135000X-0.185000X0.135000X-0.185000X0*%
%ADD32R,2.000000X1.500000*%
%ADD33R,2.000000X3.800000*%
%ADD34RoundRect,0.237500X0.250000X0.237500X-0.250000X0.237500X-0.250000X-0.237500X0.250000X-0.237500X0*%
%ADD35R,1.700000X1.700000*%
%ADD36O,1.700000X1.700000*%
%ADD37RoundRect,0.225000X-0.250000X0.225000X-0.250000X-0.225000X0.250000X-0.225000X0.250000X0.225000X0*%
%ADD38RoundRect,0.140000X-0.170000X0.140000X-0.170000X-0.140000X0.170000X-0.140000X0.170000X0.140000X0*%
%ADD39RoundRect,0.237500X-0.237500X0.250000X-0.237500X-0.250000X0.237500X-0.250000X0.237500X0.250000X0*%
%ADD40RoundRect,0.225000X-0.225000X-0.250000X0.225000X-0.250000X0.225000X0.250000X-0.225000X0.250000X0*%
%ADD41RoundRect,0.150000X0.150000X-1.125000X0.150000X1.125000X-0.150000X1.125000X-0.150000X-1.125000X0*%
%ADD42RoundRect,0.050000X-0.387500X-0.050000X0.387500X-0.050000X0.387500X0.050000X-0.387500X0.050000X0*%
%ADD43RoundRect,0.050000X-0.050000X-0.387500X0.050000X-0.387500X0.050000X0.387500X-0.050000X0.387500X0*%
%ADD44R,3.200000X3.200000*%
%ADD45RoundRect,0.140000X-0.140000X-0.170000X0.140000X-0.170000X0.140000X0.170000X-0.140000X0.170000X0*%
%ADD46C,0.670000*%
%ADD47R,0.250000X1.450000*%
%ADD48R,0.300000X1.450000*%
%ADD49RoundRect,0.500000X0.000000X0.300000X0.000000X0.300000X0.000000X-0.300000X0.000000X-0.300000X0*%
%ADD50RoundRect,0.500000X0.000000X0.600000X0.000000X0.600000X0.000000X-0.600000X0.000000X-0.600000X0*%
G04 APERTURE END LIST*
D10*
X154150000Y-107240952D02*
X154126190Y-107288571D01*
X154126190Y-107360000D01*
X154150000Y-107431428D01*
X154197619Y-107479047D01*
X154245238Y-107502857D01*
X154340476Y-107526666D01*
X154411904Y-107526666D01*
X154507142Y-107502857D01*
X154554761Y-107479047D01*
X154602380Y-107431428D01*
X154626190Y-107360000D01*
X154626190Y-107312380D01*
X154602380Y-107240952D01*
X154578571Y-107217142D01*
X154411904Y-107217142D01*
X154411904Y-107312380D01*
X154626190Y-107002857D02*
X154126190Y-107002857D01*
X154626190Y-106717142D01*
X154126190Y-106717142D01*
X154626190Y-106479047D02*
X154126190Y-106479047D01*
X154126190Y-106360000D01*
X154150000Y-106288571D01*
X154197619Y-106240952D01*
X154245238Y-106217142D01*
X154340476Y-106193333D01*
X154411904Y-106193333D01*
X154507142Y-106217142D01*
X154554761Y-106240952D01*
X154602380Y-106288571D01*
X154626190Y-106360000D01*
X154626190Y-106479047D01*
X141620857Y-100810190D02*
X141335142Y-100810190D01*
X141478000Y-100810190D02*
X141478000Y-100310190D01*
X141430380Y-100381619D01*
X141382761Y-100429238D01*
X141335142Y-100453047D01*
X154582380Y-104829523D02*
X154606190Y-104758095D01*
X154606190Y-104639047D01*
X154582380Y-104591428D01*
X154558571Y-104567619D01*
X154510952Y-104543809D01*
X154463333Y-104543809D01*
X154415714Y-104567619D01*
X154391904Y-104591428D01*
X154368095Y-104639047D01*
X154344285Y-104734285D01*
X154320476Y-104781904D01*
X154296666Y-104805714D01*
X154249047Y-104829523D01*
X154201428Y-104829523D01*
X154153809Y-104805714D01*
X154130000Y-104781904D01*
X154106190Y-104734285D01*
X154106190Y-104615238D01*
X154130000Y-104543809D01*
X154106190Y-104377142D02*
X154606190Y-104258095D01*
X154249047Y-104162857D01*
X154606190Y-104067619D01*
X154106190Y-103948571D01*
X154606190Y-103758095D02*
X154106190Y-103758095D01*
X154106190Y-103424761D02*
X154106190Y-103329523D01*
X154130000Y-103281904D01*
X154177619Y-103234285D01*
X154272857Y-103210476D01*
X154439523Y-103210476D01*
X154534761Y-103234285D01*
X154582380Y-103281904D01*
X154606190Y-103329523D01*
X154606190Y-103424761D01*
X154582380Y-103472380D01*
X154534761Y-103520000D01*
X154439523Y-103543809D01*
X154272857Y-103543809D01*
X154177619Y-103520000D01*
X154130000Y-103472380D01*
X154106190Y-103424761D01*
X144922857Y-102588190D02*
X144637142Y-102588190D01*
X144780000Y-102588190D02*
X144780000Y-102088190D01*
X144732380Y-102159619D01*
X144684761Y-102207238D01*
X144637142Y-102231047D01*
D11*
X162988571Y-98739523D02*
X163036190Y-98596666D01*
X163083809Y-98549047D01*
X163179047Y-98501428D01*
X163321904Y-98501428D01*
X163417142Y-98549047D01*
X163464761Y-98596666D01*
X163512380Y-98691904D01*
X163512380Y-99072857D01*
X162512380Y-99072857D01*
X162512380Y-98739523D01*
X162560000Y-98644285D01*
X162607619Y-98596666D01*
X162702857Y-98549047D01*
X162798095Y-98549047D01*
X162893333Y-98596666D01*
X162940952Y-98644285D01*
X162988571Y-98739523D01*
X162988571Y-99072857D01*
X163512380Y-98072857D02*
X162512380Y-98072857D01*
X162512380Y-97691904D02*
X162512380Y-97025238D01*
X163512380Y-97691904D01*
X163512380Y-97025238D01*
X162988571Y-96310952D02*
X163036190Y-96168095D01*
X163083809Y-96120476D01*
X163179047Y-96072857D01*
X163321904Y-96072857D01*
X163417142Y-96120476D01*
X163464761Y-96168095D01*
X163512380Y-96263333D01*
X163512380Y-96644285D01*
X162512380Y-96644285D01*
X162512380Y-96310952D01*
X162560000Y-96215714D01*
X162607619Y-96168095D01*
X162702857Y-96120476D01*
X162798095Y-96120476D01*
X162893333Y-96168095D01*
X162940952Y-96215714D01*
X162988571Y-96310952D01*
X162988571Y-96644285D01*
X162512380Y-95453809D02*
X162512380Y-95263333D01*
X162560000Y-95168095D01*
X162655238Y-95072857D01*
X162845714Y-95025238D01*
X163179047Y-95025238D01*
X163369523Y-95072857D01*
X163464761Y-95168095D01*
X163512380Y-95263333D01*
X163512380Y-95453809D01*
X163464761Y-95549047D01*
X163369523Y-95644285D01*
X163179047Y-95691904D01*
X162845714Y-95691904D01*
X162655238Y-95644285D01*
X162560000Y-95549047D01*
X162512380Y-95453809D01*
X163512380Y-94596666D02*
X162512380Y-94596666D01*
X162512380Y-94215714D01*
X162560000Y-94120476D01*
X162607619Y-94072857D01*
X162702857Y-94025238D01*
X162845714Y-94025238D01*
X162940952Y-94072857D01*
X162988571Y-94120476D01*
X163036190Y-94215714D01*
X163036190Y-94596666D01*
X162512380Y-93691904D02*
X163512380Y-93453809D01*
X162798095Y-93263333D01*
X163512380Y-93072857D01*
X162512380Y-92834761D01*
X163512380Y-92453809D02*
X162512380Y-92453809D01*
X162988571Y-92453809D02*
X162988571Y-91882380D01*
X163512380Y-91882380D02*
X162512380Y-91882380D01*
X163512380Y-91406190D02*
X162512380Y-91406190D01*
X163512380Y-90930000D02*
X162512380Y-90930000D01*
X163512380Y-90358571D01*
X162512380Y-90358571D01*
X162560000Y-89358571D02*
X162512380Y-89453809D01*
X162512380Y-89596666D01*
X162560000Y-89739523D01*
X162655238Y-89834761D01*
X162750476Y-89882380D01*
X162940952Y-89930000D01*
X163083809Y-89930000D01*
X163274285Y-89882380D01*
X163369523Y-89834761D01*
X163464761Y-89739523D01*
X163512380Y-89596666D01*
X163512380Y-89501428D01*
X163464761Y-89358571D01*
X163417142Y-89310952D01*
X163083809Y-89310952D01*
X163083809Y-89501428D01*
X162512380Y-88977619D02*
X163512380Y-88739523D01*
X162798095Y-88549047D01*
X163512380Y-88358571D01*
X162512380Y-88120476D01*
X163512380Y-87739523D02*
X162512380Y-87739523D01*
X162988571Y-87739523D02*
X162988571Y-87168095D01*
X163512380Y-87168095D02*
X162512380Y-87168095D01*
X163226666Y-86739523D02*
X163226666Y-86263333D01*
X163512380Y-86834761D02*
X162512380Y-86501428D01*
X163512380Y-86168095D01*
X163512380Y-85834761D02*
X162512380Y-85834761D01*
X163512380Y-85263333D01*
X162512380Y-85263333D01*
X162560000Y-84263333D02*
X162512380Y-84358571D01*
X162512380Y-84501428D01*
X162560000Y-84644285D01*
X162655238Y-84739523D01*
X162750476Y-84787142D01*
X162940952Y-84834761D01*
X163083809Y-84834761D01*
X163274285Y-84787142D01*
X163369523Y-84739523D01*
X163464761Y-84644285D01*
X163512380Y-84501428D01*
X163512380Y-84406190D01*
X163464761Y-84263333D01*
X163417142Y-84215714D01*
X163083809Y-84215714D01*
X163083809Y-84406190D01*
X163417142Y-83787142D02*
X163464761Y-83739523D01*
X163512380Y-83787142D01*
X163464761Y-83834761D01*
X163417142Y-83787142D01*
X163512380Y-83787142D01*
X163131428Y-83787142D02*
X162560000Y-83834761D01*
X162512380Y-83787142D01*
X162560000Y-83739523D01*
X163131428Y-83787142D01*
X162512380Y-83787142D01*
X164598571Y-98549047D02*
X164646190Y-98406190D01*
X164693809Y-98358571D01*
X164789047Y-98310952D01*
X164931904Y-98310952D01*
X165027142Y-98358571D01*
X165074761Y-98406190D01*
X165122380Y-98501428D01*
X165122380Y-98882380D01*
X164122380Y-98882380D01*
X164122380Y-98549047D01*
X164170000Y-98453809D01*
X164217619Y-98406190D01*
X164312857Y-98358571D01*
X164408095Y-98358571D01*
X164503333Y-98406190D01*
X164550952Y-98453809D01*
X164598571Y-98549047D01*
X164598571Y-98882380D01*
X164646190Y-97691904D02*
X165122380Y-97691904D01*
X164122380Y-98025238D02*
X164646190Y-97691904D01*
X164122380Y-97358571D01*
X165122380Y-96263333D02*
X164122380Y-96263333D01*
X164122380Y-96025238D01*
X164170000Y-95882380D01*
X164265238Y-95787142D01*
X164360476Y-95739523D01*
X164550952Y-95691904D01*
X164693809Y-95691904D01*
X164884285Y-95739523D01*
X164979523Y-95787142D01*
X165074761Y-95882380D01*
X165122380Y-96025238D01*
X165122380Y-96263333D01*
X165122380Y-94787142D02*
X165122380Y-95263333D01*
X164122380Y-95263333D01*
X165122380Y-93691904D02*
X164122380Y-93691904D01*
X164836666Y-93358571D01*
X164122380Y-93025238D01*
X165122380Y-93025238D01*
X164836666Y-92596666D02*
X164836666Y-92120476D01*
X165122380Y-92691904D02*
X164122380Y-92358571D01*
X165122380Y-92025238D01*
X165122380Y-91120476D02*
X164646190Y-91453809D01*
X165122380Y-91691904D02*
X164122380Y-91691904D01*
X164122380Y-91310952D01*
X164170000Y-91215714D01*
X164217619Y-91168095D01*
X164312857Y-91120476D01*
X164455714Y-91120476D01*
X164550952Y-91168095D01*
X164598571Y-91215714D01*
X164646190Y-91310952D01*
X164646190Y-91691904D01*
X165122380Y-90691904D02*
X164122380Y-90691904D01*
X165122380Y-90120476D02*
X164550952Y-90549047D01*
X164122380Y-90120476D02*
X164693809Y-90691904D01*
X165074761Y-89739523D02*
X165122380Y-89596666D01*
X165122380Y-89358571D01*
X165074761Y-89263333D01*
X165027142Y-89215714D01*
X164931904Y-89168095D01*
X164836666Y-89168095D01*
X164741428Y-89215714D01*
X164693809Y-89263333D01*
X164646190Y-89358571D01*
X164598571Y-89549047D01*
X164550952Y-89644285D01*
X164503333Y-89691904D01*
X164408095Y-89739523D01*
X164312857Y-89739523D01*
X164217619Y-89691904D01*
X164170000Y-89644285D01*
X164122380Y-89549047D01*
X164122380Y-89310952D01*
X164170000Y-89168095D01*
X164122380Y-88120476D02*
X165122380Y-87787142D01*
X164122380Y-87453809D01*
X164598571Y-87120476D02*
X164598571Y-86787142D01*
X165122380Y-86644285D02*
X165122380Y-87120476D01*
X164122380Y-87120476D01*
X164122380Y-86644285D01*
X165122380Y-85644285D02*
X164646190Y-85977619D01*
X165122380Y-86215714D02*
X164122380Y-86215714D01*
X164122380Y-85834761D01*
X164170000Y-85739523D01*
X164217619Y-85691904D01*
X164312857Y-85644285D01*
X164455714Y-85644285D01*
X164550952Y-85691904D01*
X164598571Y-85739523D01*
X164646190Y-85834761D01*
X164646190Y-86215714D01*
X165122380Y-83930000D02*
X165122380Y-84501428D01*
X165122380Y-84215714D02*
X164122380Y-84215714D01*
X164265238Y-84310952D01*
X164360476Y-84406190D01*
X164408095Y-84501428D01*
X166637142Y-96263333D02*
X166684761Y-96310952D01*
X166732380Y-96453809D01*
X166732380Y-96549047D01*
X166684761Y-96691904D01*
X166589523Y-96787142D01*
X166494285Y-96834761D01*
X166303809Y-96882380D01*
X166160952Y-96882380D01*
X165970476Y-96834761D01*
X165875238Y-96787142D01*
X165780000Y-96691904D01*
X165732380Y-96549047D01*
X165732380Y-96453809D01*
X165780000Y-96310952D01*
X165827619Y-96263333D01*
X166637142Y-95263333D02*
X166684761Y-95310952D01*
X166732380Y-95453809D01*
X166732380Y-95549047D01*
X166684761Y-95691904D01*
X166589523Y-95787142D01*
X166494285Y-95834761D01*
X166303809Y-95882380D01*
X166160952Y-95882380D01*
X165970476Y-95834761D01*
X165875238Y-95787142D01*
X165780000Y-95691904D01*
X165732380Y-95549047D01*
X165732380Y-95453809D01*
X165780000Y-95310952D01*
X165827619Y-95263333D01*
X166351428Y-94834761D02*
X166351428Y-94072857D01*
X166208571Y-93263333D02*
X166256190Y-93120476D01*
X166303809Y-93072857D01*
X166399047Y-93025238D01*
X166541904Y-93025238D01*
X166637142Y-93072857D01*
X166684761Y-93120476D01*
X166732380Y-93215714D01*
X166732380Y-93596666D01*
X165732380Y-93596666D01*
X165732380Y-93263333D01*
X165780000Y-93168095D01*
X165827619Y-93120476D01*
X165922857Y-93072857D01*
X166018095Y-93072857D01*
X166113333Y-93120476D01*
X166160952Y-93168095D01*
X166208571Y-93263333D01*
X166208571Y-93596666D01*
X166256190Y-92406190D02*
X166732380Y-92406190D01*
X165732380Y-92739523D02*
X166256190Y-92406190D01*
X165732380Y-92072857D01*
X166351428Y-91739523D02*
X166351428Y-90977619D01*
X166684761Y-90549047D02*
X166732380Y-90406190D01*
X166732380Y-90168095D01*
X166684761Y-90072857D01*
X166637142Y-90025238D01*
X166541904Y-89977619D01*
X166446666Y-89977619D01*
X166351428Y-90025238D01*
X166303809Y-90072857D01*
X166256190Y-90168095D01*
X166208571Y-90358571D01*
X166160952Y-90453809D01*
X166113333Y-90501428D01*
X166018095Y-90549047D01*
X165922857Y-90549047D01*
X165827619Y-90501428D01*
X165780000Y-90453809D01*
X165732380Y-90358571D01*
X165732380Y-90120476D01*
X165780000Y-89977619D01*
X166446666Y-89596666D02*
X166446666Y-89120476D01*
X166732380Y-89691904D02*
X165732380Y-89358571D01*
X166732380Y-89025238D01*
X166065714Y-87501428D02*
X166732380Y-87501428D01*
X165684761Y-87739523D02*
X166399047Y-87977619D01*
X166399047Y-87358571D01*
X166637142Y-86977619D02*
X166684761Y-86930000D01*
X166732380Y-86977619D01*
X166684761Y-87025238D01*
X166637142Y-86977619D01*
X166732380Y-86977619D01*
X165732380Y-86310952D02*
X165732380Y-86215714D01*
X165780000Y-86120476D01*
X165827619Y-86072857D01*
X165922857Y-86025238D01*
X166113333Y-85977619D01*
X166351428Y-85977619D01*
X166541904Y-86025238D01*
X166637142Y-86072857D01*
X166684761Y-86120476D01*
X166732380Y-86215714D01*
X166732380Y-86310952D01*
X166684761Y-86406190D01*
X166637142Y-86453809D01*
X166541904Y-86501428D01*
X166351428Y-86549047D01*
X166113333Y-86549047D01*
X165922857Y-86501428D01*
X165827619Y-86453809D01*
X165780000Y-86406190D01*
X165732380Y-86310952D01*
D10*
X161543809Y-100756190D02*
X161377142Y-100518095D01*
X161258095Y-100756190D02*
X161258095Y-100256190D01*
X161448571Y-100256190D01*
X161496190Y-100280000D01*
X161520000Y-100303809D01*
X161543809Y-100351428D01*
X161543809Y-100422857D01*
X161520000Y-100470476D01*
X161496190Y-100494285D01*
X161448571Y-100518095D01*
X161258095Y-100518095D01*
X161758095Y-100494285D02*
X161924761Y-100494285D01*
X161996190Y-100756190D02*
X161758095Y-100756190D01*
X161758095Y-100256190D01*
X161996190Y-100256190D01*
X162186666Y-100732380D02*
X162258095Y-100756190D01*
X162377142Y-100756190D01*
X162424761Y-100732380D01*
X162448571Y-100708571D01*
X162472380Y-100660952D01*
X162472380Y-100613333D01*
X162448571Y-100565714D01*
X162424761Y-100541904D01*
X162377142Y-100518095D01*
X162281904Y-100494285D01*
X162234285Y-100470476D01*
X162210476Y-100446666D01*
X162186666Y-100399047D01*
X162186666Y-100351428D01*
X162210476Y-100303809D01*
X162234285Y-100280000D01*
X162281904Y-100256190D01*
X162400952Y-100256190D01*
X162472380Y-100280000D01*
X162686666Y-100494285D02*
X162853333Y-100494285D01*
X162924761Y-100756190D02*
X162686666Y-100756190D01*
X162686666Y-100256190D01*
X162924761Y-100256190D01*
X163067619Y-100256190D02*
X163353333Y-100256190D01*
X163210476Y-100756190D02*
X163210476Y-100256190D01*
X135901190Y-98167857D02*
X135401190Y-98167857D01*
X135401190Y-97977380D01*
X135425000Y-97929761D01*
X135448809Y-97905952D01*
X135496428Y-97882142D01*
X135567857Y-97882142D01*
X135615476Y-97905952D01*
X135639285Y-97929761D01*
X135663095Y-97977380D01*
X135663095Y-98167857D01*
X135901190Y-97382142D02*
X135663095Y-97548809D01*
X135901190Y-97667857D02*
X135401190Y-97667857D01*
X135401190Y-97477380D01*
X135425000Y-97429761D01*
X135448809Y-97405952D01*
X135496428Y-97382142D01*
X135567857Y-97382142D01*
X135615476Y-97405952D01*
X135639285Y-97429761D01*
X135663095Y-97477380D01*
X135663095Y-97667857D01*
X135401190Y-97072619D02*
X135401190Y-96977380D01*
X135425000Y-96929761D01*
X135472619Y-96882142D01*
X135567857Y-96858333D01*
X135734523Y-96858333D01*
X135829761Y-96882142D01*
X135877380Y-96929761D01*
X135901190Y-96977380D01*
X135901190Y-97072619D01*
X135877380Y-97120238D01*
X135829761Y-97167857D01*
X135734523Y-97191666D01*
X135567857Y-97191666D01*
X135472619Y-97167857D01*
X135425000Y-97120238D01*
X135401190Y-97072619D01*
X135425000Y-96382142D02*
X135401190Y-96429761D01*
X135401190Y-96501190D01*
X135425000Y-96572619D01*
X135472619Y-96620238D01*
X135520238Y-96644047D01*
X135615476Y-96667857D01*
X135686904Y-96667857D01*
X135782142Y-96644047D01*
X135829761Y-96620238D01*
X135877380Y-96572619D01*
X135901190Y-96501190D01*
X135901190Y-96453571D01*
X135877380Y-96382142D01*
X135853571Y-96358333D01*
X135686904Y-96358333D01*
X135686904Y-96453571D01*
X154722380Y-110500952D02*
X154746190Y-110429523D01*
X154746190Y-110310476D01*
X154722380Y-110262857D01*
X154698571Y-110239047D01*
X154650952Y-110215238D01*
X154603333Y-110215238D01*
X154555714Y-110239047D01*
X154531904Y-110262857D01*
X154508095Y-110310476D01*
X154484285Y-110405714D01*
X154460476Y-110453333D01*
X154436666Y-110477142D01*
X154389047Y-110500952D01*
X154341428Y-110500952D01*
X154293809Y-110477142D01*
X154270000Y-110453333D01*
X154246190Y-110405714D01*
X154246190Y-110286666D01*
X154270000Y-110215238D01*
X154246190Y-110048571D02*
X154746190Y-109929523D01*
X154389047Y-109834285D01*
X154746190Y-109739047D01*
X154246190Y-109620000D01*
X154698571Y-109143809D02*
X154722380Y-109167619D01*
X154746190Y-109239047D01*
X154746190Y-109286666D01*
X154722380Y-109358095D01*
X154674761Y-109405714D01*
X154627142Y-109429523D01*
X154531904Y-109453333D01*
X154460476Y-109453333D01*
X154365238Y-109429523D01*
X154317619Y-109405714D01*
X154270000Y-109358095D01*
X154246190Y-109286666D01*
X154246190Y-109239047D01*
X154270000Y-109167619D01*
X154293809Y-109143809D01*
X154746190Y-108691428D02*
X154746190Y-108929523D01*
X154246190Y-108929523D01*
X154746190Y-108524761D02*
X154246190Y-108524761D01*
X154746190Y-108239047D02*
X154460476Y-108453333D01*
X154246190Y-108239047D02*
X154531904Y-108524761D01*
D12*
%TO.C,U5*%
X135719047Y-109976190D02*
X135719047Y-110380952D01*
X135742857Y-110428571D01*
X135766666Y-110452380D01*
X135814285Y-110476190D01*
X135909523Y-110476190D01*
X135957142Y-110452380D01*
X135980952Y-110428571D01*
X136004761Y-110380952D01*
X136004761Y-109976190D01*
X136480952Y-109976190D02*
X136242857Y-109976190D01*
X136219047Y-110214285D01*
X136242857Y-110190476D01*
X136290476Y-110166666D01*
X136409523Y-110166666D01*
X136457142Y-110190476D01*
X136480952Y-110214285D01*
X136504761Y-110261904D01*
X136504761Y-110380952D01*
X136480952Y-110428571D01*
X136457142Y-110452380D01*
X136409523Y-110476190D01*
X136290476Y-110476190D01*
X136242857Y-110452380D01*
X136219047Y-110428571D01*
D10*
%TO.C,Y1*%
X150411904Y-115948095D02*
X150411904Y-116186190D01*
X150245238Y-115686190D02*
X150411904Y-115948095D01*
X150578571Y-115686190D01*
X151007142Y-116186190D02*
X150721428Y-116186190D01*
X150864285Y-116186190D02*
X150864285Y-115686190D01*
X150816666Y-115757619D01*
X150769047Y-115805238D01*
X150721428Y-115829047D01*
%TO.C,C13*%
X143442571Y-104826571D02*
X143418761Y-104850380D01*
X143347333Y-104874190D01*
X143299714Y-104874190D01*
X143228285Y-104850380D01*
X143180666Y-104802761D01*
X143156857Y-104755142D01*
X143133047Y-104659904D01*
X143133047Y-104588476D01*
X143156857Y-104493238D01*
X143180666Y-104445619D01*
X143228285Y-104398000D01*
X143299714Y-104374190D01*
X143347333Y-104374190D01*
X143418761Y-104398000D01*
X143442571Y-104421809D01*
X143918761Y-104874190D02*
X143633047Y-104874190D01*
X143775904Y-104874190D02*
X143775904Y-104374190D01*
X143728285Y-104445619D01*
X143680666Y-104493238D01*
X143633047Y-104517047D01*
X144085428Y-104374190D02*
X144394952Y-104374190D01*
X144228285Y-104564666D01*
X144299714Y-104564666D01*
X144347333Y-104588476D01*
X144371142Y-104612285D01*
X144394952Y-104659904D01*
X144394952Y-104778952D01*
X144371142Y-104826571D01*
X144347333Y-104850380D01*
X144299714Y-104874190D01*
X144156857Y-104874190D01*
X144109238Y-104850380D01*
X144085428Y-104826571D01*
D12*
%TO.C,U11*%
X162780952Y-114876190D02*
X162780952Y-115280952D01*
X162804761Y-115328571D01*
X162828571Y-115352380D01*
X162876190Y-115376190D01*
X162971428Y-115376190D01*
X163019047Y-115352380D01*
X163042857Y-115328571D01*
X163066666Y-115280952D01*
X163066666Y-114876190D01*
X163566666Y-115376190D02*
X163280952Y-115376190D01*
X163423809Y-115376190D02*
X163423809Y-114876190D01*
X163376190Y-114947619D01*
X163328571Y-114995238D01*
X163280952Y-115019047D01*
X164042857Y-115376190D02*
X163757142Y-115376190D01*
X163900000Y-115376190D02*
X163900000Y-114876190D01*
X163852380Y-114947619D01*
X163804761Y-114995238D01*
X163757142Y-115019047D01*
%TO.C,D49*%
X144872857Y-111346190D02*
X144872857Y-110846190D01*
X144991904Y-110846190D01*
X145063333Y-110870000D01*
X145110952Y-110917619D01*
X145134761Y-110965238D01*
X145158571Y-111060476D01*
X145158571Y-111131904D01*
X145134761Y-111227142D01*
X145110952Y-111274761D01*
X145063333Y-111322380D01*
X144991904Y-111346190D01*
X144872857Y-111346190D01*
X145587142Y-111012857D02*
X145587142Y-111346190D01*
X145468095Y-110822380D02*
X145349047Y-111179523D01*
X145658571Y-111179523D01*
X145872857Y-111346190D02*
X145968095Y-111346190D01*
X146015714Y-111322380D01*
X146039523Y-111298571D01*
X146087142Y-111227142D01*
X146110952Y-111131904D01*
X146110952Y-110941428D01*
X146087142Y-110893809D01*
X146063333Y-110870000D01*
X146015714Y-110846190D01*
X145920476Y-110846190D01*
X145872857Y-110870000D01*
X145849047Y-110893809D01*
X145825238Y-110941428D01*
X145825238Y-111060476D01*
X145849047Y-111108095D01*
X145872857Y-111131904D01*
X145920476Y-111155714D01*
X146015714Y-111155714D01*
X146063333Y-111131904D01*
X146087142Y-111108095D01*
X146110952Y-111060476D01*
%TO.C,U6*%
X135744047Y-120026190D02*
X135744047Y-120430952D01*
X135767857Y-120478571D01*
X135791666Y-120502380D01*
X135839285Y-120526190D01*
X135934523Y-120526190D01*
X135982142Y-120502380D01*
X136005952Y-120478571D01*
X136029761Y-120430952D01*
X136029761Y-120026190D01*
X136482142Y-120026190D02*
X136386904Y-120026190D01*
X136339285Y-120050000D01*
X136315476Y-120073809D01*
X136267857Y-120145238D01*
X136244047Y-120240476D01*
X136244047Y-120430952D01*
X136267857Y-120478571D01*
X136291666Y-120502380D01*
X136339285Y-120526190D01*
X136434523Y-120526190D01*
X136482142Y-120502380D01*
X136505952Y-120478571D01*
X136529761Y-120430952D01*
X136529761Y-120311904D01*
X136505952Y-120264285D01*
X136482142Y-120240476D01*
X136434523Y-120216666D01*
X136339285Y-120216666D01*
X136291666Y-120240476D01*
X136267857Y-120264285D01*
X136244047Y-120311904D01*
%TO.C,C20*%
X167903571Y-124496428D02*
X167927380Y-124520238D01*
X167951190Y-124591666D01*
X167951190Y-124639285D01*
X167927380Y-124710714D01*
X167879761Y-124758333D01*
X167832142Y-124782142D01*
X167736904Y-124805952D01*
X167665476Y-124805952D01*
X167570238Y-124782142D01*
X167522619Y-124758333D01*
X167475000Y-124710714D01*
X167451190Y-124639285D01*
X167451190Y-124591666D01*
X167475000Y-124520238D01*
X167498809Y-124496428D01*
X167498809Y-124305952D02*
X167475000Y-124282142D01*
X167451190Y-124234523D01*
X167451190Y-124115476D01*
X167475000Y-124067857D01*
X167498809Y-124044047D01*
X167546428Y-124020238D01*
X167594047Y-124020238D01*
X167665476Y-124044047D01*
X167951190Y-124329761D01*
X167951190Y-124020238D01*
X167451190Y-123710714D02*
X167451190Y-123663095D01*
X167475000Y-123615476D01*
X167498809Y-123591666D01*
X167546428Y-123567857D01*
X167641666Y-123544047D01*
X167760714Y-123544047D01*
X167855952Y-123567857D01*
X167903571Y-123591666D01*
X167927380Y-123615476D01*
X167951190Y-123663095D01*
X167951190Y-123710714D01*
X167927380Y-123758333D01*
X167903571Y-123782142D01*
X167855952Y-123805952D01*
X167760714Y-123829761D01*
X167641666Y-123829761D01*
X167546428Y-123805952D01*
X167498809Y-123782142D01*
X167475000Y-123758333D01*
X167451190Y-123710714D01*
D10*
%TO.C,R9*%
X140136666Y-100783690D02*
X139970000Y-100545595D01*
X139850952Y-100783690D02*
X139850952Y-100283690D01*
X140041428Y-100283690D01*
X140089047Y-100307500D01*
X140112857Y-100331309D01*
X140136666Y-100378928D01*
X140136666Y-100450357D01*
X140112857Y-100497976D01*
X140089047Y-100521785D01*
X140041428Y-100545595D01*
X139850952Y-100545595D01*
X140374761Y-100783690D02*
X140470000Y-100783690D01*
X140517619Y-100759880D01*
X140541428Y-100736071D01*
X140589047Y-100664642D01*
X140612857Y-100569404D01*
X140612857Y-100378928D01*
X140589047Y-100331309D01*
X140565238Y-100307500D01*
X140517619Y-100283690D01*
X140422380Y-100283690D01*
X140374761Y-100307500D01*
X140350952Y-100331309D01*
X140327142Y-100378928D01*
X140327142Y-100497976D01*
X140350952Y-100545595D01*
X140374761Y-100569404D01*
X140422380Y-100593214D01*
X140517619Y-100593214D01*
X140565238Y-100569404D01*
X140589047Y-100545595D01*
X140612857Y-100497976D01*
%TO.C,C12*%
X148678571Y-92058571D02*
X148654761Y-92082380D01*
X148583333Y-92106190D01*
X148535714Y-92106190D01*
X148464285Y-92082380D01*
X148416666Y-92034761D01*
X148392857Y-91987142D01*
X148369047Y-91891904D01*
X148369047Y-91820476D01*
X148392857Y-91725238D01*
X148416666Y-91677619D01*
X148464285Y-91630000D01*
X148535714Y-91606190D01*
X148583333Y-91606190D01*
X148654761Y-91630000D01*
X148678571Y-91653809D01*
X149154761Y-92106190D02*
X148869047Y-92106190D01*
X149011904Y-92106190D02*
X149011904Y-91606190D01*
X148964285Y-91677619D01*
X148916666Y-91725238D01*
X148869047Y-91749047D01*
X149345238Y-91653809D02*
X149369047Y-91630000D01*
X149416666Y-91606190D01*
X149535714Y-91606190D01*
X149583333Y-91630000D01*
X149607142Y-91653809D01*
X149630952Y-91701428D01*
X149630952Y-91749047D01*
X149607142Y-91820476D01*
X149321428Y-92106190D01*
X149630952Y-92106190D01*
D12*
%TO.C,R58*%
X155496190Y-114471428D02*
X155258095Y-114638095D01*
X155496190Y-114757142D02*
X154996190Y-114757142D01*
X154996190Y-114566666D01*
X155020000Y-114519047D01*
X155043809Y-114495238D01*
X155091428Y-114471428D01*
X155162857Y-114471428D01*
X155210476Y-114495238D01*
X155234285Y-114519047D01*
X155258095Y-114566666D01*
X155258095Y-114757142D01*
X154996190Y-114019047D02*
X154996190Y-114257142D01*
X155234285Y-114280952D01*
X155210476Y-114257142D01*
X155186666Y-114209523D01*
X155186666Y-114090476D01*
X155210476Y-114042857D01*
X155234285Y-114019047D01*
X155281904Y-113995238D01*
X155400952Y-113995238D01*
X155448571Y-114019047D01*
X155472380Y-114042857D01*
X155496190Y-114090476D01*
X155496190Y-114209523D01*
X155472380Y-114257142D01*
X155448571Y-114280952D01*
X155210476Y-113709523D02*
X155186666Y-113757142D01*
X155162857Y-113780952D01*
X155115238Y-113804761D01*
X155091428Y-113804761D01*
X155043809Y-113780952D01*
X155020000Y-113757142D01*
X154996190Y-113709523D01*
X154996190Y-113614285D01*
X155020000Y-113566666D01*
X155043809Y-113542857D01*
X155091428Y-113519047D01*
X155115238Y-113519047D01*
X155162857Y-113542857D01*
X155186666Y-113566666D01*
X155210476Y-113614285D01*
X155210476Y-113709523D01*
X155234285Y-113757142D01*
X155258095Y-113780952D01*
X155305714Y-113804761D01*
X155400952Y-113804761D01*
X155448571Y-113780952D01*
X155472380Y-113757142D01*
X155496190Y-113709523D01*
X155496190Y-113614285D01*
X155472380Y-113566666D01*
X155448571Y-113542857D01*
X155400952Y-113519047D01*
X155305714Y-113519047D01*
X155258095Y-113542857D01*
X155234285Y-113566666D01*
X155210476Y-113614285D01*
D10*
%TO.C,R3*%
X149586666Y-94386190D02*
X149420000Y-94148095D01*
X149300952Y-94386190D02*
X149300952Y-93886190D01*
X149491428Y-93886190D01*
X149539047Y-93910000D01*
X149562857Y-93933809D01*
X149586666Y-93981428D01*
X149586666Y-94052857D01*
X149562857Y-94100476D01*
X149539047Y-94124285D01*
X149491428Y-94148095D01*
X149300952Y-94148095D01*
X149753333Y-93886190D02*
X150062857Y-93886190D01*
X149896190Y-94076666D01*
X149967619Y-94076666D01*
X150015238Y-94100476D01*
X150039047Y-94124285D01*
X150062857Y-94171904D01*
X150062857Y-94290952D01*
X150039047Y-94338571D01*
X150015238Y-94362380D01*
X149967619Y-94386190D01*
X149824761Y-94386190D01*
X149777142Y-94362380D01*
X149753333Y-94338571D01*
%TO.C,C1*%
X149236666Y-98888571D02*
X149212857Y-98912380D01*
X149141428Y-98936190D01*
X149093809Y-98936190D01*
X149022380Y-98912380D01*
X148974761Y-98864761D01*
X148950952Y-98817142D01*
X148927142Y-98721904D01*
X148927142Y-98650476D01*
X148950952Y-98555238D01*
X148974761Y-98507619D01*
X149022380Y-98460000D01*
X149093809Y-98436190D01*
X149141428Y-98436190D01*
X149212857Y-98460000D01*
X149236666Y-98483809D01*
X149712857Y-98936190D02*
X149427142Y-98936190D01*
X149570000Y-98936190D02*
X149570000Y-98436190D01*
X149522380Y-98507619D01*
X149474761Y-98555238D01*
X149427142Y-98579047D01*
D12*
%TO.C,C26*%
X168203571Y-113596428D02*
X168227380Y-113620238D01*
X168251190Y-113691666D01*
X168251190Y-113739285D01*
X168227380Y-113810714D01*
X168179761Y-113858333D01*
X168132142Y-113882142D01*
X168036904Y-113905952D01*
X167965476Y-113905952D01*
X167870238Y-113882142D01*
X167822619Y-113858333D01*
X167775000Y-113810714D01*
X167751190Y-113739285D01*
X167751190Y-113691666D01*
X167775000Y-113620238D01*
X167798809Y-113596428D01*
X167798809Y-113405952D02*
X167775000Y-113382142D01*
X167751190Y-113334523D01*
X167751190Y-113215476D01*
X167775000Y-113167857D01*
X167798809Y-113144047D01*
X167846428Y-113120238D01*
X167894047Y-113120238D01*
X167965476Y-113144047D01*
X168251190Y-113429761D01*
X168251190Y-113120238D01*
X167751190Y-112691666D02*
X167751190Y-112786904D01*
X167775000Y-112834523D01*
X167798809Y-112858333D01*
X167870238Y-112905952D01*
X167965476Y-112929761D01*
X168155952Y-112929761D01*
X168203571Y-112905952D01*
X168227380Y-112882142D01*
X168251190Y-112834523D01*
X168251190Y-112739285D01*
X168227380Y-112691666D01*
X168203571Y-112667857D01*
X168155952Y-112644047D01*
X168036904Y-112644047D01*
X167989285Y-112667857D01*
X167965476Y-112691666D01*
X167941666Y-112739285D01*
X167941666Y-112834523D01*
X167965476Y-112882142D01*
X167989285Y-112905952D01*
X168036904Y-112929761D01*
D10*
%TO.C,C10*%
X150498571Y-98148571D02*
X150474761Y-98172380D01*
X150403333Y-98196190D01*
X150355714Y-98196190D01*
X150284285Y-98172380D01*
X150236666Y-98124761D01*
X150212857Y-98077142D01*
X150189047Y-97981904D01*
X150189047Y-97910476D01*
X150212857Y-97815238D01*
X150236666Y-97767619D01*
X150284285Y-97720000D01*
X150355714Y-97696190D01*
X150403333Y-97696190D01*
X150474761Y-97720000D01*
X150498571Y-97743809D01*
X150974761Y-98196190D02*
X150689047Y-98196190D01*
X150831904Y-98196190D02*
X150831904Y-97696190D01*
X150784285Y-97767619D01*
X150736666Y-97815238D01*
X150689047Y-97839047D01*
X151284285Y-97696190D02*
X151331904Y-97696190D01*
X151379523Y-97720000D01*
X151403333Y-97743809D01*
X151427142Y-97791428D01*
X151450952Y-97886666D01*
X151450952Y-98005714D01*
X151427142Y-98100952D01*
X151403333Y-98148571D01*
X151379523Y-98172380D01*
X151331904Y-98196190D01*
X151284285Y-98196190D01*
X151236666Y-98172380D01*
X151212857Y-98148571D01*
X151189047Y-98100952D01*
X151165238Y-98005714D01*
X151165238Y-97886666D01*
X151189047Y-97791428D01*
X151212857Y-97743809D01*
X151236666Y-97720000D01*
X151284285Y-97696190D01*
%TO.C,R6*%
X153606666Y-111036190D02*
X153440000Y-110798095D01*
X153320952Y-111036190D02*
X153320952Y-110536190D01*
X153511428Y-110536190D01*
X153559047Y-110560000D01*
X153582857Y-110583809D01*
X153606666Y-110631428D01*
X153606666Y-110702857D01*
X153582857Y-110750476D01*
X153559047Y-110774285D01*
X153511428Y-110798095D01*
X153320952Y-110798095D01*
X154035238Y-110536190D02*
X153940000Y-110536190D01*
X153892380Y-110560000D01*
X153868571Y-110583809D01*
X153820952Y-110655238D01*
X153797142Y-110750476D01*
X153797142Y-110940952D01*
X153820952Y-110988571D01*
X153844761Y-111012380D01*
X153892380Y-111036190D01*
X153987619Y-111036190D01*
X154035238Y-111012380D01*
X154059047Y-110988571D01*
X154082857Y-110940952D01*
X154082857Y-110821904D01*
X154059047Y-110774285D01*
X154035238Y-110750476D01*
X153987619Y-110726666D01*
X153892380Y-110726666D01*
X153844761Y-110750476D01*
X153820952Y-110774285D01*
X153797142Y-110821904D01*
D11*
%TO.C,U1*%
X155212380Y-95371904D02*
X156021904Y-95371904D01*
X156117142Y-95324285D01*
X156164761Y-95276666D01*
X156212380Y-95181428D01*
X156212380Y-94990952D01*
X156164761Y-94895714D01*
X156117142Y-94848095D01*
X156021904Y-94800476D01*
X155212380Y-94800476D01*
X156212380Y-93800476D02*
X156212380Y-94371904D01*
X156212380Y-94086190D02*
X155212380Y-94086190D01*
X155355238Y-94181428D01*
X155450476Y-94276666D01*
X155498095Y-94371904D01*
D12*
%TO.C,R2*%
X159456190Y-89973333D02*
X159218095Y-90140000D01*
X159456190Y-90259047D02*
X158956190Y-90259047D01*
X158956190Y-90068571D01*
X158980000Y-90020952D01*
X159003809Y-89997142D01*
X159051428Y-89973333D01*
X159122857Y-89973333D01*
X159170476Y-89997142D01*
X159194285Y-90020952D01*
X159218095Y-90068571D01*
X159218095Y-90259047D01*
X159003809Y-89782857D02*
X158980000Y-89759047D01*
X158956190Y-89711428D01*
X158956190Y-89592380D01*
X158980000Y-89544761D01*
X159003809Y-89520952D01*
X159051428Y-89497142D01*
X159099047Y-89497142D01*
X159170476Y-89520952D01*
X159456190Y-89806666D01*
X159456190Y-89497142D01*
D11*
%TO.C,J3*%
X156746666Y-111452380D02*
X156746666Y-112166666D01*
X156699047Y-112309523D01*
X156603809Y-112404761D01*
X156460952Y-112452380D01*
X156365714Y-112452380D01*
X157127619Y-111452380D02*
X157746666Y-111452380D01*
X157413333Y-111833333D01*
X157556190Y-111833333D01*
X157651428Y-111880952D01*
X157699047Y-111928571D01*
X157746666Y-112023809D01*
X157746666Y-112261904D01*
X157699047Y-112357142D01*
X157651428Y-112404761D01*
X157556190Y-112452380D01*
X157270476Y-112452380D01*
X157175238Y-112404761D01*
X157127619Y-112357142D01*
D12*
%TO.C,U12*%
X162930952Y-105551190D02*
X162930952Y-105955952D01*
X162954761Y-106003571D01*
X162978571Y-106027380D01*
X163026190Y-106051190D01*
X163121428Y-106051190D01*
X163169047Y-106027380D01*
X163192857Y-106003571D01*
X163216666Y-105955952D01*
X163216666Y-105551190D01*
X163716666Y-106051190D02*
X163430952Y-106051190D01*
X163573809Y-106051190D02*
X163573809Y-105551190D01*
X163526190Y-105622619D01*
X163478571Y-105670238D01*
X163430952Y-105694047D01*
X163907142Y-105598809D02*
X163930952Y-105575000D01*
X163978571Y-105551190D01*
X164097619Y-105551190D01*
X164145238Y-105575000D01*
X164169047Y-105598809D01*
X164192857Y-105646428D01*
X164192857Y-105694047D01*
X164169047Y-105765476D01*
X163883333Y-106051190D01*
X164192857Y-106051190D01*
D10*
%TO.C,C4*%
X156896666Y-98748571D02*
X156872857Y-98772380D01*
X156801428Y-98796190D01*
X156753809Y-98796190D01*
X156682380Y-98772380D01*
X156634761Y-98724761D01*
X156610952Y-98677142D01*
X156587142Y-98581904D01*
X156587142Y-98510476D01*
X156610952Y-98415238D01*
X156634761Y-98367619D01*
X156682380Y-98320000D01*
X156753809Y-98296190D01*
X156801428Y-98296190D01*
X156872857Y-98320000D01*
X156896666Y-98343809D01*
X157325238Y-98462857D02*
X157325238Y-98796190D01*
X157206190Y-98272380D02*
X157087142Y-98629523D01*
X157396666Y-98629523D01*
D12*
%TO.C,C19*%
X134678571Y-112871428D02*
X134702380Y-112895238D01*
X134726190Y-112966666D01*
X134726190Y-113014285D01*
X134702380Y-113085714D01*
X134654761Y-113133333D01*
X134607142Y-113157142D01*
X134511904Y-113180952D01*
X134440476Y-113180952D01*
X134345238Y-113157142D01*
X134297619Y-113133333D01*
X134250000Y-113085714D01*
X134226190Y-113014285D01*
X134226190Y-112966666D01*
X134250000Y-112895238D01*
X134273809Y-112871428D01*
X134726190Y-112395238D02*
X134726190Y-112680952D01*
X134726190Y-112538095D02*
X134226190Y-112538095D01*
X134297619Y-112585714D01*
X134345238Y-112633333D01*
X134369047Y-112680952D01*
X134726190Y-112157142D02*
X134726190Y-112061904D01*
X134702380Y-112014285D01*
X134678571Y-111990476D01*
X134607142Y-111942857D01*
X134511904Y-111919047D01*
X134321428Y-111919047D01*
X134273809Y-111942857D01*
X134250000Y-111966666D01*
X134226190Y-112014285D01*
X134226190Y-112109523D01*
X134250000Y-112157142D01*
X134273809Y-112180952D01*
X134321428Y-112204761D01*
X134440476Y-112204761D01*
X134488095Y-112180952D01*
X134511904Y-112157142D01*
X134535714Y-112109523D01*
X134535714Y-112014285D01*
X134511904Y-111966666D01*
X134488095Y-111942857D01*
X134440476Y-111919047D01*
D10*
%TO.C,R7*%
X153676666Y-98776190D02*
X153510000Y-98538095D01*
X153390952Y-98776190D02*
X153390952Y-98276190D01*
X153581428Y-98276190D01*
X153629047Y-98300000D01*
X153652857Y-98323809D01*
X153676666Y-98371428D01*
X153676666Y-98442857D01*
X153652857Y-98490476D01*
X153629047Y-98514285D01*
X153581428Y-98538095D01*
X153390952Y-98538095D01*
X153843333Y-98276190D02*
X154176666Y-98276190D01*
X153962380Y-98776190D01*
%TO.C,R5*%
X147496666Y-110116190D02*
X147330000Y-109878095D01*
X147210952Y-110116190D02*
X147210952Y-109616190D01*
X147401428Y-109616190D01*
X147449047Y-109640000D01*
X147472857Y-109663809D01*
X147496666Y-109711428D01*
X147496666Y-109782857D01*
X147472857Y-109830476D01*
X147449047Y-109854285D01*
X147401428Y-109878095D01*
X147210952Y-109878095D01*
X147949047Y-109616190D02*
X147710952Y-109616190D01*
X147687142Y-109854285D01*
X147710952Y-109830476D01*
X147758571Y-109806666D01*
X147877619Y-109806666D01*
X147925238Y-109830476D01*
X147949047Y-109854285D01*
X147972857Y-109901904D01*
X147972857Y-110020952D01*
X147949047Y-110068571D01*
X147925238Y-110092380D01*
X147877619Y-110116190D01*
X147758571Y-110116190D01*
X147710952Y-110092380D01*
X147687142Y-110068571D01*
D11*
%TO.C,JP1*%
X165172380Y-103203333D02*
X165886666Y-103203333D01*
X166029523Y-103250952D01*
X166124761Y-103346190D01*
X166172380Y-103489047D01*
X166172380Y-103584285D01*
X166172380Y-102727142D02*
X165172380Y-102727142D01*
X165172380Y-102346190D01*
X165220000Y-102250952D01*
X165267619Y-102203333D01*
X165362857Y-102155714D01*
X165505714Y-102155714D01*
X165600952Y-102203333D01*
X165648571Y-102250952D01*
X165696190Y-102346190D01*
X165696190Y-102727142D01*
X166172380Y-101203333D02*
X166172380Y-101774761D01*
X166172380Y-101489047D02*
X165172380Y-101489047D01*
X165315238Y-101584285D01*
X165410476Y-101679523D01*
X165458095Y-101774761D01*
D12*
%TO.C,R57*%
X133778571Y-100186190D02*
X133611904Y-99948095D01*
X133492857Y-100186190D02*
X133492857Y-99686190D01*
X133683333Y-99686190D01*
X133730952Y-99710000D01*
X133754761Y-99733809D01*
X133778571Y-99781428D01*
X133778571Y-99852857D01*
X133754761Y-99900476D01*
X133730952Y-99924285D01*
X133683333Y-99948095D01*
X133492857Y-99948095D01*
X134230952Y-99686190D02*
X133992857Y-99686190D01*
X133969047Y-99924285D01*
X133992857Y-99900476D01*
X134040476Y-99876666D01*
X134159523Y-99876666D01*
X134207142Y-99900476D01*
X134230952Y-99924285D01*
X134254761Y-99971904D01*
X134254761Y-100090952D01*
X134230952Y-100138571D01*
X134207142Y-100162380D01*
X134159523Y-100186190D01*
X134040476Y-100186190D01*
X133992857Y-100162380D01*
X133969047Y-100138571D01*
X134421428Y-99686190D02*
X134754761Y-99686190D01*
X134540476Y-100186190D01*
%TO.C,U10*%
X162780952Y-125726190D02*
X162780952Y-126130952D01*
X162804761Y-126178571D01*
X162828571Y-126202380D01*
X162876190Y-126226190D01*
X162971428Y-126226190D01*
X163019047Y-126202380D01*
X163042857Y-126178571D01*
X163066666Y-126130952D01*
X163066666Y-125726190D01*
X163566666Y-126226190D02*
X163280952Y-126226190D01*
X163423809Y-126226190D02*
X163423809Y-125726190D01*
X163376190Y-125797619D01*
X163328571Y-125845238D01*
X163280952Y-125869047D01*
X163876190Y-125726190D02*
X163923809Y-125726190D01*
X163971428Y-125750000D01*
X163995238Y-125773809D01*
X164019047Y-125821428D01*
X164042857Y-125916666D01*
X164042857Y-126035714D01*
X164019047Y-126130952D01*
X163995238Y-126178571D01*
X163971428Y-126202380D01*
X163923809Y-126226190D01*
X163876190Y-126226190D01*
X163828571Y-126202380D01*
X163804761Y-126178571D01*
X163780952Y-126130952D01*
X163757142Y-126035714D01*
X163757142Y-125916666D01*
X163780952Y-125821428D01*
X163804761Y-125773809D01*
X163828571Y-125750000D01*
X163876190Y-125726190D01*
D10*
%TO.C,C8*%
X154206666Y-102838571D02*
X154182857Y-102862380D01*
X154111428Y-102886190D01*
X154063809Y-102886190D01*
X153992380Y-102862380D01*
X153944761Y-102814761D01*
X153920952Y-102767142D01*
X153897142Y-102671904D01*
X153897142Y-102600476D01*
X153920952Y-102505238D01*
X153944761Y-102457619D01*
X153992380Y-102410000D01*
X154063809Y-102386190D01*
X154111428Y-102386190D01*
X154182857Y-102410000D01*
X154206666Y-102433809D01*
X154492380Y-102600476D02*
X154444761Y-102576666D01*
X154420952Y-102552857D01*
X154397142Y-102505238D01*
X154397142Y-102481428D01*
X154420952Y-102433809D01*
X154444761Y-102410000D01*
X154492380Y-102386190D01*
X154587619Y-102386190D01*
X154635238Y-102410000D01*
X154659047Y-102433809D01*
X154682857Y-102481428D01*
X154682857Y-102505238D01*
X154659047Y-102552857D01*
X154635238Y-102576666D01*
X154587619Y-102600476D01*
X154492380Y-102600476D01*
X154444761Y-102624285D01*
X154420952Y-102648095D01*
X154397142Y-102695714D01*
X154397142Y-102790952D01*
X154420952Y-102838571D01*
X154444761Y-102862380D01*
X154492380Y-102886190D01*
X154587619Y-102886190D01*
X154635238Y-102862380D01*
X154659047Y-102838571D01*
X154682857Y-102790952D01*
X154682857Y-102695714D01*
X154659047Y-102648095D01*
X154635238Y-102624285D01*
X154587619Y-102600476D01*
D12*
%TO.C,C21*%
X144308571Y-129126428D02*
X144332380Y-129150238D01*
X144356190Y-129221666D01*
X144356190Y-129269285D01*
X144332380Y-129340714D01*
X144284761Y-129388333D01*
X144237142Y-129412142D01*
X144141904Y-129435952D01*
X144070476Y-129435952D01*
X143975238Y-129412142D01*
X143927619Y-129388333D01*
X143880000Y-129340714D01*
X143856190Y-129269285D01*
X143856190Y-129221666D01*
X143880000Y-129150238D01*
X143903809Y-129126428D01*
X143903809Y-128935952D02*
X143880000Y-128912142D01*
X143856190Y-128864523D01*
X143856190Y-128745476D01*
X143880000Y-128697857D01*
X143903809Y-128674047D01*
X143951428Y-128650238D01*
X143999047Y-128650238D01*
X144070476Y-128674047D01*
X144356190Y-128959761D01*
X144356190Y-128650238D01*
X144356190Y-128174047D02*
X144356190Y-128459761D01*
X144356190Y-128316904D02*
X143856190Y-128316904D01*
X143927619Y-128364523D01*
X143975238Y-128412142D01*
X143999047Y-128459761D01*
D10*
%TO.C,C15*%
X144808571Y-92011428D02*
X144832380Y-92035238D01*
X144856190Y-92106666D01*
X144856190Y-92154285D01*
X144832380Y-92225714D01*
X144784761Y-92273333D01*
X144737142Y-92297142D01*
X144641904Y-92320952D01*
X144570476Y-92320952D01*
X144475238Y-92297142D01*
X144427619Y-92273333D01*
X144380000Y-92225714D01*
X144356190Y-92154285D01*
X144356190Y-92106666D01*
X144380000Y-92035238D01*
X144403809Y-92011428D01*
X144856190Y-91535238D02*
X144856190Y-91820952D01*
X144856190Y-91678095D02*
X144356190Y-91678095D01*
X144427619Y-91725714D01*
X144475238Y-91773333D01*
X144499047Y-91820952D01*
X144356190Y-91082857D02*
X144356190Y-91320952D01*
X144594285Y-91344761D01*
X144570476Y-91320952D01*
X144546666Y-91273333D01*
X144546666Y-91154285D01*
X144570476Y-91106666D01*
X144594285Y-91082857D01*
X144641904Y-91059047D01*
X144760952Y-91059047D01*
X144808571Y-91082857D01*
X144832380Y-91106666D01*
X144856190Y-91154285D01*
X144856190Y-91273333D01*
X144832380Y-91320952D01*
X144808571Y-91344761D01*
%TO.C,C18*%
X155218571Y-102448571D02*
X155194761Y-102472380D01*
X155123333Y-102496190D01*
X155075714Y-102496190D01*
X155004285Y-102472380D01*
X154956666Y-102424761D01*
X154932857Y-102377142D01*
X154909047Y-102281904D01*
X154909047Y-102210476D01*
X154932857Y-102115238D01*
X154956666Y-102067619D01*
X155004285Y-102020000D01*
X155075714Y-101996190D01*
X155123333Y-101996190D01*
X155194761Y-102020000D01*
X155218571Y-102043809D01*
X155694761Y-102496190D02*
X155409047Y-102496190D01*
X155551904Y-102496190D02*
X155551904Y-101996190D01*
X155504285Y-102067619D01*
X155456666Y-102115238D01*
X155409047Y-102139047D01*
X155980476Y-102210476D02*
X155932857Y-102186666D01*
X155909047Y-102162857D01*
X155885238Y-102115238D01*
X155885238Y-102091428D01*
X155909047Y-102043809D01*
X155932857Y-102020000D01*
X155980476Y-101996190D01*
X156075714Y-101996190D01*
X156123333Y-102020000D01*
X156147142Y-102043809D01*
X156170952Y-102091428D01*
X156170952Y-102115238D01*
X156147142Y-102162857D01*
X156123333Y-102186666D01*
X156075714Y-102210476D01*
X155980476Y-102210476D01*
X155932857Y-102234285D01*
X155909047Y-102258095D01*
X155885238Y-102305714D01*
X155885238Y-102400952D01*
X155909047Y-102448571D01*
X155932857Y-102472380D01*
X155980476Y-102496190D01*
X156075714Y-102496190D01*
X156123333Y-102472380D01*
X156147142Y-102448571D01*
X156170952Y-102400952D01*
X156170952Y-102305714D01*
X156147142Y-102258095D01*
X156123333Y-102234285D01*
X156075714Y-102210476D01*
D12*
%TO.C,C24*%
X134203571Y-133371428D02*
X134227380Y-133395238D01*
X134251190Y-133466666D01*
X134251190Y-133514285D01*
X134227380Y-133585714D01*
X134179761Y-133633333D01*
X134132142Y-133657142D01*
X134036904Y-133680952D01*
X133965476Y-133680952D01*
X133870238Y-133657142D01*
X133822619Y-133633333D01*
X133775000Y-133585714D01*
X133751190Y-133514285D01*
X133751190Y-133466666D01*
X133775000Y-133395238D01*
X133798809Y-133371428D01*
X133798809Y-133180952D02*
X133775000Y-133157142D01*
X133751190Y-133109523D01*
X133751190Y-132990476D01*
X133775000Y-132942857D01*
X133798809Y-132919047D01*
X133846428Y-132895238D01*
X133894047Y-132895238D01*
X133965476Y-132919047D01*
X134251190Y-133204761D01*
X134251190Y-132895238D01*
X133917857Y-132466666D02*
X134251190Y-132466666D01*
X133727380Y-132585714D02*
X134084523Y-132704761D01*
X134084523Y-132395238D01*
D10*
%TO.C,U2*%
X141746190Y-101900952D02*
X142150952Y-101900952D01*
X142198571Y-101877142D01*
X142222380Y-101853333D01*
X142246190Y-101805714D01*
X142246190Y-101710476D01*
X142222380Y-101662857D01*
X142198571Y-101639047D01*
X142150952Y-101615238D01*
X141746190Y-101615238D01*
X141793809Y-101400952D02*
X141770000Y-101377142D01*
X141746190Y-101329523D01*
X141746190Y-101210476D01*
X141770000Y-101162857D01*
X141793809Y-101139047D01*
X141841428Y-101115238D01*
X141889047Y-101115238D01*
X141960476Y-101139047D01*
X142246190Y-101424761D01*
X142246190Y-101115238D01*
%TO.C,R4*%
X148086666Y-94386190D02*
X147920000Y-94148095D01*
X147800952Y-94386190D02*
X147800952Y-93886190D01*
X147991428Y-93886190D01*
X148039047Y-93910000D01*
X148062857Y-93933809D01*
X148086666Y-93981428D01*
X148086666Y-94052857D01*
X148062857Y-94100476D01*
X148039047Y-94124285D01*
X147991428Y-94148095D01*
X147800952Y-94148095D01*
X148515238Y-94052857D02*
X148515238Y-94386190D01*
X148396190Y-93862380D02*
X148277142Y-94219523D01*
X148586666Y-94219523D01*
D12*
%TO.C,C23*%
X167978571Y-104371428D02*
X168002380Y-104395238D01*
X168026190Y-104466666D01*
X168026190Y-104514285D01*
X168002380Y-104585714D01*
X167954761Y-104633333D01*
X167907142Y-104657142D01*
X167811904Y-104680952D01*
X167740476Y-104680952D01*
X167645238Y-104657142D01*
X167597619Y-104633333D01*
X167550000Y-104585714D01*
X167526190Y-104514285D01*
X167526190Y-104466666D01*
X167550000Y-104395238D01*
X167573809Y-104371428D01*
X167573809Y-104180952D02*
X167550000Y-104157142D01*
X167526190Y-104109523D01*
X167526190Y-103990476D01*
X167550000Y-103942857D01*
X167573809Y-103919047D01*
X167621428Y-103895238D01*
X167669047Y-103895238D01*
X167740476Y-103919047D01*
X168026190Y-104204761D01*
X168026190Y-103895238D01*
X167526190Y-103728571D02*
X167526190Y-103419047D01*
X167716666Y-103585714D01*
X167716666Y-103514285D01*
X167740476Y-103466666D01*
X167764285Y-103442857D01*
X167811904Y-103419047D01*
X167930952Y-103419047D01*
X167978571Y-103442857D01*
X168002380Y-103466666D01*
X168026190Y-103514285D01*
X168026190Y-103657142D01*
X168002380Y-103704761D01*
X167978571Y-103728571D01*
D10*
%TO.C,C16*%
X147128571Y-115868571D02*
X147104761Y-115892380D01*
X147033333Y-115916190D01*
X146985714Y-115916190D01*
X146914285Y-115892380D01*
X146866666Y-115844761D01*
X146842857Y-115797142D01*
X146819047Y-115701904D01*
X146819047Y-115630476D01*
X146842857Y-115535238D01*
X146866666Y-115487619D01*
X146914285Y-115440000D01*
X146985714Y-115416190D01*
X147033333Y-115416190D01*
X147104761Y-115440000D01*
X147128571Y-115463809D01*
X147604761Y-115916190D02*
X147319047Y-115916190D01*
X147461904Y-115916190D02*
X147461904Y-115416190D01*
X147414285Y-115487619D01*
X147366666Y-115535238D01*
X147319047Y-115559047D01*
X148033333Y-115416190D02*
X147938095Y-115416190D01*
X147890476Y-115440000D01*
X147866666Y-115463809D01*
X147819047Y-115535238D01*
X147795238Y-115630476D01*
X147795238Y-115820952D01*
X147819047Y-115868571D01*
X147842857Y-115892380D01*
X147890476Y-115916190D01*
X147985714Y-115916190D01*
X148033333Y-115892380D01*
X148057142Y-115868571D01*
X148080952Y-115820952D01*
X148080952Y-115701904D01*
X148057142Y-115654285D01*
X148033333Y-115630476D01*
X147985714Y-115606666D01*
X147890476Y-115606666D01*
X147842857Y-115630476D01*
X147819047Y-115654285D01*
X147795238Y-115701904D01*
D12*
%TO.C,U7*%
X135719047Y-130776190D02*
X135719047Y-131180952D01*
X135742857Y-131228571D01*
X135766666Y-131252380D01*
X135814285Y-131276190D01*
X135909523Y-131276190D01*
X135957142Y-131252380D01*
X135980952Y-131228571D01*
X136004761Y-131180952D01*
X136004761Y-130776190D01*
X136195238Y-130776190D02*
X136528571Y-130776190D01*
X136314285Y-131276190D01*
D10*
%TO.C,U3*%
X144989047Y-109306190D02*
X144989047Y-109710952D01*
X145012857Y-109758571D01*
X145036666Y-109782380D01*
X145084285Y-109806190D01*
X145179523Y-109806190D01*
X145227142Y-109782380D01*
X145250952Y-109758571D01*
X145274761Y-109710952D01*
X145274761Y-109306190D01*
X145465238Y-109306190D02*
X145774761Y-109306190D01*
X145608095Y-109496666D01*
X145679523Y-109496666D01*
X145727142Y-109520476D01*
X145750952Y-109544285D01*
X145774761Y-109591904D01*
X145774761Y-109710952D01*
X145750952Y-109758571D01*
X145727142Y-109782380D01*
X145679523Y-109806190D01*
X145536666Y-109806190D01*
X145489047Y-109782380D01*
X145465238Y-109758571D01*
%TO.C,C2*%
X143326666Y-101638571D02*
X143302857Y-101662380D01*
X143231428Y-101686190D01*
X143183809Y-101686190D01*
X143112380Y-101662380D01*
X143064761Y-101614761D01*
X143040952Y-101567142D01*
X143017142Y-101471904D01*
X143017142Y-101400476D01*
X143040952Y-101305238D01*
X143064761Y-101257619D01*
X143112380Y-101210000D01*
X143183809Y-101186190D01*
X143231428Y-101186190D01*
X143302857Y-101210000D01*
X143326666Y-101233809D01*
X143517142Y-101233809D02*
X143540952Y-101210000D01*
X143588571Y-101186190D01*
X143707619Y-101186190D01*
X143755238Y-101210000D01*
X143779047Y-101233809D01*
X143802857Y-101281428D01*
X143802857Y-101329047D01*
X143779047Y-101400476D01*
X143493333Y-101686190D01*
X143802857Y-101686190D01*
D12*
%TO.C,C14*%
X137698571Y-104568571D02*
X137674761Y-104592380D01*
X137603333Y-104616190D01*
X137555714Y-104616190D01*
X137484285Y-104592380D01*
X137436666Y-104544761D01*
X137412857Y-104497142D01*
X137389047Y-104401904D01*
X137389047Y-104330476D01*
X137412857Y-104235238D01*
X137436666Y-104187619D01*
X137484285Y-104140000D01*
X137555714Y-104116190D01*
X137603333Y-104116190D01*
X137674761Y-104140000D01*
X137698571Y-104163809D01*
X138174761Y-104616190D02*
X137889047Y-104616190D01*
X138031904Y-104616190D02*
X138031904Y-104116190D01*
X137984285Y-104187619D01*
X137936666Y-104235238D01*
X137889047Y-104259047D01*
X138603333Y-104282857D02*
X138603333Y-104616190D01*
X138484285Y-104092380D02*
X138365238Y-104449523D01*
X138674761Y-104449523D01*
D11*
%TO.C,JP2*%
X136666666Y-100207380D02*
X136666666Y-100921666D01*
X136619047Y-101064523D01*
X136523809Y-101159761D01*
X136380952Y-101207380D01*
X136285714Y-101207380D01*
X137142857Y-101207380D02*
X137142857Y-100207380D01*
X137523809Y-100207380D01*
X137619047Y-100255000D01*
X137666666Y-100302619D01*
X137714285Y-100397857D01*
X137714285Y-100540714D01*
X137666666Y-100635952D01*
X137619047Y-100683571D01*
X137523809Y-100731190D01*
X137142857Y-100731190D01*
X138095238Y-100302619D02*
X138142857Y-100255000D01*
X138238095Y-100207380D01*
X138476190Y-100207380D01*
X138571428Y-100255000D01*
X138619047Y-100302619D01*
X138666666Y-100397857D01*
X138666666Y-100493095D01*
X138619047Y-100635952D01*
X138047619Y-101207380D01*
X138666666Y-101207380D01*
D12*
%TO.C,J1*%
X149563333Y-86384404D02*
X149563333Y-86955833D01*
X149525238Y-87070119D01*
X149449047Y-87146309D01*
X149334761Y-87184404D01*
X149258571Y-87184404D01*
X150363333Y-87184404D02*
X149906190Y-87184404D01*
X150134761Y-87184404D02*
X150134761Y-86384404D01*
X150058571Y-86498690D01*
X149982380Y-86574880D01*
X149906190Y-86612976D01*
D10*
%TO.C,C3*%
X147438571Y-100103333D02*
X147462380Y-100127142D01*
X147486190Y-100198571D01*
X147486190Y-100246190D01*
X147462380Y-100317619D01*
X147414761Y-100365238D01*
X147367142Y-100389047D01*
X147271904Y-100412857D01*
X147200476Y-100412857D01*
X147105238Y-100389047D01*
X147057619Y-100365238D01*
X147010000Y-100317619D01*
X146986190Y-100246190D01*
X146986190Y-100198571D01*
X147010000Y-100127142D01*
X147033809Y-100103333D01*
X146986190Y-99936666D02*
X146986190Y-99627142D01*
X147176666Y-99793809D01*
X147176666Y-99722380D01*
X147200476Y-99674761D01*
X147224285Y-99650952D01*
X147271904Y-99627142D01*
X147390952Y-99627142D01*
X147438571Y-99650952D01*
X147462380Y-99674761D01*
X147486190Y-99722380D01*
X147486190Y-99865238D01*
X147462380Y-99912857D01*
X147438571Y-99936666D01*
D12*
%TO.C,R8*%
X142646666Y-89106190D02*
X142480000Y-88868095D01*
X142360952Y-89106190D02*
X142360952Y-88606190D01*
X142551428Y-88606190D01*
X142599047Y-88630000D01*
X142622857Y-88653809D01*
X142646666Y-88701428D01*
X142646666Y-88772857D01*
X142622857Y-88820476D01*
X142599047Y-88844285D01*
X142551428Y-88868095D01*
X142360952Y-88868095D01*
X142932380Y-88820476D02*
X142884761Y-88796666D01*
X142860952Y-88772857D01*
X142837142Y-88725238D01*
X142837142Y-88701428D01*
X142860952Y-88653809D01*
X142884761Y-88630000D01*
X142932380Y-88606190D01*
X143027619Y-88606190D01*
X143075238Y-88630000D01*
X143099047Y-88653809D01*
X143122857Y-88701428D01*
X143122857Y-88725238D01*
X143099047Y-88772857D01*
X143075238Y-88796666D01*
X143027619Y-88820476D01*
X142932380Y-88820476D01*
X142884761Y-88844285D01*
X142860952Y-88868095D01*
X142837142Y-88915714D01*
X142837142Y-89010952D01*
X142860952Y-89058571D01*
X142884761Y-89082380D01*
X142932380Y-89106190D01*
X143027619Y-89106190D01*
X143075238Y-89082380D01*
X143099047Y-89058571D01*
X143122857Y-89010952D01*
X143122857Y-88915714D01*
X143099047Y-88868095D01*
X143075238Y-88844285D01*
X143027619Y-88820476D01*
D10*
%TO.C,C9*%
X148776666Y-111988571D02*
X148752857Y-112012380D01*
X148681428Y-112036190D01*
X148633809Y-112036190D01*
X148562380Y-112012380D01*
X148514761Y-111964761D01*
X148490952Y-111917142D01*
X148467142Y-111821904D01*
X148467142Y-111750476D01*
X148490952Y-111655238D01*
X148514761Y-111607619D01*
X148562380Y-111560000D01*
X148633809Y-111536190D01*
X148681428Y-111536190D01*
X148752857Y-111560000D01*
X148776666Y-111583809D01*
X149014761Y-112036190D02*
X149110000Y-112036190D01*
X149157619Y-112012380D01*
X149181428Y-111988571D01*
X149229047Y-111917142D01*
X149252857Y-111821904D01*
X149252857Y-111631428D01*
X149229047Y-111583809D01*
X149205238Y-111560000D01*
X149157619Y-111536190D01*
X149062380Y-111536190D01*
X149014761Y-111560000D01*
X148990952Y-111583809D01*
X148967142Y-111631428D01*
X148967142Y-111750476D01*
X148990952Y-111798095D01*
X149014761Y-111821904D01*
X149062380Y-111845714D01*
X149157619Y-111845714D01*
X149205238Y-111821904D01*
X149229047Y-111798095D01*
X149252857Y-111750476D01*
%TO.C,C5*%
X143506666Y-110718571D02*
X143482857Y-110742380D01*
X143411428Y-110766190D01*
X143363809Y-110766190D01*
X143292380Y-110742380D01*
X143244761Y-110694761D01*
X143220952Y-110647142D01*
X143197142Y-110551904D01*
X143197142Y-110480476D01*
X143220952Y-110385238D01*
X143244761Y-110337619D01*
X143292380Y-110290000D01*
X143363809Y-110266190D01*
X143411428Y-110266190D01*
X143482857Y-110290000D01*
X143506666Y-110313809D01*
X143959047Y-110266190D02*
X143720952Y-110266190D01*
X143697142Y-110504285D01*
X143720952Y-110480476D01*
X143768571Y-110456666D01*
X143887619Y-110456666D01*
X143935238Y-110480476D01*
X143959047Y-110504285D01*
X143982857Y-110551904D01*
X143982857Y-110670952D01*
X143959047Y-110718571D01*
X143935238Y-110742380D01*
X143887619Y-110766190D01*
X143768571Y-110766190D01*
X143720952Y-110742380D01*
X143697142Y-110718571D01*
D12*
%TO.C,C28*%
X152848571Y-117561428D02*
X152872380Y-117585238D01*
X152896190Y-117656666D01*
X152896190Y-117704285D01*
X152872380Y-117775714D01*
X152824761Y-117823333D01*
X152777142Y-117847142D01*
X152681904Y-117870952D01*
X152610476Y-117870952D01*
X152515238Y-117847142D01*
X152467619Y-117823333D01*
X152420000Y-117775714D01*
X152396190Y-117704285D01*
X152396190Y-117656666D01*
X152420000Y-117585238D01*
X152443809Y-117561428D01*
X152443809Y-117370952D02*
X152420000Y-117347142D01*
X152396190Y-117299523D01*
X152396190Y-117180476D01*
X152420000Y-117132857D01*
X152443809Y-117109047D01*
X152491428Y-117085238D01*
X152539047Y-117085238D01*
X152610476Y-117109047D01*
X152896190Y-117394761D01*
X152896190Y-117085238D01*
X152610476Y-116799523D02*
X152586666Y-116847142D01*
X152562857Y-116870952D01*
X152515238Y-116894761D01*
X152491428Y-116894761D01*
X152443809Y-116870952D01*
X152420000Y-116847142D01*
X152396190Y-116799523D01*
X152396190Y-116704285D01*
X152420000Y-116656666D01*
X152443809Y-116632857D01*
X152491428Y-116609047D01*
X152515238Y-116609047D01*
X152562857Y-116632857D01*
X152586666Y-116656666D01*
X152610476Y-116704285D01*
X152610476Y-116799523D01*
X152634285Y-116847142D01*
X152658095Y-116870952D01*
X152705714Y-116894761D01*
X152800952Y-116894761D01*
X152848571Y-116870952D01*
X152872380Y-116847142D01*
X152896190Y-116799523D01*
X152896190Y-116704285D01*
X152872380Y-116656666D01*
X152848571Y-116632857D01*
X152800952Y-116609047D01*
X152705714Y-116609047D01*
X152658095Y-116632857D01*
X152634285Y-116656666D01*
X152610476Y-116704285D01*
%TO.C,C22*%
X134263571Y-122871428D02*
X134287380Y-122895238D01*
X134311190Y-122966666D01*
X134311190Y-123014285D01*
X134287380Y-123085714D01*
X134239761Y-123133333D01*
X134192142Y-123157142D01*
X134096904Y-123180952D01*
X134025476Y-123180952D01*
X133930238Y-123157142D01*
X133882619Y-123133333D01*
X133835000Y-123085714D01*
X133811190Y-123014285D01*
X133811190Y-122966666D01*
X133835000Y-122895238D01*
X133858809Y-122871428D01*
X133858809Y-122680952D02*
X133835000Y-122657142D01*
X133811190Y-122609523D01*
X133811190Y-122490476D01*
X133835000Y-122442857D01*
X133858809Y-122419047D01*
X133906428Y-122395238D01*
X133954047Y-122395238D01*
X134025476Y-122419047D01*
X134311190Y-122704761D01*
X134311190Y-122395238D01*
X133858809Y-122204761D02*
X133835000Y-122180952D01*
X133811190Y-122133333D01*
X133811190Y-122014285D01*
X133835000Y-121966666D01*
X133858809Y-121942857D01*
X133906428Y-121919047D01*
X133954047Y-121919047D01*
X134025476Y-121942857D01*
X134311190Y-122228571D01*
X134311190Y-121919047D01*
D10*
%TO.C,C11*%
X153068571Y-104858571D02*
X153044761Y-104882380D01*
X152973333Y-104906190D01*
X152925714Y-104906190D01*
X152854285Y-104882380D01*
X152806666Y-104834761D01*
X152782857Y-104787142D01*
X152759047Y-104691904D01*
X152759047Y-104620476D01*
X152782857Y-104525238D01*
X152806666Y-104477619D01*
X152854285Y-104430000D01*
X152925714Y-104406190D01*
X152973333Y-104406190D01*
X153044761Y-104430000D01*
X153068571Y-104453809D01*
X153544761Y-104906190D02*
X153259047Y-104906190D01*
X153401904Y-104906190D02*
X153401904Y-104406190D01*
X153354285Y-104477619D01*
X153306666Y-104525238D01*
X153259047Y-104549047D01*
X154020952Y-104906190D02*
X153735238Y-104906190D01*
X153878095Y-104906190D02*
X153878095Y-104406190D01*
X153830476Y-104477619D01*
X153782857Y-104525238D01*
X153735238Y-104549047D01*
%TO.C,C17*%
X151718571Y-110838571D02*
X151694761Y-110862380D01*
X151623333Y-110886190D01*
X151575714Y-110886190D01*
X151504285Y-110862380D01*
X151456666Y-110814761D01*
X151432857Y-110767142D01*
X151409047Y-110671904D01*
X151409047Y-110600476D01*
X151432857Y-110505238D01*
X151456666Y-110457619D01*
X151504285Y-110410000D01*
X151575714Y-110386190D01*
X151623333Y-110386190D01*
X151694761Y-110410000D01*
X151718571Y-110433809D01*
X152194761Y-110886190D02*
X151909047Y-110886190D01*
X152051904Y-110886190D02*
X152051904Y-110386190D01*
X152004285Y-110457619D01*
X151956666Y-110505238D01*
X151909047Y-110529047D01*
X152361428Y-110386190D02*
X152694761Y-110386190D01*
X152480476Y-110886190D01*
%TO.C,C7*%
X149836666Y-110038571D02*
X149812857Y-110062380D01*
X149741428Y-110086190D01*
X149693809Y-110086190D01*
X149622380Y-110062380D01*
X149574761Y-110014761D01*
X149550952Y-109967142D01*
X149527142Y-109871904D01*
X149527142Y-109800476D01*
X149550952Y-109705238D01*
X149574761Y-109657619D01*
X149622380Y-109610000D01*
X149693809Y-109586190D01*
X149741428Y-109586190D01*
X149812857Y-109610000D01*
X149836666Y-109633809D01*
X150003333Y-109586190D02*
X150336666Y-109586190D01*
X150122380Y-110086190D01*
%TO.C,C6*%
X152096666Y-99018571D02*
X152072857Y-99042380D01*
X152001428Y-99066190D01*
X151953809Y-99066190D01*
X151882380Y-99042380D01*
X151834761Y-98994761D01*
X151810952Y-98947142D01*
X151787142Y-98851904D01*
X151787142Y-98780476D01*
X151810952Y-98685238D01*
X151834761Y-98637619D01*
X151882380Y-98590000D01*
X151953809Y-98566190D01*
X152001428Y-98566190D01*
X152072857Y-98590000D01*
X152096666Y-98613809D01*
X152525238Y-98566190D02*
X152430000Y-98566190D01*
X152382380Y-98590000D01*
X152358571Y-98613809D01*
X152310952Y-98685238D01*
X152287142Y-98780476D01*
X152287142Y-98970952D01*
X152310952Y-99018571D01*
X152334761Y-99042380D01*
X152382380Y-99066190D01*
X152477619Y-99066190D01*
X152525238Y-99042380D01*
X152549047Y-99018571D01*
X152572857Y-98970952D01*
X152572857Y-98851904D01*
X152549047Y-98804285D01*
X152525238Y-98780476D01*
X152477619Y-98756666D01*
X152382380Y-98756666D01*
X152334761Y-98780476D01*
X152310952Y-98804285D01*
X152287142Y-98851904D01*
D13*
%TO.C,U5*%
X136000000Y-105265000D02*
X133800000Y-105265000D01*
X136000000Y-110735000D02*
X139600000Y-110735000D01*
X136000000Y-105265000D02*
X138200000Y-105265000D01*
X136000000Y-110735000D02*
X133800000Y-110735000D01*
%TO.C,R20*%
X139064000Y-121766359D02*
X139064000Y-122073641D01*
X138304000Y-121766359D02*
X138304000Y-122073641D01*
%TO.C,R44*%
X158245000Y-109096359D02*
X158245000Y-109403641D01*
X159005000Y-109096359D02*
X159005000Y-109403641D01*
%TO.C,Y1*%
X148620000Y-115530000D02*
X152620000Y-115530000D01*
X148620000Y-112230000D02*
X148620000Y-115530000D01*
%TO.C,C13*%
X143450000Y-106017836D02*
X143450000Y-105802164D01*
X144170000Y-106017836D02*
X144170000Y-105802164D01*
D12*
%TO.C,D11*%
X145330000Y-126000000D02*
G75*
G03*
X145330000Y-126000000I-50000J0D01*
G01*
%TO.C,D7*%
X152590000Y-118163000D02*
G75*
G03*
X152590000Y-118163000I-50000J0D01*
G01*
%TO.C,D48*%
X151940000Y-127020000D02*
G75*
G03*
X151940000Y-127020000I-50000J0D01*
G01*
%TO.C,D21*%
X147790000Y-123930000D02*
G75*
G03*
X147790000Y-123930000I-50000J0D01*
G01*
%TO.C,D28*%
X150270000Y-129650000D02*
G75*
G03*
X150270000Y-129650000I-50000J0D01*
G01*
%TO.C,D3*%
X148513000Y-118163000D02*
G75*
G03*
X148513000Y-118163000I-50000J0D01*
G01*
D13*
%TO.C,U11*%
X163475000Y-114607500D02*
X165675000Y-114607500D01*
X163475000Y-120077500D02*
X161275000Y-120077500D01*
X163475000Y-114607500D02*
X159875000Y-114607500D01*
X163475000Y-120077500D02*
X165675000Y-120077500D01*
%TO.C,U6*%
X136090000Y-115275000D02*
X138290000Y-115275000D01*
X136090000Y-115275000D02*
X133890000Y-115275000D01*
X136090000Y-120745000D02*
X133890000Y-120745000D01*
X136090000Y-120745000D02*
X139690000Y-120745000D01*
%TO.C,R25*%
X140986359Y-132820000D02*
X141293641Y-132820000D01*
X140986359Y-132060000D02*
X141293641Y-132060000D01*
%TO.C,R50*%
X157180000Y-117696359D02*
X157180000Y-118003641D01*
X156420000Y-117696359D02*
X156420000Y-118003641D01*
D12*
%TO.C,D37*%
X154556000Y-123952000D02*
G75*
G03*
X154556000Y-123952000I-50000J0D01*
G01*
D13*
%TO.C,C20*%
X166490000Y-124332836D02*
X166490000Y-124117164D01*
X167210000Y-124332836D02*
X167210000Y-124117164D01*
D12*
%TO.C,D17*%
X142270000Y-133530000D02*
G75*
G03*
X142270000Y-133530000I-50000J0D01*
G01*
D13*
%TO.C,R53*%
X158745000Y-121696359D02*
X158745000Y-122003641D01*
X159505000Y-121696359D02*
X159505000Y-122003641D01*
%TO.C,R9*%
X140672500Y-98742224D02*
X140672500Y-98232776D01*
X139627500Y-98742224D02*
X139627500Y-98232776D01*
%TO.C,C27*%
X144757836Y-118860000D02*
X144542164Y-118860000D01*
X144757836Y-119580000D02*
X144542164Y-119580000D01*
%TO.C,C12*%
X149390580Y-93510000D02*
X149109420Y-93510000D01*
X149390580Y-92490000D02*
X149109420Y-92490000D01*
D12*
%TO.C,D2*%
X147497000Y-118163000D02*
G75*
G03*
X147497000Y-118163000I-50000J0D01*
G01*
D13*
%TO.C,R29*%
X141970000Y-127933641D02*
X141970000Y-127626359D01*
X141210000Y-127933641D02*
X141210000Y-127626359D01*
%TO.C,R12*%
X138995000Y-111871359D02*
X138995000Y-112178641D01*
X139755000Y-111871359D02*
X139755000Y-112178641D01*
D12*
%TO.C,D18*%
X147780000Y-127020000D02*
G75*
G03*
X147780000Y-127020000I-50000J0D01*
G01*
%TO.C,D41*%
X163710000Y-112600000D02*
G75*
G03*
X163710000Y-112600000I-50000J0D01*
G01*
D13*
%TO.C,R58*%
X153527500Y-114354724D02*
X153527500Y-113845276D01*
X154572500Y-114354724D02*
X154572500Y-113845276D01*
D12*
%TO.C,D25*%
X153466000Y-129591000D02*
G75*
G03*
X153466000Y-129591000I-50000J0D01*
G01*
%TO.C,D8*%
X153620000Y-118180000D02*
G75*
G03*
X153620000Y-118180000I-50000J0D01*
G01*
D13*
%TO.C,R23*%
X141860000Y-119036359D02*
X141860000Y-119343641D01*
X142620000Y-119036359D02*
X142620000Y-119343641D01*
%TO.C,R3*%
X149227500Y-96424724D02*
X149227500Y-95915276D01*
X150272500Y-96424724D02*
X150272500Y-95915276D01*
%TO.C,C1*%
X149440000Y-100117836D02*
X149440000Y-99902164D01*
X148720000Y-100117836D02*
X148720000Y-99902164D01*
%TO.C,R35*%
X157460000Y-132306359D02*
X157460000Y-132613641D01*
X156700000Y-132306359D02*
X156700000Y-132613641D01*
%TO.C,C26*%
X166790000Y-113407836D02*
X166790000Y-113192164D01*
X167510000Y-113407836D02*
X167510000Y-113192164D01*
%TO.C,C10*%
X151340000Y-99860580D02*
X151340000Y-99579420D01*
X150320000Y-99860580D02*
X150320000Y-99579420D01*
D12*
%TO.C,D15*%
X145300000Y-121830000D02*
G75*
G03*
X145300000Y-121830000I-50000J0D01*
G01*
%TO.C,D6*%
X151561000Y-118163000D02*
G75*
G03*
X151561000Y-118163000I-50000J0D01*
G01*
D13*
%TO.C,R41*%
X160203641Y-99400000D02*
X159896359Y-99400000D01*
X160203641Y-100160000D02*
X159896359Y-100160000D01*
%TO.C,R39*%
X161740000Y-132266359D02*
X161740000Y-132573641D01*
X160980000Y-132266359D02*
X160980000Y-132573641D01*
%TO.C,R6*%
X153067500Y-108984724D02*
X153067500Y-108475276D01*
X154112500Y-108984724D02*
X154112500Y-108475276D01*
%TO.C,R31*%
X140080000Y-125923641D02*
X140080000Y-125616359D01*
X140840000Y-125923641D02*
X140840000Y-125616359D01*
D12*
%TO.C,D5*%
X150545000Y-118163000D02*
G75*
G03*
X150545000Y-118163000I-50000J0D01*
G01*
%TO.C,D46*%
X151970000Y-124960000D02*
G75*
G03*
X151970000Y-124960000I-50000J0D01*
G01*
%TO.C,D44*%
X151950000Y-122890000D02*
G75*
G03*
X151950000Y-122890000I-50000J0D01*
G01*
%TO.C,D10*%
X145330000Y-127020000D02*
G75*
G03*
X145330000Y-127020000I-50000J0D01*
G01*
%TO.C,D16*%
X145277500Y-120790000D02*
G75*
G03*
X145277500Y-120790000I-50000J0D01*
G01*
D13*
%TO.C,R55*%
X161705000Y-121721359D02*
X161705000Y-122028641D01*
X160945000Y-121721359D02*
X160945000Y-122028641D01*
D12*
%TO.C,D35*%
X154556000Y-121920000D02*
G75*
G03*
X154556000Y-121920000I-50000J0D01*
G01*
D13*
%TO.C,U1*%
X153810000Y-97960000D02*
X157570000Y-97960000D01*
X157570000Y-97960000D02*
X157570000Y-96700000D01*
X151560000Y-91140000D02*
X157570000Y-91140000D01*
X157570000Y-91140000D02*
X157570000Y-92400000D01*
%TO.C,R2*%
X157384724Y-90452500D02*
X156875276Y-90452500D01*
X157384724Y-89407500D02*
X156875276Y-89407500D01*
%TO.C,J3*%
X157530000Y-108110000D02*
X157530000Y-102970000D01*
X157530000Y-110710000D02*
X156200000Y-110710000D01*
X157530000Y-102970000D02*
X154870000Y-102970000D01*
X157530000Y-109380000D02*
X157530000Y-110710000D01*
X154870000Y-108110000D02*
X154870000Y-102970000D01*
X157530000Y-108110000D02*
X154870000Y-108110000D01*
%TO.C,U12*%
X163700000Y-110710000D02*
X161500000Y-110710000D01*
X163700000Y-110710000D02*
X165900000Y-110710000D01*
X163700000Y-105240000D02*
X165900000Y-105240000D01*
X163700000Y-105240000D02*
X160100000Y-105240000D01*
D12*
%TO.C,D39*%
X154556000Y-125984000D02*
G75*
G03*
X154556000Y-125984000I-50000J0D01*
G01*
D13*
%TO.C,C4*%
X157510000Y-100239420D02*
X157510000Y-100520580D01*
X156490000Y-100239420D02*
X156490000Y-100520580D01*
%TO.C,R48*%
X161620000Y-111971359D02*
X161620000Y-112278641D01*
X162380000Y-111971359D02*
X162380000Y-112278641D01*
%TO.C,C19*%
X133290000Y-112442164D02*
X133290000Y-112657836D01*
X134010000Y-112442164D02*
X134010000Y-112657836D01*
D12*
%TO.C,D34*%
X154556000Y-120904000D02*
G75*
G03*
X154556000Y-120904000I-50000J0D01*
G01*
D13*
%TO.C,R26*%
X140996359Y-131760000D02*
X141303641Y-131760000D01*
X140996359Y-131000000D02*
X141303641Y-131000000D01*
%TO.C,R52*%
X157745000Y-117721359D02*
X157745000Y-118028641D01*
X158505000Y-117721359D02*
X158505000Y-118028641D01*
%TO.C,R11*%
X137820000Y-111896359D02*
X137820000Y-112203641D01*
X138580000Y-111896359D02*
X138580000Y-112203641D01*
%TO.C,R1*%
X136355000Y-111871359D02*
X136355000Y-112178641D01*
X135595000Y-111871359D02*
X135595000Y-112178641D01*
%TO.C,R10*%
X136720000Y-111871359D02*
X136720000Y-112178641D01*
X137480000Y-111871359D02*
X137480000Y-112178641D01*
D12*
%TO.C,D22*%
X147800000Y-122890000D02*
G75*
G03*
X147800000Y-122890000I-50000J0D01*
G01*
D13*
%TO.C,R7*%
X153237500Y-100305276D02*
X153237500Y-100814724D01*
X154282500Y-100305276D02*
X154282500Y-100814724D01*
%TO.C,R13*%
X141186359Y-108990000D02*
X141493641Y-108990000D01*
X141186359Y-109750000D02*
X141493641Y-109750000D01*
%TO.C,C25*%
X154160000Y-128412164D02*
X154160000Y-128627836D01*
X154880000Y-128412164D02*
X154880000Y-128627836D01*
D12*
%TO.C,D14*%
X145290000Y-122890000D02*
G75*
G03*
X145290000Y-122890000I-50000J0D01*
G01*
%TO.C,D42*%
X151970000Y-120770000D02*
G75*
G03*
X151970000Y-120770000I-50000J0D01*
G01*
D13*
%TO.C,R16*%
X141226359Y-105700000D02*
X141533641Y-105700000D01*
X141226359Y-106460000D02*
X141533641Y-106460000D01*
%TO.C,R56*%
X162120000Y-121746359D02*
X162120000Y-122053641D01*
X162880000Y-121746359D02*
X162880000Y-122053641D01*
%TO.C,R38*%
X160630000Y-132266359D02*
X160630000Y-132573641D01*
X159870000Y-132266359D02*
X159870000Y-132573641D01*
%TO.C,R5*%
X148112500Y-111904724D02*
X148112500Y-111395276D01*
X147067500Y-111904724D02*
X147067500Y-111395276D01*
%TO.C,R18*%
X136879600Y-121766359D02*
X136879600Y-122073641D01*
X136119600Y-121766359D02*
X136119600Y-122073641D01*
D12*
%TO.C,D19*%
X147810000Y-126000000D02*
G75*
G03*
X147810000Y-126000000I-50000J0D01*
G01*
D13*
%TO.C,R21*%
X141306359Y-121220000D02*
X141613641Y-121220000D01*
X141306359Y-120460000D02*
X141613641Y-120460000D01*
%TO.C,JP1*%
X159520000Y-101040000D02*
X159520000Y-103700000D01*
X163390000Y-101040000D02*
X164720000Y-101040000D01*
X164720000Y-101040000D02*
X164720000Y-102370000D01*
X162120000Y-101040000D02*
X159520000Y-101040000D01*
X162120000Y-101040000D02*
X162120000Y-103700000D01*
X162120000Y-103700000D02*
X159520000Y-103700000D01*
%TO.C,R14*%
X141196359Y-107840000D02*
X141503641Y-107840000D01*
X141196359Y-108600000D02*
X141503641Y-108600000D01*
D12*
%TO.C,D26*%
X152400000Y-129610000D02*
G75*
G03*
X152400000Y-129610000I-50000J0D01*
G01*
D13*
%TO.C,R57*%
X133577500Y-101745276D02*
X133577500Y-102254724D01*
X134622500Y-101745276D02*
X134622500Y-102254724D01*
D12*
%TO.C,D32*%
X146080000Y-129670000D02*
G75*
G03*
X146080000Y-129670000I-50000J0D01*
G01*
D13*
%TO.C,U10*%
X163560000Y-125465000D02*
X165760000Y-125465000D01*
X163560000Y-125465000D02*
X159960000Y-125465000D01*
X163560000Y-130935000D02*
X161360000Y-130935000D01*
X163560000Y-130935000D02*
X165760000Y-130935000D01*
%TO.C,C8*%
X153060000Y-103132164D02*
X153060000Y-103347836D01*
X153780000Y-103132164D02*
X153780000Y-103347836D01*
D12*
%TO.C,D23*%
X147804000Y-121830000D02*
G75*
G03*
X147804000Y-121830000I-50000J0D01*
G01*
D13*
%TO.C,C21*%
X144620000Y-128472164D02*
X144620000Y-128687836D01*
X145340000Y-128472164D02*
X145340000Y-128687836D01*
%TO.C,R22*%
X140830000Y-119046359D02*
X140830000Y-119353641D01*
X141590000Y-119046359D02*
X141590000Y-119353641D01*
%TO.C,R37*%
X159560000Y-132316359D02*
X159560000Y-132623641D01*
X158800000Y-132316359D02*
X158800000Y-132623641D01*
%TO.C,C15*%
X142559420Y-91250000D02*
X142840580Y-91250000D01*
X142559420Y-92270000D02*
X142840580Y-92270000D01*
%TO.C,R36*%
X158510000Y-132286359D02*
X158510000Y-132593641D01*
X157750000Y-132286359D02*
X157750000Y-132593641D01*
%TO.C,C18*%
X155910000Y-100239420D02*
X155910000Y-100520580D01*
X154890000Y-100239420D02*
X154890000Y-100520580D01*
%TO.C,C24*%
X133460000Y-132942164D02*
X133460000Y-133157836D01*
X132740000Y-132942164D02*
X132740000Y-133157836D01*
D12*
%TO.C,D40*%
X154556000Y-127000000D02*
G75*
G03*
X154556000Y-127000000I-50000J0D01*
G01*
D13*
%TO.C,U2*%
X146470000Y-96640000D02*
X146470000Y-94690000D01*
X146470000Y-96640000D02*
X146470000Y-98590000D01*
X141350000Y-96640000D02*
X141350000Y-100090000D01*
X141350000Y-96640000D02*
X141350000Y-94690000D01*
D12*
%TO.C,D43*%
X151960000Y-121840000D02*
G75*
G03*
X151960000Y-121840000I-50000J0D01*
G01*
D13*
%TO.C,R4*%
X147647500Y-95925276D02*
X147647500Y-96434724D01*
X148692500Y-95925276D02*
X148692500Y-96434724D01*
%TO.C,R54*%
X160580000Y-121721359D02*
X160580000Y-122028641D01*
X159820000Y-121721359D02*
X159820000Y-122028641D01*
%TO.C,C23*%
X166590000Y-104187836D02*
X166590000Y-103972164D01*
X167310000Y-104187836D02*
X167310000Y-103972164D01*
%TO.C,R27*%
X140986359Y-129980000D02*
X141293641Y-129980000D01*
X140986359Y-130740000D02*
X141293641Y-130740000D01*
%TO.C,C16*%
X146940000Y-114447836D02*
X146940000Y-114232164D01*
X147660000Y-114447836D02*
X147660000Y-114232164D01*
D12*
%TO.C,D45*%
X151960000Y-123950000D02*
G75*
G03*
X151960000Y-123950000I-50000J0D01*
G01*
D13*
%TO.C,U7*%
X136000000Y-131735000D02*
X133800000Y-131735000D01*
X136000000Y-131735000D02*
X139600000Y-131735000D01*
X136000000Y-126265000D02*
X133800000Y-126265000D01*
X136000000Y-126265000D02*
X138200000Y-126265000D01*
%TO.C,U3*%
X145710000Y-109020000D02*
X145060000Y-109020000D01*
X152280000Y-101800000D02*
X152280000Y-102450000D01*
X151630000Y-109020000D02*
X152280000Y-109020000D01*
X145710000Y-101800000D02*
X145060000Y-101800000D01*
X151630000Y-101800000D02*
X152280000Y-101800000D01*
X152280000Y-109020000D02*
X152280000Y-108370000D01*
X145060000Y-109020000D02*
X145060000Y-108370000D01*
D12*
%TO.C,D1*%
X146481000Y-118163000D02*
G75*
G03*
X146481000Y-118163000I-50000J0D01*
G01*
D13*
%TO.C,R15*%
X141196359Y-106780000D02*
X141503641Y-106780000D01*
X141196359Y-107540000D02*
X141503641Y-107540000D01*
%TO.C,R34*%
X155630000Y-132316359D02*
X155630000Y-132623641D01*
X156390000Y-132316359D02*
X156390000Y-132623641D01*
D12*
%TO.C,D24*%
X147804000Y-120770000D02*
G75*
G03*
X147804000Y-120770000I-50000J0D01*
G01*
D13*
%TO.C,C2*%
X143617836Y-101990000D02*
X143402164Y-101990000D01*
X143617836Y-102710000D02*
X143402164Y-102710000D01*
%TO.C,R45*%
X158445000Y-111196359D02*
X158445000Y-111503641D01*
X159205000Y-111196359D02*
X159205000Y-111503641D01*
%TO.C,R46*%
X159520000Y-111971359D02*
X159520000Y-112278641D01*
X160280000Y-111971359D02*
X160280000Y-112278641D01*
D12*
%TO.C,D4*%
X149529000Y-118163000D02*
G75*
G03*
X149529000Y-118163000I-50000J0D01*
G01*
%TO.C,D20*%
X147800000Y-124960000D02*
G75*
G03*
X147800000Y-124960000I-50000J0D01*
G01*
D13*
%TO.C,C14*%
X139542164Y-103990000D02*
X139757836Y-103990000D01*
X139542164Y-104710000D02*
X139757836Y-104710000D01*
%TO.C,R30*%
X142010000Y-125953641D02*
X142010000Y-125646359D01*
X141250000Y-125953641D02*
X141250000Y-125646359D01*
D12*
%TO.C,D12*%
X145327500Y-124980000D02*
G75*
G03*
X145327500Y-124980000I-50000J0D01*
G01*
D13*
%TO.C,JP2*%
X138830000Y-94555000D02*
X136170000Y-94555000D01*
X138830000Y-99755000D02*
X137500000Y-99755000D01*
X138830000Y-97155000D02*
X136170000Y-97155000D01*
X136170000Y-97155000D02*
X136170000Y-94555000D01*
X138830000Y-97155000D02*
X138830000Y-94555000D01*
X138830000Y-98425000D02*
X138830000Y-99755000D01*
D12*
%TO.C,J1*%
X145430000Y-82072500D02*
X154230000Y-82072500D01*
X145430000Y-89172500D02*
X145430000Y-82072500D01*
X145630000Y-83172500D02*
X154030000Y-83172500D01*
X154230000Y-89172500D02*
X154230000Y-82072500D01*
X154230000Y-89172500D02*
X145430000Y-89172500D01*
D14*
X149830000Y-88692500D02*
X149830000Y-82372500D01*
D13*
%TO.C,C3*%
X147690000Y-100097836D02*
X147690000Y-99882164D01*
X148410000Y-100097836D02*
X148410000Y-99882164D01*
%TO.C,R8*%
X143094724Y-90552500D02*
X142585276Y-90552500D01*
X143094724Y-89507500D02*
X142585276Y-89507500D01*
D12*
%TO.C,D38*%
X154556000Y-124968000D02*
G75*
G03*
X154556000Y-124968000I-50000J0D01*
G01*
D13*
%TO.C,C9*%
X148490000Y-110412164D02*
X148490000Y-110627836D01*
X149210000Y-110412164D02*
X149210000Y-110627836D01*
%TO.C,R24*%
X140690000Y-116036359D02*
X140690000Y-116343641D01*
X141450000Y-116036359D02*
X141450000Y-116343641D01*
%TO.C,R17*%
X135762000Y-121766359D02*
X135762000Y-122073641D01*
X135002000Y-121766359D02*
X135002000Y-122073641D01*
D12*
%TO.C,D29*%
X149200000Y-129650000D02*
G75*
G03*
X149200000Y-129650000I-50000J0D01*
G01*
D13*
%TO.C,R43*%
X158220000Y-107071359D02*
X158220000Y-107378641D01*
X158980000Y-107071359D02*
X158980000Y-107378641D01*
D12*
%TO.C,D30*%
X148160000Y-129650000D02*
G75*
G03*
X148160000Y-129650000I-50000J0D01*
G01*
D13*
%TO.C,R51*%
X158230000Y-119996359D02*
X158230000Y-120303641D01*
X157470000Y-119996359D02*
X157470000Y-120303641D01*
%TO.C,C5*%
X144110000Y-108820580D02*
X144110000Y-108539420D01*
X143090000Y-108820580D02*
X143090000Y-108539420D01*
D12*
%TO.C,D9*%
X138282500Y-124040000D02*
G75*
G03*
X138282500Y-124040000I-50000J0D01*
G01*
%TO.C,D27*%
X151340000Y-129630000D02*
G75*
G03*
X151340000Y-129630000I-50000J0D01*
G01*
D13*
%TO.C,R28*%
X140966359Y-129660000D02*
X141273641Y-129660000D01*
X140966359Y-128900000D02*
X141273641Y-128900000D01*
%TO.C,C28*%
X153110000Y-117327836D02*
X153110000Y-117112164D01*
X153830000Y-117327836D02*
X153830000Y-117112164D01*
%TO.C,R47*%
X160570000Y-111971359D02*
X160570000Y-112278641D01*
X161330000Y-111971359D02*
X161330000Y-112278641D01*
%TO.C,C22*%
X132565000Y-122442164D02*
X132565000Y-122657836D01*
X133285000Y-122442164D02*
X133285000Y-122657836D01*
%TO.C,R40*%
X162080000Y-132256359D02*
X162080000Y-132563641D01*
X162840000Y-132256359D02*
X162840000Y-132563641D01*
%TO.C,R32*%
X138046359Y-125440000D02*
X138353641Y-125440000D01*
X138046359Y-124680000D02*
X138353641Y-124680000D01*
%TO.C,R49*%
X164903641Y-113310000D02*
X164596359Y-113310000D01*
X164903641Y-114070000D02*
X164596359Y-114070000D01*
D12*
%TO.C,D31*%
X147120000Y-129650000D02*
G75*
G03*
X147120000Y-129650000I-50000J0D01*
G01*
%TO.C,D36*%
X154556000Y-122936000D02*
G75*
G03*
X154556000Y-122936000I-50000J0D01*
G01*
D13*
%TO.C,C11*%
X153860000Y-106137836D02*
X153860000Y-105922164D01*
X153140000Y-106137836D02*
X153140000Y-105922164D01*
D12*
%TO.C,D33*%
X158546000Y-100427000D02*
G75*
G03*
X158546000Y-100427000I-50000J0D01*
G01*
D13*
%TO.C,C17*%
X152147836Y-111980000D02*
X151932164Y-111980000D01*
X152147836Y-111260000D02*
X151932164Y-111260000D01*
%TO.C,R33*%
X154560000Y-132296359D02*
X154560000Y-132603641D01*
X155320000Y-132296359D02*
X155320000Y-132603641D01*
%TO.C,R42*%
X159640000Y-105136359D02*
X159640000Y-105443641D01*
X158880000Y-105136359D02*
X158880000Y-105443641D01*
%TO.C,R19*%
X137237200Y-121766359D02*
X137237200Y-122073641D01*
X137997200Y-121766359D02*
X137997200Y-122073641D01*
D12*
%TO.C,D13*%
X145300000Y-123950000D02*
G75*
G03*
X145300000Y-123950000I-50000J0D01*
G01*
D13*
%TO.C,C7*%
X149540000Y-110992164D02*
X149540000Y-111207836D01*
X150260000Y-110992164D02*
X150260000Y-111207836D01*
%TO.C,C6*%
X152500000Y-100357836D02*
X152500000Y-100142164D01*
X151780000Y-100357836D02*
X151780000Y-100142164D01*
D12*
%TO.C,D47*%
X151950000Y-126000000D02*
G75*
G03*
X151950000Y-126000000I-50000J0D01*
G01*
%TD*%
%LPC*%
D15*
%TO.C,U5*%
X138862500Y-110275000D03*
X138862500Y-109625000D03*
X138862500Y-108975000D03*
X138862500Y-108325000D03*
X138862500Y-107675000D03*
X138862500Y-107025000D03*
X138862500Y-106375000D03*
X138862500Y-105725000D03*
X133137500Y-105725000D03*
X133137500Y-106375000D03*
X133137500Y-107025000D03*
X133137500Y-107675000D03*
X133137500Y-108325000D03*
X133137500Y-108975000D03*
X133137500Y-109625000D03*
X133137500Y-110275000D03*
%TD*%
D16*
%TO.C,R20*%
X138684000Y-121410000D03*
X138684000Y-122430000D03*
%TD*%
%TO.C,R44*%
X158625000Y-108740000D03*
X158625000Y-109760000D03*
%TD*%
D17*
%TO.C,Y1*%
X149520000Y-114730000D03*
X151720000Y-114730000D03*
X151720000Y-113030000D03*
X149520000Y-113030000D03*
%TD*%
D18*
%TO.C,C13*%
X143810000Y-106390000D03*
X143810000Y-105430000D03*
%TD*%
D19*
%TO.C,D11*%
X145885000Y-126000000D03*
X146855000Y-126000000D03*
%TD*%
D20*
%TO.C,D7*%
X152540000Y-118768000D03*
X152540000Y-119738000D03*
%TD*%
D21*
%TO.C,D48*%
X151285000Y-127020000D03*
X150315000Y-127020000D03*
%TD*%
D19*
%TO.C,D21*%
X148345000Y-123930000D03*
X149315000Y-123930000D03*
%TD*%
D22*
%TO.C,D28*%
X150220000Y-129045000D03*
X150220000Y-128075000D03*
%TD*%
D20*
%TO.C,D3*%
X148463000Y-118768000D03*
X148463000Y-119738000D03*
%TD*%
D23*
%TO.C,U11*%
X160612500Y-115067500D03*
X160612500Y-115717500D03*
X160612500Y-116367500D03*
X160612500Y-117017500D03*
X160612500Y-117667500D03*
X160612500Y-118317500D03*
X160612500Y-118967500D03*
X160612500Y-119617500D03*
X166337500Y-119617500D03*
X166337500Y-118967500D03*
X166337500Y-118317500D03*
X166337500Y-117667500D03*
X166337500Y-117017500D03*
X166337500Y-116367500D03*
X166337500Y-115717500D03*
X166337500Y-115067500D03*
%TD*%
D24*
%TO.C,D49*%
X146140000Y-115480000D03*
X144740000Y-115480000D03*
X146140000Y-112180000D03*
X144740000Y-112180000D03*
%TD*%
D15*
%TO.C,U6*%
X138952500Y-120285000D03*
X138952500Y-119635000D03*
X138952500Y-118985000D03*
X138952500Y-118335000D03*
X138952500Y-117685000D03*
X138952500Y-117035000D03*
X138952500Y-116385000D03*
X138952500Y-115735000D03*
X133227500Y-115735000D03*
X133227500Y-116385000D03*
X133227500Y-117035000D03*
X133227500Y-117685000D03*
X133227500Y-118335000D03*
X133227500Y-118985000D03*
X133227500Y-119635000D03*
X133227500Y-120285000D03*
%TD*%
D25*
%TO.C,R25*%
X140630000Y-132440000D03*
X141650000Y-132440000D03*
%TD*%
D16*
%TO.C,R50*%
X156800000Y-117340000D03*
X156800000Y-118360000D03*
%TD*%
D21*
%TO.C,D37*%
X153901000Y-123952000D03*
X152931000Y-123952000D03*
%TD*%
D18*
%TO.C,C20*%
X166850000Y-124705000D03*
X166850000Y-123745000D03*
%TD*%
D21*
%TO.C,D17*%
X141615000Y-133530000D03*
X140645000Y-133530000D03*
%TD*%
D16*
%TO.C,R53*%
X159125000Y-121340000D03*
X159125000Y-122360000D03*
%TD*%
D26*
%TO.C,R9*%
X140150000Y-99400000D03*
X140150000Y-97575000D03*
%TD*%
D27*
%TO.C,C27*%
X145130000Y-119220000D03*
X144170000Y-119220000D03*
%TD*%
D28*
%TO.C,C12*%
X150025000Y-93000000D03*
X148475000Y-93000000D03*
%TD*%
D20*
%TO.C,D2*%
X147447000Y-118768000D03*
X147447000Y-119738000D03*
%TD*%
D29*
%TO.C,R29*%
X141590000Y-128290000D03*
X141590000Y-127270000D03*
%TD*%
D16*
%TO.C,R12*%
X139375000Y-111515000D03*
X139375000Y-112535000D03*
%TD*%
D19*
%TO.C,D18*%
X148335000Y-127020000D03*
X149305000Y-127020000D03*
%TD*%
%TO.C,D41*%
X164265000Y-112600000D03*
X165235000Y-112600000D03*
%TD*%
D26*
%TO.C,R58*%
X154050000Y-115012500D03*
X154050000Y-113187500D03*
%TD*%
D22*
%TO.C,D25*%
X153416000Y-128986000D03*
X153416000Y-128016000D03*
%TD*%
D20*
%TO.C,D8*%
X153570000Y-118785000D03*
X153570000Y-119755000D03*
%TD*%
D16*
%TO.C,R23*%
X142240000Y-118680000D03*
X142240000Y-119700000D03*
%TD*%
D26*
%TO.C,R3*%
X149750000Y-97082500D03*
X149750000Y-95257500D03*
%TD*%
D18*
%TO.C,C1*%
X149080000Y-100490000D03*
X149080000Y-99530000D03*
%TD*%
D16*
%TO.C,R35*%
X157080000Y-131950000D03*
X157080000Y-132970000D03*
%TD*%
D18*
%TO.C,C26*%
X167150000Y-113780000D03*
X167150000Y-112820000D03*
%TD*%
D30*
%TO.C,C10*%
X150830000Y-100495000D03*
X150830000Y-98945000D03*
%TD*%
D19*
%TO.C,D15*%
X145855000Y-121830000D03*
X146825000Y-121830000D03*
%TD*%
D20*
%TO.C,D6*%
X151511000Y-118768000D03*
X151511000Y-119738000D03*
%TD*%
D31*
%TO.C,R41*%
X160560000Y-99780000D03*
X159540000Y-99780000D03*
%TD*%
D16*
%TO.C,R39*%
X161360000Y-131910000D03*
X161360000Y-132930000D03*
%TD*%
D26*
%TO.C,R6*%
X153590000Y-109642500D03*
X153590000Y-107817500D03*
%TD*%
D29*
%TO.C,R31*%
X140460000Y-126280000D03*
X140460000Y-125260000D03*
%TD*%
D20*
%TO.C,D5*%
X150495000Y-118768000D03*
X150495000Y-119738000D03*
%TD*%
D21*
%TO.C,D46*%
X151315000Y-124960000D03*
X150345000Y-124960000D03*
%TD*%
%TO.C,D44*%
X151295000Y-122890000D03*
X150325000Y-122890000D03*
%TD*%
D19*
%TO.C,D10*%
X145885000Y-127020000D03*
X146855000Y-127020000D03*
%TD*%
%TO.C,D16*%
X145832500Y-120790000D03*
X146802500Y-120790000D03*
%TD*%
D16*
%TO.C,R55*%
X161325000Y-121365000D03*
X161325000Y-122385000D03*
%TD*%
D21*
%TO.C,D35*%
X153901000Y-121920000D03*
X152931000Y-121920000D03*
%TD*%
D32*
%TO.C,U1*%
X152510000Y-92250000D03*
X152510000Y-94550000D03*
D33*
X158810000Y-94550000D03*
D32*
X152510000Y-96850000D03*
%TD*%
D34*
%TO.C,R2*%
X158042500Y-89930000D03*
X156217500Y-89930000D03*
%TD*%
D35*
%TO.C,J3*%
X156200000Y-109380000D03*
D36*
X156200000Y-106840000D03*
X156200000Y-104300000D03*
%TD*%
D23*
%TO.C,U12*%
X160837500Y-105700000D03*
X160837500Y-106350000D03*
X160837500Y-107000000D03*
X160837500Y-107650000D03*
X160837500Y-108300000D03*
X160837500Y-108950000D03*
X160837500Y-109600000D03*
X160837500Y-110250000D03*
X166562500Y-110250000D03*
X166562500Y-109600000D03*
X166562500Y-108950000D03*
X166562500Y-108300000D03*
X166562500Y-107650000D03*
X166562500Y-107000000D03*
X166562500Y-106350000D03*
X166562500Y-105700000D03*
%TD*%
D21*
%TO.C,D39*%
X153901000Y-125984000D03*
X152931000Y-125984000D03*
%TD*%
D37*
%TO.C,C4*%
X157000000Y-99605000D03*
X157000000Y-101155000D03*
%TD*%
D16*
%TO.C,R48*%
X162000000Y-111615000D03*
X162000000Y-112635000D03*
%TD*%
D38*
%TO.C,C19*%
X133650000Y-112070000D03*
X133650000Y-113030000D03*
%TD*%
D21*
%TO.C,D34*%
X153901000Y-120904000D03*
X152931000Y-120904000D03*
%TD*%
D25*
%TO.C,R26*%
X140640000Y-131380000D03*
X141660000Y-131380000D03*
%TD*%
D16*
%TO.C,R52*%
X158125000Y-117365000D03*
X158125000Y-118385000D03*
%TD*%
%TO.C,R11*%
X138200000Y-111540000D03*
X138200000Y-112560000D03*
%TD*%
%TO.C,R1*%
X135975000Y-111515000D03*
X135975000Y-112535000D03*
%TD*%
%TO.C,R10*%
X137100000Y-111515000D03*
X137100000Y-112535000D03*
%TD*%
D19*
%TO.C,D22*%
X148355000Y-122890000D03*
X149325000Y-122890000D03*
%TD*%
D39*
%TO.C,R7*%
X153760000Y-99647500D03*
X153760000Y-101472500D03*
%TD*%
D25*
%TO.C,R13*%
X140830000Y-109370000D03*
X141850000Y-109370000D03*
%TD*%
D38*
%TO.C,C25*%
X154520000Y-128040000D03*
X154520000Y-129000000D03*
%TD*%
D19*
%TO.C,D14*%
X145845000Y-122890000D03*
X146815000Y-122890000D03*
%TD*%
D21*
%TO.C,D42*%
X151315000Y-120770000D03*
X150345000Y-120770000D03*
%TD*%
D25*
%TO.C,R16*%
X140870000Y-106080000D03*
X141890000Y-106080000D03*
%TD*%
D16*
%TO.C,R56*%
X162500000Y-121390000D03*
X162500000Y-122410000D03*
%TD*%
%TO.C,R38*%
X160250000Y-131910000D03*
X160250000Y-132930000D03*
%TD*%
D26*
%TO.C,R5*%
X147590000Y-112562500D03*
X147590000Y-110737500D03*
%TD*%
D16*
%TO.C,R18*%
X136499600Y-121410000D03*
X136499600Y-122430000D03*
%TD*%
D19*
%TO.C,D19*%
X148365000Y-126000000D03*
X149335000Y-126000000D03*
%TD*%
D25*
%TO.C,R21*%
X140950000Y-120840000D03*
X141970000Y-120840000D03*
%TD*%
D35*
%TO.C,JP1*%
X163390000Y-102370000D03*
D36*
X160850000Y-102370000D03*
%TD*%
D25*
%TO.C,R14*%
X140840000Y-108220000D03*
X141860000Y-108220000D03*
%TD*%
D22*
%TO.C,D26*%
X152350000Y-129005000D03*
X152350000Y-128035000D03*
%TD*%
D39*
%TO.C,R57*%
X134100000Y-101087500D03*
X134100000Y-102912500D03*
%TD*%
D22*
%TO.C,D32*%
X146030000Y-129065000D03*
X146030000Y-128095000D03*
%TD*%
D23*
%TO.C,U10*%
X160697500Y-125925000D03*
X160697500Y-126575000D03*
X160697500Y-127225000D03*
X160697500Y-127875000D03*
X160697500Y-128525000D03*
X160697500Y-129175000D03*
X160697500Y-129825000D03*
X160697500Y-130475000D03*
X166422500Y-130475000D03*
X166422500Y-129825000D03*
X166422500Y-129175000D03*
X166422500Y-128525000D03*
X166422500Y-127875000D03*
X166422500Y-127225000D03*
X166422500Y-126575000D03*
X166422500Y-125925000D03*
%TD*%
D38*
%TO.C,C8*%
X153420000Y-102760000D03*
X153420000Y-103720000D03*
%TD*%
D19*
%TO.C,D23*%
X148359000Y-121830000D03*
X149329000Y-121830000D03*
%TD*%
D38*
%TO.C,C21*%
X144980000Y-128100000D03*
X144980000Y-129060000D03*
%TD*%
D16*
%TO.C,R22*%
X141210000Y-118690000D03*
X141210000Y-119710000D03*
%TD*%
%TO.C,R37*%
X159180000Y-131960000D03*
X159180000Y-132980000D03*
%TD*%
D40*
%TO.C,C15*%
X141925000Y-91760000D03*
X143475000Y-91760000D03*
%TD*%
D16*
%TO.C,R36*%
X158130000Y-131930000D03*
X158130000Y-132950000D03*
%TD*%
D37*
%TO.C,C18*%
X155400000Y-99605000D03*
X155400000Y-101155000D03*
%TD*%
D38*
%TO.C,C24*%
X133100000Y-132570000D03*
X133100000Y-133530000D03*
%TD*%
D21*
%TO.C,D40*%
X153901000Y-127000000D03*
X152931000Y-127000000D03*
%TD*%
D41*
%TO.C,U2*%
X142005000Y-99415000D03*
X143275000Y-99415000D03*
X144545000Y-99415000D03*
X145815000Y-99415000D03*
X145815000Y-93865000D03*
X144545000Y-93865000D03*
X143275000Y-93865000D03*
X142005000Y-93865000D03*
%TD*%
D21*
%TO.C,D43*%
X151305000Y-121840000D03*
X150335000Y-121840000D03*
%TD*%
D39*
%TO.C,R4*%
X148170000Y-95267500D03*
X148170000Y-97092500D03*
%TD*%
D16*
%TO.C,R54*%
X160200000Y-121365000D03*
X160200000Y-122385000D03*
%TD*%
D18*
%TO.C,C23*%
X166950000Y-104560000D03*
X166950000Y-103600000D03*
%TD*%
D25*
%TO.C,R27*%
X140630000Y-130360000D03*
X141650000Y-130360000D03*
%TD*%
D18*
%TO.C,C16*%
X147300000Y-114820000D03*
X147300000Y-113860000D03*
%TD*%
D21*
%TO.C,D45*%
X151305000Y-123950000D03*
X150335000Y-123950000D03*
%TD*%
D15*
%TO.C,U7*%
X138862500Y-131275000D03*
X138862500Y-130625000D03*
X138862500Y-129975000D03*
X138862500Y-129325000D03*
X138862500Y-128675000D03*
X138862500Y-128025000D03*
X138862500Y-127375000D03*
X138862500Y-126725000D03*
X133137500Y-126725000D03*
X133137500Y-127375000D03*
X133137500Y-128025000D03*
X133137500Y-128675000D03*
X133137500Y-129325000D03*
X133137500Y-129975000D03*
X133137500Y-130625000D03*
X133137500Y-131275000D03*
%TD*%
D42*
%TO.C,U3*%
X145232500Y-102810000D03*
X145232500Y-103210000D03*
X145232500Y-103610000D03*
X145232500Y-104010000D03*
X145232500Y-104410000D03*
X145232500Y-104810000D03*
X145232500Y-105210000D03*
X145232500Y-105610000D03*
X145232500Y-106010000D03*
X145232500Y-106410000D03*
X145232500Y-106810000D03*
X145232500Y-107210000D03*
X145232500Y-107610000D03*
X145232500Y-108010000D03*
D43*
X146070000Y-108847500D03*
X146470000Y-108847500D03*
X146870000Y-108847500D03*
X147270000Y-108847500D03*
X147670000Y-108847500D03*
X148070000Y-108847500D03*
X148470000Y-108847500D03*
X148870000Y-108847500D03*
X149270000Y-108847500D03*
X149670000Y-108847500D03*
X150070000Y-108847500D03*
X150470000Y-108847500D03*
X150870000Y-108847500D03*
X151270000Y-108847500D03*
D42*
X152107500Y-108010000D03*
X152107500Y-107610000D03*
X152107500Y-107210000D03*
X152107500Y-106810000D03*
X152107500Y-106410000D03*
X152107500Y-106010000D03*
X152107500Y-105610000D03*
X152107500Y-105210000D03*
X152107500Y-104810000D03*
X152107500Y-104410000D03*
X152107500Y-104010000D03*
X152107500Y-103610000D03*
X152107500Y-103210000D03*
X152107500Y-102810000D03*
D43*
X151270000Y-101972500D03*
X150870000Y-101972500D03*
X150470000Y-101972500D03*
X150070000Y-101972500D03*
X149670000Y-101972500D03*
X149270000Y-101972500D03*
X148870000Y-101972500D03*
X148470000Y-101972500D03*
X148070000Y-101972500D03*
X147670000Y-101972500D03*
X147270000Y-101972500D03*
X146870000Y-101972500D03*
X146470000Y-101972500D03*
X146070000Y-101972500D03*
D44*
X148670000Y-105410000D03*
%TD*%
D20*
%TO.C,D1*%
X146431000Y-118768000D03*
X146431000Y-119738000D03*
%TD*%
D25*
%TO.C,R15*%
X140840000Y-107160000D03*
X141860000Y-107160000D03*
%TD*%
D16*
%TO.C,R34*%
X156010000Y-131960000D03*
X156010000Y-132980000D03*
%TD*%
D19*
%TO.C,D24*%
X148359000Y-120770000D03*
X149329000Y-120770000D03*
%TD*%
D27*
%TO.C,C2*%
X143990000Y-102350000D03*
X143030000Y-102350000D03*
%TD*%
D16*
%TO.C,R45*%
X158825000Y-110840000D03*
X158825000Y-111860000D03*
%TD*%
%TO.C,R46*%
X159900000Y-111615000D03*
X159900000Y-112635000D03*
%TD*%
D20*
%TO.C,D4*%
X149479000Y-118768000D03*
X149479000Y-119738000D03*
%TD*%
D19*
%TO.C,D20*%
X148355000Y-124960000D03*
X149325000Y-124960000D03*
%TD*%
D45*
%TO.C,C14*%
X139170000Y-104350000D03*
X140130000Y-104350000D03*
%TD*%
D29*
%TO.C,R30*%
X141630000Y-126310000D03*
X141630000Y-125290000D03*
%TD*%
D19*
%TO.C,D12*%
X145882500Y-124980000D03*
X146852500Y-124980000D03*
%TD*%
D35*
%TO.C,JP2*%
X137500000Y-98425000D03*
D36*
X137500000Y-95885000D03*
%TD*%
D46*
%TO.C,J1*%
X152730000Y-88322500D03*
X146930000Y-88322500D03*
D47*
X153205000Y-89772500D03*
X152405000Y-89772500D03*
X151080000Y-89772500D03*
X150080000Y-89772500D03*
X149580000Y-89772500D03*
X148580000Y-89772500D03*
X147255000Y-89772500D03*
X146455000Y-89772500D03*
D48*
X146730000Y-89772500D03*
X147530000Y-89772500D03*
D47*
X148080000Y-89772500D03*
X149080000Y-89772500D03*
X150580000Y-89772500D03*
X151580000Y-89772500D03*
D48*
X152130000Y-89772500D03*
X152930000Y-89772500D03*
D49*
X145510000Y-84672500D03*
X154150000Y-84672500D03*
D50*
X145510000Y-88852500D03*
X154150000Y-88852500D03*
%TD*%
D18*
%TO.C,C3*%
X148050000Y-100470000D03*
X148050000Y-99510000D03*
%TD*%
D34*
%TO.C,R8*%
X143752500Y-90030000D03*
X141927500Y-90030000D03*
%TD*%
D21*
%TO.C,D38*%
X153901000Y-124968000D03*
X152931000Y-124968000D03*
%TD*%
D38*
%TO.C,C9*%
X148850000Y-110040000D03*
X148850000Y-111000000D03*
%TD*%
D16*
%TO.C,R24*%
X141070000Y-115680000D03*
X141070000Y-116700000D03*
%TD*%
%TO.C,R17*%
X135382000Y-121410000D03*
X135382000Y-122430000D03*
%TD*%
D22*
%TO.C,D29*%
X149150000Y-129045000D03*
X149150000Y-128075000D03*
%TD*%
D16*
%TO.C,R43*%
X158600000Y-106715000D03*
X158600000Y-107735000D03*
%TD*%
D22*
%TO.C,D30*%
X148110000Y-129045000D03*
X148110000Y-128075000D03*
%TD*%
D16*
%TO.C,R51*%
X157850000Y-119640000D03*
X157850000Y-120660000D03*
%TD*%
D30*
%TO.C,C5*%
X143600000Y-109455000D03*
X143600000Y-107905000D03*
%TD*%
D21*
%TO.C,D9*%
X137627500Y-124040000D03*
X136657500Y-124040000D03*
%TD*%
D22*
%TO.C,D27*%
X151290000Y-129025000D03*
X151290000Y-128055000D03*
%TD*%
D25*
%TO.C,R28*%
X140610000Y-129280000D03*
X141630000Y-129280000D03*
%TD*%
D18*
%TO.C,C28*%
X153470000Y-117700000D03*
X153470000Y-116740000D03*
%TD*%
D16*
%TO.C,R47*%
X160950000Y-111615000D03*
X160950000Y-112635000D03*
%TD*%
D38*
%TO.C,C22*%
X132925000Y-122070000D03*
X132925000Y-123030000D03*
%TD*%
D16*
%TO.C,R40*%
X162460000Y-131900000D03*
X162460000Y-132920000D03*
%TD*%
D25*
%TO.C,R32*%
X137690000Y-125060000D03*
X138710000Y-125060000D03*
%TD*%
D31*
%TO.C,R49*%
X165260000Y-113690000D03*
X164240000Y-113690000D03*
%TD*%
D22*
%TO.C,D31*%
X147070000Y-129045000D03*
X147070000Y-128075000D03*
%TD*%
D21*
%TO.C,D36*%
X153901000Y-122936000D03*
X152931000Y-122936000D03*
%TD*%
D18*
%TO.C,C11*%
X153500000Y-106510000D03*
X153500000Y-105550000D03*
%TD*%
D22*
%TO.C,D33*%
X158496000Y-99822000D03*
X158496000Y-98852000D03*
%TD*%
D27*
%TO.C,C17*%
X152520000Y-111620000D03*
X151560000Y-111620000D03*
%TD*%
D16*
%TO.C,R33*%
X154940000Y-131940000D03*
X154940000Y-132960000D03*
%TD*%
%TO.C,R42*%
X159260000Y-104780000D03*
X159260000Y-105800000D03*
%TD*%
%TO.C,R19*%
X137617200Y-121410000D03*
X137617200Y-122430000D03*
%TD*%
D19*
%TO.C,D13*%
X145855000Y-123950000D03*
X146825000Y-123950000D03*
%TD*%
D38*
%TO.C,C7*%
X149900000Y-110620000D03*
X149900000Y-111580000D03*
%TD*%
D18*
%TO.C,C6*%
X152140000Y-100730000D03*
X152140000Y-99770000D03*
%TD*%
D21*
%TO.C,D47*%
X151295000Y-126000000D03*
X150325000Y-126000000D03*
%TD*%
M02*
