%TF.GenerationSoftware,KiCad,Pcbnew,(6.0.11)*%
%TF.CreationDate,2024-07-20T12:09:31-05:00*%
%TF.ProjectId,BizBopWhingWhang,42697a42-6f70-4576-9869-6e675768616e,rev?*%
%TF.SameCoordinates,Original*%
%TF.FileFunction,Copper,L2,Bot*%
%TF.FilePolarity,Positive*%
%FSLAX46Y46*%
G04 Gerber Fmt 4.6, Leading zero omitted, Abs format (unit mm)*
G04 Created by KiCad (PCBNEW (6.0.11)) date 2024-07-20 12:09:31*
%MOMM*%
%LPD*%
G01*
G04 APERTURE LIST*
G04 Aperture macros list*
%AMRoundRect*
0 Rectangle with rounded corners*
0 $1 Rounding radius*
0 $2 $3 $4 $5 $6 $7 $8 $9 X,Y pos of 4 corners*
0 Add a 4 corners polygon primitive as box body*
4,1,4,$2,$3,$4,$5,$6,$7,$8,$9,$2,$3,0*
0 Add four circle primitives for the rounded corners*
1,1,$1+$1,$2,$3*
1,1,$1+$1,$4,$5*
1,1,$1+$1,$6,$7*
1,1,$1+$1,$8,$9*
0 Add four rect primitives between the rounded corners*
20,1,$1+$1,$2,$3,$4,$5,0*
20,1,$1+$1,$4,$5,$6,$7,0*
20,1,$1+$1,$6,$7,$8,$9,0*
20,1,$1+$1,$8,$9,$2,$3,0*%
G04 Aperture macros list end*
%TA.AperFunction,ComponentPad*%
%ADD10R,1.700000X1.700000*%
%TD*%
%TA.AperFunction,ComponentPad*%
%ADD11O,1.700000X1.700000*%
%TD*%
%TA.AperFunction,ComponentPad*%
%ADD12RoundRect,0.500000X0.000000X0.300000X0.000000X0.300000X0.000000X-0.300000X0.000000X-0.300000X0*%
%TD*%
%TA.AperFunction,ComponentPad*%
%ADD13RoundRect,0.500000X0.000000X0.600000X0.000000X0.600000X0.000000X-0.600000X0.000000X-0.600000X0*%
%TD*%
%TA.AperFunction,ViaPad*%
%ADD14C,0.550000*%
%TD*%
%TA.AperFunction,Conductor*%
%ADD15C,0.130000*%
%TD*%
%TA.AperFunction,Conductor*%
%ADD16C,0.250000*%
%TD*%
G04 APERTURE END LIST*
D10*
%TO.P,J3,1,Pin_1*%
%TO.N,Net-(J3-Pad1)*%
X156200000Y-109380000D03*
D11*
%TO.P,J3,2,Pin_2*%
%TO.N,GND*%
X156200000Y-106840000D03*
%TO.P,J3,3,Pin_3*%
%TO.N,Net-(J3-Pad3)*%
X156200000Y-104300000D03*
%TD*%
D10*
%TO.P,JP1,1,A*%
%TO.N,GND*%
X163390000Y-102370000D03*
D11*
%TO.P,JP1,2,B*%
%TO.N,RUN*%
X160850000Y-102370000D03*
%TD*%
D10*
%TO.P,JP2,1,A*%
%TO.N,Net-(JP2-Pad1)*%
X137500000Y-98425000D03*
D11*
%TO.P,JP2,2,B*%
%TO.N,GND*%
X137500000Y-95885000D03*
%TD*%
D12*
%TO.P,J1,S1,SHIELD*%
%TO.N,GND*%
X145510000Y-84672500D03*
X154150000Y-84672500D03*
D13*
X145510000Y-88852500D03*
X154150000Y-88852500D03*
%TD*%
D14*
%TO.N,GND*%
X157860000Y-100400000D03*
X153700000Y-90400000D03*
X141400000Y-89300000D03*
X151710000Y-99140000D03*
X148700000Y-93800000D03*
X162240000Y-130680000D03*
X166850000Y-123080000D03*
X154570000Y-129850000D03*
X132900000Y-123775000D03*
X141050000Y-103975000D03*
X145950000Y-113480000D03*
X148600000Y-104350000D03*
X149160000Y-98040000D03*
X146100000Y-90600000D03*
X148670000Y-105410000D03*
X153010000Y-112290000D03*
X154130000Y-92690000D03*
X143370000Y-103050000D03*
X150580000Y-115600000D03*
X137370000Y-115760000D03*
X137800000Y-105500000D03*
X150690000Y-111230000D03*
X149750000Y-104450000D03*
X144100000Y-91100000D03*
X167210000Y-112000000D03*
X144750000Y-113470000D03*
X147550000Y-104300000D03*
X143400000Y-119100000D03*
X147670000Y-108050000D03*
X149600000Y-106400000D03*
X166975000Y-102850000D03*
X149850000Y-105350000D03*
X156130000Y-100440000D03*
X147650000Y-105350000D03*
X144350000Y-108575000D03*
X144910000Y-129700000D03*
X152510000Y-116510000D03*
X133250000Y-134250000D03*
X159000000Y-89000000D03*
X153440000Y-104680000D03*
X162200000Y-119800000D03*
X148140000Y-111620000D03*
X147600000Y-106550000D03*
X148670000Y-106570000D03*
X148180000Y-113610000D03*
X144375000Y-105450000D03*
X138630000Y-125920000D03*
X133550000Y-113700000D03*
X145810000Y-97540000D03*
X147811606Y-98045890D03*
X146550000Y-114140000D03*
X162100000Y-110350000D03*
%TO.N,+1V1*%
X148560000Y-98740000D03*
X150760000Y-99890000D03*
%TO.N,+5V*%
X151820000Y-88440000D03*
X150700000Y-87610000D03*
%TO.N,GPIO2*%
X168100000Y-126600000D03*
X168100000Y-129200000D03*
X131810000Y-116720000D03*
X136600000Y-103725000D03*
X137675000Y-102650000D03*
X131900000Y-127900000D03*
X131900000Y-107100000D03*
X131750000Y-120690000D03*
X131956138Y-130246138D03*
X168082500Y-118317500D03*
X168100000Y-116000000D03*
X131700000Y-110175000D03*
%TO.N,GPIO3*%
X142960000Y-104770000D03*
X141040000Y-104980000D03*
%TO.N,GPIO8*%
X168600000Y-127300000D03*
X168600000Y-117700000D03*
X168600000Y-128500000D03*
X131300000Y-129900000D03*
X168600000Y-116500000D03*
X131420000Y-119760000D03*
X136450000Y-102475000D03*
X131300000Y-128600000D03*
X131360000Y-117280000D03*
X131300000Y-107800000D03*
X135550000Y-103525000D03*
X131400000Y-109225000D03*
%TO.N,GPIO26*%
X151660930Y-110569743D03*
X151120000Y-107630000D03*
%TO.N,Net-(J1-PadA6)*%
X150420000Y-91360000D03*
X148684739Y-91018933D03*
%TO.N,Net-(U5-Pad9)*%
X134575000Y-105700000D03*
X134250000Y-110600000D03*
%TO.N,Net-(U6-Pad9)*%
X134375000Y-116150000D03*
X134475000Y-120600000D03*
%TO.N,Net-(U10-Pad14)*%
X134500000Y-131890000D03*
X134710000Y-126990000D03*
%TO.N,Net-(U10-Pad9)*%
X165850000Y-125060000D03*
X165050000Y-130120000D03*
%TO.N,Net-(U11-Pad9)*%
X166237500Y-114162500D03*
X165525000Y-120700000D03*
%TO.N,Net-(D18-Pad1)*%
X147600000Y-127020000D03*
X144410000Y-126090000D03*
%TO.N,Net-(D19-Pad1)*%
X144470000Y-125390000D03*
X147630000Y-126090000D03*
%TO.N,Net-(D20-Pad1)*%
X147596863Y-125058667D03*
X143990000Y-124790000D03*
%TO.N,Net-(D21-Pad1)*%
X143960000Y-124060000D03*
X147550000Y-123910000D03*
%TO.N,Net-(D22-Pad1)*%
X143660000Y-123390000D03*
X147550000Y-122880000D03*
%TO.N,Net-(D23-Pad1)*%
X147580000Y-121870000D03*
X143550000Y-122690000D03*
%TO.N,Net-(D24-Pad1)*%
X147550000Y-120820000D03*
X143480000Y-121970000D03*
%TO.N,Net-(D42-Pad1)*%
X156910000Y-121290000D03*
X152150000Y-120820000D03*
%TO.N,Net-(D43-Pad1)*%
X156390000Y-122110000D03*
X152130000Y-121850000D03*
%TO.N,Net-(D44-Pad1)*%
X152090000Y-122850000D03*
X156130000Y-123040000D03*
%TO.N,Net-(D45-Pad1)*%
X156010000Y-123960000D03*
X152090000Y-123910000D03*
%TO.N,Net-(D46-Pad1)*%
X155970000Y-124820000D03*
X152110000Y-124920000D03*
%TO.N,Net-(D47-Pad1)*%
X152080000Y-125970000D03*
X155110000Y-126010000D03*
%TO.N,Net-(D48-Pad1)*%
X155050000Y-126980000D03*
X152130000Y-126940000D03*
%TO.N,+3.3V*%
X167800000Y-111025000D03*
X132710000Y-114620000D03*
X132500000Y-102875000D03*
X165300000Y-124160000D03*
X133025000Y-104750000D03*
X132300000Y-131300000D03*
X166720000Y-131670000D03*
X134560000Y-121870000D03*
X167800000Y-105800000D03*
X133000000Y-111400000D03*
X167800000Y-120200000D03*
X167800000Y-115000000D03*
X149980000Y-103060000D03*
X132000000Y-127000000D03*
X167600000Y-125600000D03*
X156080000Y-93990000D03*
X165875000Y-111900000D03*
X154280000Y-94250000D03*
X134800000Y-111610000D03*
X133200000Y-121200000D03*
X150960000Y-103140000D03*
X135330000Y-132490000D03*
%TD*%
D15*
%TO.N,GND*%
X147811606Y-98045890D02*
X147770000Y-98087496D01*
X147770000Y-98087496D02*
X147770000Y-98320000D01*
%TO.N,+1V1*%
X148560000Y-98740000D02*
X150170000Y-98740000D01*
X150170000Y-98740000D02*
X150760000Y-99330000D01*
X150760000Y-99330000D02*
X150760000Y-99890000D01*
D16*
%TO.N,+5V*%
X150700000Y-87610000D02*
X150990000Y-87610000D01*
X150990000Y-87610000D02*
X151820000Y-88440000D01*
D15*
%TO.N,GPIO2*%
X131900000Y-109975000D02*
X131900000Y-107100000D01*
X168082500Y-118317500D02*
X168100000Y-118300000D01*
X168100000Y-129200000D02*
X168100000Y-126600000D01*
X131810000Y-116720000D02*
X132010000Y-116920000D01*
X132010000Y-116920000D02*
X132010000Y-120430000D01*
X132010000Y-120430000D02*
X131750000Y-120690000D01*
X131956138Y-130246138D02*
X131900000Y-130190000D01*
X137675000Y-102650000D02*
X136600000Y-103725000D01*
X131900000Y-130190000D02*
X131900000Y-127900000D01*
X168100000Y-118300000D02*
X168100000Y-116000000D01*
X131700000Y-110175000D02*
X131900000Y-109975000D01*
%TO.N,GPIO3*%
X141250000Y-104770000D02*
X142960000Y-104770000D01*
X141040000Y-104980000D02*
X141250000Y-104770000D01*
%TO.N,GPIO8*%
X131400000Y-109225000D02*
X131300000Y-109125000D01*
X131300000Y-109125000D02*
X131300000Y-107800000D01*
X131300000Y-128600000D02*
X131300000Y-129900000D01*
X136450000Y-102475000D02*
X136450000Y-102625000D01*
X131360000Y-119700000D02*
X131420000Y-119760000D01*
X168600000Y-128500000D02*
X168600000Y-127300000D01*
X136450000Y-102625000D02*
X135550000Y-103525000D01*
X168600000Y-117700000D02*
X168600000Y-116500000D01*
X131360000Y-117280000D02*
X131360000Y-119700000D01*
%TO.N,GPIO26*%
X151120000Y-110028813D02*
X151660930Y-110569743D01*
X151120000Y-107630000D02*
X151120000Y-110028813D01*
D16*
%TO.N,Net-(J1-PadA6)*%
X149025806Y-91360000D02*
X150420000Y-91360000D01*
X148684739Y-91018933D02*
X149025806Y-91360000D01*
D15*
%TO.N,Net-(U5-Pad9)*%
X134575000Y-105700000D02*
X134250000Y-106025000D01*
X134250000Y-106025000D02*
X134250000Y-110600000D01*
%TO.N,Net-(U6-Pad9)*%
X134450000Y-120450000D02*
X134475000Y-120475000D01*
X134475000Y-120475000D02*
X134475000Y-120600000D01*
X134375000Y-120375000D02*
X134450000Y-120450000D01*
X134375000Y-116150000D02*
X134375000Y-120375000D01*
%TO.N,Net-(U10-Pad14)*%
X134710000Y-131680000D02*
X134710000Y-126990000D01*
X134500000Y-131890000D02*
X134710000Y-131680000D01*
%TO.N,Net-(U10-Pad9)*%
X165020000Y-130090000D02*
X165020000Y-125890000D01*
X165050000Y-130120000D02*
X165020000Y-130090000D01*
X165020000Y-125890000D02*
X165850000Y-125060000D01*
%TO.N,Net-(U11-Pad9)*%
X165325000Y-120500000D02*
X165525000Y-120700000D01*
X165325000Y-115075000D02*
X165325000Y-120500000D01*
X166237500Y-114162500D02*
X165325000Y-115075000D01*
%TO.N,Net-(D18-Pad1)*%
X146670000Y-126090000D02*
X147600000Y-127020000D01*
X144410000Y-126090000D02*
X146670000Y-126090000D01*
%TO.N,Net-(D19-Pad1)*%
X144480000Y-125400000D02*
X144470000Y-125390000D01*
X146940000Y-125400000D02*
X144480000Y-125400000D01*
X146940000Y-125400000D02*
X147630000Y-126090000D01*
%TO.N,Net-(D20-Pad1)*%
X147328196Y-124790000D02*
X147596863Y-125058667D01*
X143990000Y-124790000D02*
X147328196Y-124790000D01*
%TO.N,Net-(D21-Pad1)*%
X143960000Y-124060000D02*
X145130000Y-124060000D01*
X145130000Y-124060000D02*
X145280000Y-123910000D01*
X145280000Y-123910000D02*
X147550000Y-123910000D01*
%TO.N,Net-(D22-Pad1)*%
X147490000Y-122820000D02*
X147550000Y-122880000D01*
X143660000Y-123390000D02*
X144610000Y-123390000D01*
X145180000Y-122820000D02*
X147490000Y-122820000D01*
X144610000Y-123390000D02*
X145180000Y-122820000D01*
%TO.N,Net-(D23-Pad1)*%
X143550000Y-122690000D02*
X144370000Y-122690000D01*
X144370000Y-122690000D02*
X145190000Y-121870000D01*
X145190000Y-121870000D02*
X147580000Y-121870000D01*
%TO.N,Net-(D24-Pad1)*%
X144630000Y-120820000D02*
X147550000Y-120820000D01*
X143480000Y-121970000D02*
X144630000Y-120820000D01*
%TO.N,Net-(D42-Pad1)*%
X155950000Y-120820000D02*
X156420000Y-121290000D01*
X156910000Y-121290000D02*
X156420000Y-121290000D01*
X155950000Y-120820000D02*
X152150000Y-120820000D01*
%TO.N,Net-(D43-Pad1)*%
X156390000Y-122110000D02*
X156130000Y-121850000D01*
X156130000Y-121850000D02*
X152130000Y-121850000D01*
%TO.N,Net-(D44-Pad1)*%
X152280000Y-123040000D02*
X152090000Y-122850000D01*
X156130000Y-123040000D02*
X152280000Y-123040000D01*
%TO.N,Net-(D45-Pad1)*%
X156010000Y-123960000D02*
X152140000Y-123960000D01*
X152140000Y-123960000D02*
X152090000Y-123910000D01*
%TO.N,Net-(D46-Pad1)*%
X155970000Y-124820000D02*
X152210000Y-124820000D01*
X152210000Y-124820000D02*
X152110000Y-124920000D01*
%TO.N,Net-(D47-Pad1)*%
X155110000Y-126010000D02*
X152120000Y-126010000D01*
X152120000Y-126010000D02*
X152080000Y-125970000D01*
%TO.N,Net-(D48-Pad1)*%
X152170000Y-126980000D02*
X152130000Y-126940000D01*
X155050000Y-126980000D02*
X152170000Y-126980000D01*
%TO.N,+3.3V*%
X133890000Y-121200000D02*
X134560000Y-121870000D01*
X133000000Y-104775000D02*
X133025000Y-104750000D01*
X167800000Y-119400000D02*
X167800000Y-120200000D01*
X132800000Y-130800000D02*
X132300000Y-131300000D01*
X167610000Y-125610000D02*
X167600000Y-125600000D01*
X133000000Y-111400000D02*
X133000000Y-104775000D01*
X166720000Y-131670000D02*
X167610000Y-130780000D01*
X134160000Y-132490000D02*
X133300000Y-131630000D01*
X167800000Y-113825000D02*
X167800000Y-114640000D01*
X132000000Y-127000000D02*
X132300000Y-127000000D01*
D16*
X155820000Y-94250000D02*
X156080000Y-93990000D01*
D15*
X165300000Y-124160000D02*
X166160000Y-124160000D01*
X133200000Y-121200000D02*
X133890000Y-121200000D01*
X132500000Y-104225000D02*
X133025000Y-104750000D01*
X132630000Y-131630000D02*
X132300000Y-131300000D01*
X132800000Y-127500000D02*
X132800000Y-130800000D01*
X133200000Y-121200000D02*
X133200000Y-115110000D01*
X135330000Y-132490000D02*
X134160000Y-132490000D01*
X150060000Y-103140000D02*
X149980000Y-103060000D01*
X166160000Y-124160000D02*
X167600000Y-125600000D01*
X167400000Y-115400000D02*
X167800000Y-115000000D01*
X167800000Y-114640000D02*
X167440000Y-115000000D01*
X167440000Y-115000000D02*
X167800000Y-115000000D01*
D16*
X154280000Y-94250000D02*
X155820000Y-94250000D01*
D15*
X167610000Y-130780000D02*
X167610000Y-125610000D01*
X132500000Y-102875000D02*
X132500000Y-104225000D01*
X167800000Y-119400000D02*
X167400000Y-119000000D01*
X134590000Y-111400000D02*
X133000000Y-111400000D01*
X132300000Y-127000000D02*
X132800000Y-127500000D01*
X167400000Y-119000000D02*
X167400000Y-115400000D01*
X150960000Y-103140000D02*
X150060000Y-103140000D01*
X165875000Y-111900000D02*
X167800000Y-113825000D01*
X133200000Y-115110000D02*
X132710000Y-114620000D01*
X134800000Y-111610000D02*
X134590000Y-111400000D01*
X133300000Y-131630000D02*
X132630000Y-131630000D01*
X167800000Y-105800000D02*
X167800000Y-111025000D01*
%TD*%
%TA.AperFunction,Conductor*%
%TO.N,GND*%
G36*
X144877988Y-83370502D02*
G01*
X144924481Y-83424158D01*
X144934585Y-83494432D01*
X144905091Y-83559012D01*
X144879962Y-83581203D01*
X144872219Y-83586387D01*
X144862734Y-83594178D01*
X144731678Y-83725234D01*
X144723885Y-83734721D01*
X144620778Y-83888741D01*
X144614978Y-83899557D01*
X144543752Y-84070667D01*
X144540162Y-84082409D01*
X144503233Y-84265555D01*
X144502077Y-84274767D01*
X144502000Y-84277819D01*
X144502000Y-84400385D01*
X144506475Y-84415624D01*
X144507865Y-84416829D01*
X144515548Y-84418500D01*
X146499885Y-84418500D01*
X146515124Y-84414025D01*
X146516329Y-84412635D01*
X146518000Y-84404952D01*
X146518000Y-84277819D01*
X146517923Y-84274767D01*
X146516767Y-84265555D01*
X146479838Y-84082409D01*
X146476248Y-84070667D01*
X146405022Y-83899557D01*
X146399222Y-83888741D01*
X146296115Y-83734721D01*
X146288322Y-83725234D01*
X146157266Y-83594178D01*
X146147781Y-83586387D01*
X146140038Y-83581203D01*
X146094559Y-83526685D01*
X146085773Y-83456235D01*
X146116471Y-83392218D01*
X146176906Y-83354960D01*
X146210133Y-83350500D01*
X153449867Y-83350500D01*
X153517988Y-83370502D01*
X153564481Y-83424158D01*
X153574585Y-83494432D01*
X153545091Y-83559012D01*
X153519962Y-83581203D01*
X153512219Y-83586387D01*
X153502734Y-83594178D01*
X153371678Y-83725234D01*
X153363885Y-83734721D01*
X153260778Y-83888741D01*
X153254978Y-83899557D01*
X153183752Y-84070667D01*
X153180162Y-84082409D01*
X153143233Y-84265555D01*
X153142077Y-84274767D01*
X153142000Y-84277819D01*
X153142000Y-84400385D01*
X153146475Y-84415624D01*
X153147865Y-84416829D01*
X153155548Y-84418500D01*
X155139885Y-84418500D01*
X155155124Y-84414025D01*
X155156329Y-84412635D01*
X155158000Y-84404952D01*
X155158000Y-84277819D01*
X155157923Y-84274767D01*
X155156767Y-84265555D01*
X155119838Y-84082409D01*
X155116248Y-84070667D01*
X155045022Y-83899557D01*
X155039222Y-83888741D01*
X154936115Y-83734721D01*
X154928322Y-83725234D01*
X154797266Y-83594178D01*
X154787781Y-83586387D01*
X154780038Y-83581203D01*
X154734559Y-83526685D01*
X154725773Y-83456235D01*
X154756471Y-83392218D01*
X154816906Y-83354960D01*
X154850133Y-83350500D01*
X169523500Y-83350500D01*
X169591621Y-83370502D01*
X169638114Y-83424158D01*
X169649500Y-83476500D01*
X169649500Y-137523500D01*
X169629498Y-137591621D01*
X169575842Y-137638114D01*
X169523500Y-137649500D01*
X130476500Y-137649500D01*
X130408379Y-137629498D01*
X130361886Y-137575842D01*
X130350500Y-137523500D01*
X130350500Y-129893402D01*
X130669941Y-129893402D01*
X130686554Y-130043883D01*
X130738582Y-130186057D01*
X130742819Y-130192363D01*
X130742821Y-130192366D01*
X130781412Y-130249794D01*
X130823022Y-130311716D01*
X130934998Y-130413607D01*
X130941675Y-130417232D01*
X130941676Y-130417233D01*
X131061370Y-130482222D01*
X131061372Y-130482223D01*
X131068047Y-130485847D01*
X131075396Y-130487775D01*
X131207136Y-130522336D01*
X131207138Y-130522336D01*
X131214486Y-130524264D01*
X131325395Y-130526006D01*
X131393192Y-130547075D01*
X131427993Y-130581710D01*
X131479160Y-130657854D01*
X131591136Y-130759745D01*
X131688667Y-130812700D01*
X131701430Y-130819630D01*
X131751751Y-130869713D01*
X131767007Y-130939051D01*
X131752353Y-130989899D01*
X131749062Y-130996037D01*
X131744696Y-131002249D01*
X131741938Y-131009324D01*
X131741936Y-131009327D01*
X131725815Y-131050677D01*
X131689702Y-131143302D01*
X131688711Y-131150831D01*
X131671246Y-131283490D01*
X131669941Y-131293402D01*
X131686554Y-131443883D01*
X131738582Y-131586057D01*
X131742819Y-131592363D01*
X131742821Y-131592366D01*
X131781412Y-131649794D01*
X131823022Y-131711716D01*
X131934998Y-131813607D01*
X131941675Y-131817232D01*
X131941676Y-131817233D01*
X132061370Y-131882222D01*
X132061372Y-131882223D01*
X132068047Y-131885847D01*
X132075396Y-131887775D01*
X132207136Y-131922336D01*
X132207138Y-131922336D01*
X132214486Y-131924264D01*
X132287581Y-131925412D01*
X132355378Y-131946481D01*
X132374696Y-131962301D01*
X132382731Y-131970336D01*
X132403395Y-131980865D01*
X132420245Y-131991190D01*
X132439015Y-132004828D01*
X132448445Y-132007892D01*
X132461070Y-132011994D01*
X132479334Y-132019559D01*
X132491169Y-132025589D01*
X132500003Y-132030090D01*
X132509798Y-132031641D01*
X132509800Y-132031642D01*
X132522915Y-132033720D01*
X132542134Y-132038334D01*
X132554755Y-132042434D01*
X132554760Y-132042435D01*
X132564191Y-132045499D01*
X132597296Y-132045499D01*
X132597300Y-132045500D01*
X133075705Y-132045500D01*
X133143826Y-132065502D01*
X133164800Y-132082405D01*
X133912731Y-132830336D01*
X133933395Y-132840865D01*
X133950250Y-132851194D01*
X133969016Y-132864828D01*
X133978446Y-132867892D01*
X133978448Y-132867893D01*
X133991074Y-132871996D01*
X134009336Y-132879560D01*
X134015580Y-132882741D01*
X134030003Y-132890090D01*
X134052060Y-132893583D01*
X134052912Y-132893718D01*
X134072135Y-132898333D01*
X134094192Y-132905500D01*
X134808435Y-132905500D01*
X134876556Y-132925502D01*
X134893235Y-132938307D01*
X134964998Y-133003607D01*
X134971675Y-133007232D01*
X134971676Y-133007233D01*
X135091370Y-133072222D01*
X135091372Y-133072223D01*
X135098047Y-133075847D01*
X135105396Y-133077775D01*
X135237136Y-133112336D01*
X135237138Y-133112336D01*
X135244486Y-133114264D01*
X135324562Y-133115522D01*
X135388266Y-133116523D01*
X135388269Y-133116523D01*
X135395863Y-133116642D01*
X135543437Y-133082843D01*
X135610731Y-133048998D01*
X135671906Y-133018231D01*
X135671909Y-133018229D01*
X135678689Y-133014819D01*
X135793810Y-132916495D01*
X135882156Y-132793550D01*
X135938624Y-132653080D01*
X135959956Y-132503196D01*
X135960094Y-132490000D01*
X135941906Y-132339701D01*
X135925635Y-132296642D01*
X135891076Y-132205182D01*
X135891075Y-132205179D01*
X135888392Y-132198080D01*
X135818574Y-132096495D01*
X135806939Y-132079566D01*
X135802640Y-132073311D01*
X135689603Y-131972599D01*
X135682897Y-131969048D01*
X135682895Y-131969047D01*
X135598538Y-131924383D01*
X135555805Y-131901757D01*
X135408972Y-131864874D01*
X135401374Y-131864834D01*
X135401372Y-131864834D01*
X135257579Y-131864082D01*
X135257587Y-131862586D01*
X135196004Y-131851983D01*
X135143656Y-131804022D01*
X135125500Y-131738863D01*
X135125500Y-130113402D01*
X164419941Y-130113402D01*
X164436554Y-130263883D01*
X164488582Y-130406057D01*
X164492819Y-130412363D01*
X164492821Y-130412366D01*
X164531412Y-130469794D01*
X164573022Y-130531716D01*
X164684998Y-130633607D01*
X164691675Y-130637232D01*
X164691676Y-130637233D01*
X164811370Y-130702222D01*
X164811372Y-130702223D01*
X164818047Y-130705847D01*
X164825396Y-130707775D01*
X164957136Y-130742336D01*
X164957138Y-130742336D01*
X164964486Y-130744264D01*
X165044562Y-130745522D01*
X165108266Y-130746523D01*
X165108269Y-130746523D01*
X165115863Y-130746642D01*
X165263437Y-130712843D01*
X165330731Y-130678998D01*
X165391906Y-130648231D01*
X165391909Y-130648229D01*
X165398689Y-130644819D01*
X165513810Y-130546495D01*
X165602156Y-130423550D01*
X165658624Y-130283080D01*
X165679956Y-130133196D01*
X165680094Y-130120000D01*
X165661906Y-129969701D01*
X165633075Y-129893402D01*
X165611076Y-129835182D01*
X165611075Y-129835179D01*
X165608392Y-129828080D01*
X165522640Y-129703311D01*
X165477681Y-129663254D01*
X165440125Y-129603004D01*
X165435500Y-129569178D01*
X165435500Y-126114296D01*
X165455502Y-126046175D01*
X165472405Y-126025200D01*
X165774860Y-125722746D01*
X165837172Y-125688721D01*
X165865933Y-125685858D01*
X165908265Y-125686523D01*
X165908268Y-125686523D01*
X165915863Y-125686642D01*
X166063437Y-125652843D01*
X166168505Y-125600000D01*
X166191906Y-125588231D01*
X166191909Y-125588229D01*
X166198689Y-125584819D01*
X166313810Y-125486495D01*
X166390008Y-125380456D01*
X166397724Y-125369718D01*
X166397725Y-125369717D01*
X166402156Y-125363550D01*
X166404988Y-125356506D01*
X166404992Y-125356498D01*
X166438195Y-125273902D01*
X166482161Y-125218157D01*
X166549286Y-125195032D01*
X166618257Y-125211869D01*
X166644197Y-125231803D01*
X166934203Y-125521809D01*
X166968229Y-125584121D01*
X166970346Y-125597075D01*
X166986554Y-125743883D01*
X167038582Y-125886057D01*
X167042819Y-125892363D01*
X167042821Y-125892366D01*
X167075389Y-125940831D01*
X167123022Y-126011716D01*
X167128637Y-126016825D01*
X167128642Y-126016831D01*
X167153300Y-126039268D01*
X167190222Y-126099908D01*
X167194500Y-126132461D01*
X167194500Y-130555704D01*
X167174498Y-130623825D01*
X167157595Y-130644799D01*
X166794914Y-131007480D01*
X166732602Y-131041506D01*
X166705160Y-131044383D01*
X166693690Y-131044323D01*
X166647579Y-131044082D01*
X166640200Y-131045854D01*
X166640196Y-131045854D01*
X166507746Y-131077652D01*
X166507742Y-131077653D01*
X166500367Y-131079424D01*
X166493622Y-131082905D01*
X166493623Y-131082905D01*
X166381372Y-131140842D01*
X166365835Y-131148861D01*
X166360113Y-131153853D01*
X166360111Y-131153854D01*
X166257474Y-131243390D01*
X166257471Y-131243393D01*
X166251749Y-131248385D01*
X166164696Y-131372249D01*
X166109702Y-131513302D01*
X166089941Y-131663402D01*
X166106554Y-131813883D01*
X166158582Y-131956057D01*
X166162819Y-131962363D01*
X166162821Y-131962366D01*
X166187439Y-131999001D01*
X166243022Y-132081716D01*
X166354998Y-132183607D01*
X166361675Y-132187232D01*
X166361676Y-132187233D01*
X166481370Y-132252222D01*
X166481372Y-132252223D01*
X166488047Y-132255847D01*
X166495396Y-132257775D01*
X166627136Y-132292336D01*
X166627138Y-132292336D01*
X166634486Y-132294264D01*
X166714562Y-132295522D01*
X166778266Y-132296523D01*
X166778269Y-132296523D01*
X166785863Y-132296642D01*
X166933437Y-132262843D01*
X167000731Y-132228998D01*
X167061906Y-132198231D01*
X167061909Y-132198229D01*
X167068689Y-132194819D01*
X167183810Y-132096495D01*
X167272156Y-131973550D01*
X167328624Y-131833080D01*
X167349956Y-131683196D01*
X167350005Y-131678488D01*
X167350056Y-131678321D01*
X167350312Y-131674959D01*
X167351064Y-131675016D01*
X167370714Y-131610580D01*
X167386903Y-131590702D01*
X167650271Y-131327335D01*
X167926925Y-131050681D01*
X167926938Y-131050667D01*
X167950336Y-131027269D01*
X167960865Y-131006605D01*
X167971190Y-130989755D01*
X167984828Y-130970985D01*
X167991994Y-130948929D01*
X167999559Y-130930666D01*
X168005589Y-130918832D01*
X168005590Y-130918828D01*
X168010090Y-130909997D01*
X168013719Y-130887083D01*
X168018333Y-130867862D01*
X168025499Y-130845808D01*
X168025499Y-130812706D01*
X168025500Y-130812700D01*
X168025500Y-129952431D01*
X168045502Y-129884310D01*
X168099158Y-129837817D01*
X168153482Y-129826447D01*
X168165863Y-129826642D01*
X168313437Y-129792843D01*
X168380731Y-129758998D01*
X168441906Y-129728231D01*
X168441909Y-129728229D01*
X168448689Y-129724819D01*
X168563810Y-129626495D01*
X168652156Y-129503550D01*
X168708624Y-129363080D01*
X168729956Y-129213196D01*
X168729999Y-129209072D01*
X168730312Y-129204959D01*
X168731257Y-129205031D01*
X168750706Y-129141252D01*
X168804842Y-129095319D01*
X168807783Y-129094138D01*
X168813437Y-129092843D01*
X168825662Y-129086694D01*
X168941906Y-129028231D01*
X168941909Y-129028229D01*
X168948689Y-129024819D01*
X169063810Y-128926495D01*
X169152156Y-128803550D01*
X169208624Y-128663080D01*
X169229956Y-128513196D01*
X169230094Y-128500000D01*
X169211906Y-128349701D01*
X169203137Y-128326495D01*
X169161076Y-128215182D01*
X169161075Y-128215179D01*
X169158392Y-128208080D01*
X169072640Y-128083311D01*
X169057681Y-128069983D01*
X169020125Y-128009733D01*
X169015500Y-127975907D01*
X169015500Y-127825843D01*
X169035502Y-127757722D01*
X169053268Y-127737366D01*
X169052892Y-127737020D01*
X169058032Y-127731430D01*
X169063810Y-127726495D01*
X169152156Y-127603550D01*
X169201497Y-127480809D01*
X169205792Y-127470125D01*
X169208624Y-127463080D01*
X169229956Y-127313196D01*
X169230094Y-127300000D01*
X169229314Y-127293550D01*
X169212818Y-127157241D01*
X169211906Y-127149701D01*
X169203076Y-127126334D01*
X169161076Y-127015182D01*
X169161075Y-127015179D01*
X169158392Y-127008080D01*
X169072640Y-126883311D01*
X169004497Y-126822598D01*
X168965270Y-126787648D01*
X168965269Y-126787648D01*
X168959603Y-126782599D01*
X168952897Y-126779048D01*
X168952895Y-126779047D01*
X168856634Y-126728080D01*
X168825805Y-126711757D01*
X168818442Y-126709907D01*
X168811347Y-126707184D01*
X168812468Y-126704264D01*
X168763572Y-126675534D01*
X168731523Y-126612183D01*
X168730092Y-126600201D01*
X168730094Y-126600000D01*
X168711906Y-126449701D01*
X168690688Y-126393550D01*
X168661076Y-126315182D01*
X168661075Y-126315179D01*
X168658392Y-126308080D01*
X168572640Y-126183311D01*
X168495179Y-126114296D01*
X168465270Y-126087648D01*
X168465269Y-126087648D01*
X168459603Y-126082599D01*
X168452897Y-126079048D01*
X168452895Y-126079047D01*
X168390810Y-126046175D01*
X168325805Y-126011757D01*
X168268657Y-125997402D01*
X168207461Y-125961407D01*
X168175441Y-125898041D01*
X168182446Y-125828201D01*
X168205791Y-125770129D01*
X168205792Y-125770124D01*
X168208624Y-125763080D01*
X168229956Y-125613196D01*
X168230094Y-125600000D01*
X168229429Y-125594500D01*
X168222093Y-125533883D01*
X168211906Y-125449701D01*
X168181683Y-125369718D01*
X168161076Y-125315182D01*
X168161075Y-125315179D01*
X168158392Y-125308080D01*
X168072640Y-125183311D01*
X167959603Y-125082599D01*
X167952897Y-125079048D01*
X167952895Y-125079047D01*
X167890232Y-125045869D01*
X167825805Y-125011757D01*
X167678972Y-124974874D01*
X167671374Y-124974834D01*
X167671372Y-124974834D01*
X167613670Y-124974532D01*
X167545655Y-124954174D01*
X167525235Y-124937629D01*
X166430680Y-123843075D01*
X166407269Y-123819664D01*
X166398430Y-123815160D01*
X166386606Y-123809135D01*
X166369752Y-123798807D01*
X166359009Y-123791002D01*
X166359010Y-123791002D01*
X166350985Y-123785172D01*
X166328929Y-123778006D01*
X166310666Y-123770441D01*
X166298832Y-123764411D01*
X166298828Y-123764410D01*
X166289997Y-123759910D01*
X166267083Y-123756281D01*
X166247862Y-123751667D01*
X166225808Y-123744501D01*
X166192704Y-123744501D01*
X166192700Y-123744500D01*
X165821964Y-123744500D01*
X165753843Y-123724498D01*
X165738145Y-123712577D01*
X165665270Y-123647648D01*
X165665269Y-123647648D01*
X165659603Y-123642599D01*
X165652897Y-123639048D01*
X165652895Y-123639047D01*
X165542816Y-123580764D01*
X165525805Y-123571757D01*
X165378972Y-123534874D01*
X165371374Y-123534834D01*
X165371372Y-123534834D01*
X165306775Y-123534496D01*
X165227579Y-123534082D01*
X165220200Y-123535854D01*
X165220196Y-123535854D01*
X165087746Y-123567652D01*
X165087742Y-123567653D01*
X165080367Y-123569424D01*
X165073622Y-123572905D01*
X165073623Y-123572905D01*
X164986098Y-123618080D01*
X164945835Y-123638861D01*
X164940113Y-123643853D01*
X164940111Y-123643854D01*
X164837474Y-123733390D01*
X164837471Y-123733393D01*
X164831749Y-123738385D01*
X164817711Y-123758359D01*
X164758172Y-123843075D01*
X164744696Y-123862249D01*
X164689702Y-124003302D01*
X164688711Y-124010831D01*
X164680516Y-124073080D01*
X164669941Y-124153402D01*
X164686554Y-124303883D01*
X164738582Y-124446057D01*
X164742819Y-124452363D01*
X164742821Y-124452366D01*
X164773187Y-124497555D01*
X164823022Y-124571716D01*
X164934998Y-124673607D01*
X164941675Y-124677232D01*
X164941676Y-124677233D01*
X165061370Y-124742222D01*
X165061372Y-124742223D01*
X165068047Y-124745847D01*
X165146561Y-124766444D01*
X165207375Y-124803077D01*
X165238731Y-124866774D01*
X165239509Y-124904766D01*
X165219941Y-125053402D01*
X165219967Y-125053634D01*
X165200171Y-125118538D01*
X165183985Y-125138410D01*
X164679664Y-125642731D01*
X164675160Y-125651569D01*
X164675160Y-125651570D01*
X164669135Y-125663394D01*
X164658807Y-125680248D01*
X164645172Y-125699015D01*
X164638006Y-125721070D01*
X164630441Y-125739334D01*
X164624411Y-125751168D01*
X164624410Y-125751172D01*
X164619910Y-125760003D01*
X164618359Y-125769796D01*
X164616281Y-125782917D01*
X164611667Y-125802138D01*
X164604501Y-125824192D01*
X164604501Y-125857294D01*
X164604500Y-125857300D01*
X164604500Y-129626165D01*
X164581587Y-129698615D01*
X164563171Y-129724819D01*
X164514172Y-129794538D01*
X164494696Y-129822249D01*
X164439702Y-129963302D01*
X164419941Y-130113402D01*
X135125500Y-130113402D01*
X135125500Y-127515843D01*
X135145502Y-127447722D01*
X135163268Y-127427366D01*
X135162892Y-127427020D01*
X135168032Y-127421430D01*
X135173810Y-127416495D01*
X135249365Y-127311351D01*
X135257724Y-127299718D01*
X135257725Y-127299717D01*
X135262156Y-127293550D01*
X135318624Y-127153080D01*
X135339956Y-127003196D01*
X135340094Y-126990000D01*
X135339595Y-126985871D01*
X135325536Y-126869701D01*
X135321906Y-126839701D01*
X135275361Y-126716523D01*
X135271076Y-126705182D01*
X135271075Y-126705179D01*
X135268392Y-126698080D01*
X135182640Y-126573311D01*
X135069603Y-126472599D01*
X135062897Y-126469048D01*
X135062895Y-126469047D01*
X134956860Y-126412905D01*
X134935805Y-126401757D01*
X134788972Y-126364874D01*
X134781374Y-126364834D01*
X134781372Y-126364834D01*
X134716775Y-126364496D01*
X134637579Y-126364082D01*
X134630200Y-126365854D01*
X134630196Y-126365854D01*
X134497746Y-126397652D01*
X134497742Y-126397653D01*
X134490367Y-126399424D01*
X134355835Y-126468861D01*
X134350113Y-126473853D01*
X134350111Y-126473854D01*
X134247474Y-126563390D01*
X134247471Y-126563393D01*
X134241749Y-126568385D01*
X134237382Y-126574599D01*
X134161307Y-126682843D01*
X134154696Y-126692249D01*
X134099702Y-126833302D01*
X134097867Y-126847241D01*
X134085417Y-126941810D01*
X134079941Y-126983402D01*
X134096554Y-127133883D01*
X134148582Y-127276057D01*
X134152819Y-127282363D01*
X134152821Y-127282366D01*
X134175761Y-127316504D01*
X134233022Y-127401716D01*
X134253302Y-127420169D01*
X134290223Y-127480809D01*
X134294500Y-127513361D01*
X134294500Y-131215369D01*
X134274498Y-131283490D01*
X134226290Y-131327335D01*
X134145835Y-131368861D01*
X134140113Y-131373853D01*
X134140111Y-131373854D01*
X134037474Y-131463390D01*
X134037471Y-131463393D01*
X134031749Y-131468385D01*
X134027383Y-131474598D01*
X134027377Y-131474604D01*
X133991740Y-131525310D01*
X133936206Y-131569542D01*
X133865574Y-131576727D01*
X133799559Y-131541954D01*
X133547269Y-131289664D01*
X133538430Y-131285160D01*
X133526606Y-131279135D01*
X133509752Y-131268807D01*
X133499009Y-131261002D01*
X133499010Y-131261002D01*
X133490985Y-131255172D01*
X133468929Y-131248006D01*
X133450666Y-131240441D01*
X133438832Y-131234411D01*
X133438828Y-131234410D01*
X133429997Y-131229910D01*
X133407083Y-131226281D01*
X133387862Y-131221667D01*
X133365808Y-131214501D01*
X133332704Y-131214501D01*
X133332700Y-131214500D01*
X133260741Y-131214500D01*
X133192620Y-131194498D01*
X133146127Y-131140842D01*
X133136023Y-131070568D01*
X133148472Y-131031301D01*
X133150866Y-131026604D01*
X133161195Y-131009748D01*
X133162843Y-131007480D01*
X133174828Y-130990984D01*
X133178721Y-130979004D01*
X133181996Y-130968926D01*
X133189560Y-130950664D01*
X133192741Y-130944420D01*
X133200090Y-130929997D01*
X133203718Y-130907088D01*
X133208334Y-130887860D01*
X133215500Y-130865808D01*
X133215500Y-127434192D01*
X133208333Y-127412135D01*
X133203718Y-127392912D01*
X133201641Y-127379799D01*
X133200090Y-127370003D01*
X133192741Y-127355580D01*
X133189560Y-127349336D01*
X133181996Y-127331074D01*
X133177893Y-127318448D01*
X133177892Y-127318446D01*
X133174828Y-127309016D01*
X133161194Y-127290250D01*
X133150865Y-127273395D01*
X133144839Y-127261569D01*
X133140336Y-127252731D01*
X132547269Y-126659664D01*
X132538430Y-126655160D01*
X132530410Y-126649333D01*
X132531477Y-126647864D01*
X132495053Y-126615922D01*
X132476942Y-126589570D01*
X132476941Y-126589569D01*
X132472640Y-126583311D01*
X132455888Y-126568385D01*
X132365270Y-126487648D01*
X132365269Y-126487648D01*
X132359603Y-126482599D01*
X132352897Y-126479048D01*
X132352895Y-126479047D01*
X132251761Y-126425500D01*
X132225805Y-126411757D01*
X132078972Y-126374874D01*
X132071374Y-126374834D01*
X132071372Y-126374834D01*
X132006775Y-126374496D01*
X131927579Y-126374082D01*
X131920200Y-126375854D01*
X131920196Y-126375854D01*
X131787746Y-126407652D01*
X131787742Y-126407653D01*
X131780367Y-126409424D01*
X131645835Y-126478861D01*
X131640113Y-126483853D01*
X131640111Y-126483854D01*
X131537474Y-126573390D01*
X131537471Y-126573393D01*
X131531749Y-126578385D01*
X131506143Y-126614819D01*
X131449663Y-126695182D01*
X131444696Y-126702249D01*
X131389702Y-126843302D01*
X131384435Y-126883311D01*
X131371163Y-126984121D01*
X131369941Y-126993402D01*
X131386554Y-127143883D01*
X131438582Y-127286057D01*
X131448620Y-127300995D01*
X131455579Y-127311351D01*
X131476970Y-127379048D01*
X131458365Y-127447564D01*
X131441837Y-127467103D01*
X131442554Y-127467749D01*
X131437475Y-127473390D01*
X131431749Y-127478385D01*
X131405423Y-127515843D01*
X131364172Y-127574538D01*
X131344696Y-127602249D01*
X131289702Y-127743302D01*
X131278836Y-127825843D01*
X131271659Y-127880356D01*
X131242937Y-127945283D01*
X131183672Y-127984375D01*
X131176155Y-127986428D01*
X131080367Y-128009424D01*
X130945835Y-128078861D01*
X130940113Y-128083853D01*
X130940111Y-128083854D01*
X130837474Y-128173390D01*
X130837471Y-128173393D01*
X130831749Y-128178385D01*
X130744696Y-128302249D01*
X130689702Y-128443302D01*
X130669941Y-128593402D01*
X130686554Y-128743883D01*
X130738582Y-128886057D01*
X130742819Y-128892363D01*
X130742821Y-128892366D01*
X130761609Y-128920325D01*
X130823022Y-129011716D01*
X130843302Y-129030169D01*
X130880223Y-129090809D01*
X130884500Y-129123361D01*
X130884500Y-129375078D01*
X130864498Y-129443199D01*
X130841329Y-129470027D01*
X130837475Y-129473389D01*
X130837471Y-129473393D01*
X130831749Y-129478385D01*
X130827382Y-129484599D01*
X130767939Y-129569178D01*
X130744696Y-129602249D01*
X130689702Y-129743302D01*
X130669941Y-129893402D01*
X130350500Y-129893402D01*
X130350500Y-117273402D01*
X130729941Y-117273402D01*
X130746554Y-117423883D01*
X130798582Y-117566057D01*
X130802819Y-117572363D01*
X130802821Y-117572366D01*
X130841412Y-117629794D01*
X130883022Y-117691716D01*
X130903302Y-117710169D01*
X130940223Y-117770809D01*
X130944500Y-117803361D01*
X130944500Y-119308851D01*
X130921587Y-119381301D01*
X130864696Y-119462249D01*
X130809702Y-119603302D01*
X130808711Y-119610831D01*
X130792706Y-119732401D01*
X130789941Y-119753402D01*
X130806554Y-119903883D01*
X130858582Y-120046057D01*
X130862819Y-120052363D01*
X130862821Y-120052366D01*
X130900991Y-120109168D01*
X130943022Y-120171716D01*
X131054998Y-120273607D01*
X131061676Y-120277233D01*
X131061679Y-120277235D01*
X131110844Y-120303930D01*
X131161165Y-120354013D01*
X131176421Y-120423351D01*
X131168115Y-120460427D01*
X131139702Y-120533302D01*
X131136188Y-120559997D01*
X131121037Y-120675078D01*
X131119941Y-120683402D01*
X131136554Y-120833883D01*
X131188582Y-120976057D01*
X131192819Y-120982363D01*
X131192821Y-120982366D01*
X131208153Y-121005182D01*
X131273022Y-121101716D01*
X131384998Y-121203607D01*
X131391675Y-121207232D01*
X131391676Y-121207233D01*
X131511370Y-121272222D01*
X131511372Y-121272223D01*
X131518047Y-121275847D01*
X131525396Y-121277775D01*
X131657136Y-121312336D01*
X131657138Y-121312336D01*
X131664486Y-121314264D01*
X131744562Y-121315522D01*
X131808266Y-121316523D01*
X131808269Y-121316523D01*
X131815863Y-121316642D01*
X131963437Y-121282843D01*
X132043494Y-121242579D01*
X132091906Y-121218231D01*
X132091909Y-121218229D01*
X132098689Y-121214819D01*
X132213810Y-121116495D01*
X132290538Y-121009718D01*
X132297724Y-120999718D01*
X132297725Y-120999717D01*
X132302156Y-120993550D01*
X132358624Y-120853080D01*
X132379956Y-120703196D01*
X132380094Y-120690000D01*
X132379600Y-120685915D01*
X132379599Y-120685903D01*
X132378533Y-120677096D01*
X132388280Y-120622104D01*
X132384829Y-120620982D01*
X132391996Y-120598926D01*
X132399560Y-120580664D01*
X132405587Y-120568834D01*
X132410090Y-120559997D01*
X132413718Y-120537088D01*
X132418334Y-120517860D01*
X132422436Y-120505236D01*
X132425500Y-120495808D01*
X132425500Y-116854192D01*
X132426148Y-116854192D01*
X132425970Y-116831468D01*
X132439375Y-116737279D01*
X132439375Y-116737278D01*
X132439956Y-116733196D01*
X132440094Y-116720000D01*
X132437187Y-116695973D01*
X132425627Y-116600453D01*
X132421906Y-116569701D01*
X132398997Y-116509073D01*
X132371076Y-116435182D01*
X132371075Y-116435179D01*
X132368392Y-116428080D01*
X132282640Y-116303311D01*
X132169603Y-116202599D01*
X132162897Y-116199048D01*
X132162895Y-116199047D01*
X132070260Y-116150000D01*
X132035805Y-116131757D01*
X131888972Y-116094874D01*
X131881374Y-116094834D01*
X131881372Y-116094834D01*
X131816775Y-116094496D01*
X131737579Y-116094082D01*
X131730200Y-116095854D01*
X131730196Y-116095854D01*
X131597746Y-116127652D01*
X131597742Y-116127653D01*
X131590367Y-116129424D01*
X131455835Y-116198861D01*
X131450113Y-116203853D01*
X131450111Y-116203854D01*
X131347474Y-116293390D01*
X131347471Y-116293393D01*
X131341749Y-116298385D01*
X131254696Y-116422249D01*
X131199702Y-116563302D01*
X131196534Y-116587366D01*
X131194811Y-116600453D01*
X131166089Y-116665380D01*
X131127680Y-116695972D01*
X131005835Y-116758861D01*
X131000113Y-116763853D01*
X131000111Y-116763854D01*
X130897474Y-116853390D01*
X130897471Y-116853393D01*
X130891749Y-116858385D01*
X130887382Y-116864599D01*
X130843881Y-116926495D01*
X130804696Y-116982249D01*
X130749702Y-117123302D01*
X130729941Y-117273402D01*
X130350500Y-117273402D01*
X130350500Y-114613402D01*
X132079941Y-114613402D01*
X132096554Y-114763883D01*
X132148582Y-114906057D01*
X132152819Y-114912363D01*
X132152821Y-114912366D01*
X132183068Y-114957377D01*
X132233022Y-115031716D01*
X132344998Y-115133607D01*
X132351675Y-115137232D01*
X132351676Y-115137233D01*
X132471370Y-115202222D01*
X132471372Y-115202223D01*
X132478047Y-115205847D01*
X132485396Y-115207775D01*
X132617136Y-115242336D01*
X132617138Y-115242336D01*
X132624486Y-115244264D01*
X132660480Y-115244829D01*
X132728276Y-115265897D01*
X132773921Y-115320276D01*
X132784500Y-115370813D01*
X132784500Y-120675078D01*
X132764498Y-120743199D01*
X132741329Y-120770027D01*
X132737475Y-120773389D01*
X132737471Y-120773393D01*
X132731749Y-120778385D01*
X132715728Y-120801181D01*
X132679253Y-120853080D01*
X132644696Y-120902249D01*
X132589702Y-121043302D01*
X132588711Y-121050831D01*
X132580610Y-121112366D01*
X132569941Y-121193402D01*
X132586554Y-121343883D01*
X132638582Y-121486057D01*
X132642819Y-121492363D01*
X132642821Y-121492366D01*
X132660811Y-121519137D01*
X132723022Y-121611716D01*
X132834998Y-121713607D01*
X132841675Y-121717232D01*
X132841676Y-121717233D01*
X132961370Y-121782222D01*
X132961372Y-121782223D01*
X132968047Y-121785847D01*
X132975396Y-121787775D01*
X133107136Y-121822336D01*
X133107138Y-121822336D01*
X133114486Y-121824264D01*
X133194562Y-121825522D01*
X133258266Y-121826523D01*
X133258269Y-121826523D01*
X133265863Y-121826642D01*
X133413437Y-121792843D01*
X133480731Y-121758998D01*
X133541906Y-121728231D01*
X133541909Y-121728229D01*
X133548689Y-121724819D01*
X133610344Y-121672160D01*
X133675133Y-121643129D01*
X133745334Y-121653734D01*
X133781270Y-121678875D01*
X133850568Y-121748173D01*
X133894204Y-121791810D01*
X133928229Y-121854122D01*
X133930347Y-121867078D01*
X133946554Y-122013883D01*
X133998582Y-122156057D01*
X134002819Y-122162363D01*
X134002821Y-122162366D01*
X134041412Y-122219794D01*
X134083022Y-122281716D01*
X134194998Y-122383607D01*
X134201675Y-122387232D01*
X134201676Y-122387233D01*
X134321370Y-122452222D01*
X134321372Y-122452223D01*
X134328047Y-122455847D01*
X134335396Y-122457775D01*
X134467136Y-122492336D01*
X134467138Y-122492336D01*
X134474486Y-122494264D01*
X134554562Y-122495522D01*
X134618266Y-122496523D01*
X134618269Y-122496523D01*
X134625863Y-122496642D01*
X134773437Y-122462843D01*
X134841950Y-122428385D01*
X134901906Y-122398231D01*
X134901909Y-122398229D01*
X134908689Y-122394819D01*
X135023810Y-122296495D01*
X135088225Y-122206853D01*
X135107724Y-122179718D01*
X135107725Y-122179717D01*
X135112156Y-122173550D01*
X135168624Y-122033080D01*
X135178541Y-121963402D01*
X142849941Y-121963402D01*
X142866554Y-122113883D01*
X142918582Y-122256057D01*
X142922821Y-122262366D01*
X142922822Y-122262367D01*
X142963612Y-122323069D01*
X142985005Y-122390766D01*
X142976424Y-122439114D01*
X142968503Y-122459430D01*
X142939702Y-122533302D01*
X142938711Y-122540831D01*
X142927696Y-122624500D01*
X142919941Y-122683402D01*
X142936554Y-122833883D01*
X142988582Y-122976057D01*
X142992819Y-122982363D01*
X142992821Y-122982366D01*
X143053991Y-123073395D01*
X143075384Y-123141092D01*
X143066803Y-123189440D01*
X143049702Y-123233302D01*
X143046779Y-123255502D01*
X143034232Y-123350812D01*
X143029941Y-123383402D01*
X143046554Y-123533883D01*
X143098582Y-123676057D01*
X143102819Y-123682363D01*
X143102821Y-123682366D01*
X143131133Y-123724498D01*
X143183022Y-123801716D01*
X143188640Y-123806828D01*
X143294998Y-123903607D01*
X143292742Y-123906086D01*
X143327338Y-123950210D01*
X143335218Y-124013315D01*
X143330932Y-124045869D01*
X143330932Y-124045875D01*
X143329941Y-124053402D01*
X143346554Y-124203883D01*
X143398582Y-124346057D01*
X143402821Y-124352366D01*
X143402822Y-124352367D01*
X143420766Y-124379071D01*
X143442159Y-124446768D01*
X143433578Y-124495116D01*
X143423166Y-124521822D01*
X143379702Y-124633302D01*
X143378711Y-124640831D01*
X143361199Y-124773849D01*
X143359941Y-124783402D01*
X143376554Y-124933883D01*
X143428582Y-125076057D01*
X143432819Y-125082363D01*
X143432821Y-125082366D01*
X143443043Y-125097577D01*
X143513022Y-125201716D01*
X143624998Y-125303607D01*
X143631675Y-125307232D01*
X143631676Y-125307233D01*
X143746759Y-125369718D01*
X143758047Y-125375847D01*
X143765394Y-125377774D01*
X143772167Y-125380456D01*
X143828141Y-125424130D01*
X143851023Y-125483782D01*
X143856554Y-125533883D01*
X143859164Y-125541015D01*
X143895455Y-125640186D01*
X143900081Y-125711032D01*
X143880216Y-125755938D01*
X143861255Y-125782917D01*
X143854696Y-125792249D01*
X143799702Y-125933302D01*
X143798711Y-125940831D01*
X143782745Y-126062105D01*
X143779941Y-126083402D01*
X143796554Y-126233883D01*
X143848582Y-126376057D01*
X143852819Y-126382363D01*
X143852821Y-126382366D01*
X143885049Y-126430325D01*
X143933022Y-126501716D01*
X144044998Y-126603607D01*
X144051675Y-126607232D01*
X144051676Y-126607233D01*
X144171370Y-126672222D01*
X144171372Y-126672223D01*
X144178047Y-126675847D01*
X144185396Y-126677775D01*
X144317136Y-126712336D01*
X144317138Y-126712336D01*
X144324486Y-126714264D01*
X144404562Y-126715522D01*
X144468266Y-126716523D01*
X144468269Y-126716523D01*
X144475863Y-126716642D01*
X144623437Y-126682843D01*
X144708021Y-126640302D01*
X144751906Y-126618231D01*
X144751909Y-126618229D01*
X144758689Y-126614819D01*
X144851337Y-126535689D01*
X144916126Y-126506658D01*
X144933168Y-126505500D01*
X146445704Y-126505500D01*
X146513825Y-126525502D01*
X146534800Y-126542405D01*
X146934204Y-126941810D01*
X146968229Y-127004122D01*
X146970347Y-127017078D01*
X146986554Y-127163883D01*
X147038582Y-127306057D01*
X147042819Y-127312363D01*
X147042821Y-127312366D01*
X147069264Y-127351716D01*
X147123022Y-127431716D01*
X147234998Y-127533607D01*
X147241675Y-127537232D01*
X147241676Y-127537233D01*
X147361370Y-127602222D01*
X147361372Y-127602223D01*
X147368047Y-127605847D01*
X147375396Y-127607775D01*
X147507136Y-127642336D01*
X147507138Y-127642336D01*
X147514486Y-127644264D01*
X147594562Y-127645522D01*
X147658266Y-127646523D01*
X147658269Y-127646523D01*
X147665863Y-127646642D01*
X147813437Y-127612843D01*
X147903046Y-127567775D01*
X147941906Y-127548231D01*
X147941909Y-127548229D01*
X147948689Y-127544819D01*
X148063810Y-127446495D01*
X148139974Y-127340503D01*
X148147724Y-127329718D01*
X148147725Y-127329717D01*
X148152156Y-127323550D01*
X148208624Y-127183080D01*
X148229956Y-127033196D01*
X148230094Y-127020000D01*
X148228555Y-127007277D01*
X148220528Y-126940952D01*
X148211906Y-126869701D01*
X148158392Y-126728080D01*
X148154095Y-126721829D01*
X148154091Y-126721820D01*
X148102650Y-126646974D01*
X148080550Y-126579505D01*
X148098435Y-126510798D01*
X148104168Y-126502080D01*
X148177724Y-126399718D01*
X148177725Y-126399717D01*
X148182156Y-126393550D01*
X148238624Y-126253080D01*
X148259956Y-126103196D01*
X148260094Y-126090000D01*
X148259199Y-126082599D01*
X148249918Y-126005907D01*
X148244774Y-125963402D01*
X151449941Y-125963402D01*
X151466554Y-126113883D01*
X151518582Y-126256057D01*
X151522819Y-126262363D01*
X151522821Y-126262366D01*
X151549337Y-126301825D01*
X151603022Y-126381716D01*
X151608639Y-126386827D01*
X151615266Y-126392857D01*
X151652189Y-126453497D01*
X151650466Y-126524473D01*
X151633554Y-126558501D01*
X151593974Y-126614819D01*
X151574696Y-126642249D01*
X151519702Y-126783302D01*
X151518711Y-126790831D01*
X151506536Y-126883311D01*
X151499941Y-126933402D01*
X151516554Y-127083883D01*
X151568582Y-127226057D01*
X151572819Y-127232363D01*
X151572821Y-127232366D01*
X151600392Y-127273395D01*
X151653022Y-127351716D01*
X151764998Y-127453607D01*
X151771675Y-127457232D01*
X151771676Y-127457233D01*
X151891370Y-127522222D01*
X151891372Y-127522223D01*
X151898047Y-127525847D01*
X151905396Y-127527775D01*
X152037136Y-127562336D01*
X152037138Y-127562336D01*
X152044486Y-127564264D01*
X152124562Y-127565522D01*
X152188266Y-127566523D01*
X152188269Y-127566523D01*
X152195863Y-127566642D01*
X152343437Y-127532843D01*
X152431618Y-127488493D01*
X152471906Y-127468231D01*
X152471909Y-127468229D01*
X152478689Y-127464819D01*
X152517447Y-127431716D01*
X152524504Y-127425689D01*
X152589294Y-127396658D01*
X152606335Y-127395500D01*
X154528435Y-127395500D01*
X154596556Y-127415502D01*
X154613235Y-127428307D01*
X154684998Y-127493607D01*
X154691675Y-127497232D01*
X154691676Y-127497233D01*
X154811370Y-127562222D01*
X154811372Y-127562223D01*
X154818047Y-127565847D01*
X154825396Y-127567775D01*
X154957136Y-127602336D01*
X154957138Y-127602336D01*
X154964486Y-127604264D01*
X155044562Y-127605522D01*
X155108266Y-127606523D01*
X155108269Y-127606523D01*
X155115863Y-127606642D01*
X155263437Y-127572843D01*
X155353046Y-127527775D01*
X155391906Y-127508231D01*
X155391909Y-127508229D01*
X155398689Y-127504819D01*
X155513810Y-127406495D01*
X155591111Y-127298921D01*
X155597724Y-127289718D01*
X155597725Y-127289717D01*
X155602156Y-127283550D01*
X155658624Y-127143080D01*
X155679956Y-126993196D01*
X155680094Y-126980000D01*
X155679595Y-126975871D01*
X155664463Y-126850831D01*
X155661906Y-126829701D01*
X155644108Y-126782599D01*
X155611076Y-126695182D01*
X155611075Y-126695179D01*
X155608392Y-126688080D01*
X155550906Y-126604438D01*
X155528806Y-126536968D01*
X155546691Y-126468261D01*
X155563884Y-126447928D01*
X155562894Y-126447017D01*
X155568031Y-126441431D01*
X155573810Y-126436495D01*
X155590762Y-126412905D01*
X155657724Y-126319718D01*
X155657725Y-126319717D01*
X155662156Y-126313550D01*
X155718624Y-126173080D01*
X155739956Y-126023196D01*
X155740028Y-126016354D01*
X155740051Y-126014121D01*
X155740051Y-126014120D01*
X155740094Y-126010000D01*
X155738570Y-125997402D01*
X155727212Y-125903550D01*
X155721906Y-125859701D01*
X155701305Y-125805182D01*
X155671076Y-125725182D01*
X155671075Y-125725179D01*
X155668392Y-125718080D01*
X155582640Y-125593311D01*
X155584520Y-125592019D01*
X155559244Y-125537919D01*
X155568737Y-125467560D01*
X155614762Y-125413503D01*
X155682706Y-125392910D01*
X155730182Y-125401752D01*
X155731374Y-125402224D01*
X155738047Y-125405847D01*
X155771176Y-125414538D01*
X155877136Y-125442336D01*
X155877138Y-125442336D01*
X155884486Y-125444264D01*
X155964562Y-125445522D01*
X156028266Y-125446523D01*
X156028269Y-125446523D01*
X156035863Y-125446642D01*
X156183437Y-125412843D01*
X156264202Y-125372223D01*
X156311906Y-125348231D01*
X156311909Y-125348229D01*
X156318689Y-125344819D01*
X156433810Y-125246495D01*
X156522156Y-125123550D01*
X156578624Y-124983080D01*
X156599956Y-124833196D01*
X156600094Y-124820000D01*
X156581906Y-124669701D01*
X156528392Y-124528080D01*
X156507167Y-124497198D01*
X156502129Y-124489867D01*
X156480029Y-124422398D01*
X156497915Y-124353691D01*
X156503647Y-124344973D01*
X156557724Y-124269718D01*
X156557725Y-124269717D01*
X156562156Y-124263550D01*
X156618624Y-124123080D01*
X156639956Y-123973196D01*
X156640094Y-123960000D01*
X156638910Y-123950210D01*
X156628265Y-123862249D01*
X156621906Y-123809701D01*
X156612637Y-123785172D01*
X156571076Y-123675182D01*
X156571075Y-123675179D01*
X156568392Y-123668080D01*
X156564090Y-123661820D01*
X156554753Y-123648234D01*
X156532653Y-123580764D01*
X156550539Y-123512058D01*
X156576760Y-123481058D01*
X156588031Y-123471431D01*
X156588032Y-123471430D01*
X156593810Y-123466495D01*
X156658931Y-123375871D01*
X156677724Y-123349718D01*
X156677725Y-123349717D01*
X156682156Y-123343550D01*
X156738624Y-123203080D01*
X156759956Y-123053196D01*
X156760094Y-123040000D01*
X156741906Y-122889701D01*
X156724411Y-122843402D01*
X156699436Y-122777305D01*
X156694068Y-122706512D01*
X156727826Y-122644055D01*
X156738842Y-122634998D01*
X156738689Y-122634819D01*
X156827073Y-122559331D01*
X156853810Y-122536495D01*
X156942156Y-122413550D01*
X156998624Y-122273080D01*
X157019956Y-122123196D01*
X157020094Y-122110000D01*
X157009763Y-122024628D01*
X157021436Y-121954598D01*
X157069118Y-121901996D01*
X157106720Y-121886672D01*
X157123437Y-121882843D01*
X157186846Y-121850952D01*
X157251906Y-121818231D01*
X157251909Y-121818229D01*
X157258689Y-121814819D01*
X157373810Y-121716495D01*
X157462156Y-121593550D01*
X157518624Y-121453080D01*
X157539956Y-121303196D01*
X157540094Y-121290000D01*
X157539592Y-121285847D01*
X157530996Y-121214819D01*
X157521906Y-121139701D01*
X157513137Y-121116495D01*
X157471076Y-121005182D01*
X157471075Y-121005179D01*
X157468392Y-120998080D01*
X157382640Y-120873311D01*
X157294227Y-120794538D01*
X157275270Y-120777648D01*
X157275269Y-120777648D01*
X157269603Y-120772599D01*
X157262897Y-120769048D01*
X157262895Y-120769047D01*
X157193682Y-120732401D01*
X157135805Y-120701757D01*
X157102543Y-120693402D01*
X164894941Y-120693402D01*
X164911554Y-120843883D01*
X164963582Y-120986057D01*
X164967819Y-120992363D01*
X164967821Y-120992366D01*
X164986609Y-121020325D01*
X165048022Y-121111716D01*
X165159998Y-121213607D01*
X165166675Y-121217232D01*
X165166676Y-121217233D01*
X165286370Y-121282222D01*
X165286372Y-121282223D01*
X165293047Y-121285847D01*
X165300396Y-121287775D01*
X165432136Y-121322336D01*
X165432138Y-121322336D01*
X165439486Y-121324264D01*
X165519562Y-121325522D01*
X165583266Y-121326523D01*
X165583269Y-121326523D01*
X165590863Y-121326642D01*
X165738437Y-121292843D01*
X165833814Y-121244874D01*
X165866906Y-121228231D01*
X165866909Y-121228229D01*
X165873689Y-121224819D01*
X165988810Y-121126495D01*
X166077156Y-121003550D01*
X166133624Y-120863080D01*
X166154956Y-120713196D01*
X166155028Y-120706354D01*
X166155051Y-120704121D01*
X166155051Y-120704120D01*
X166155094Y-120700000D01*
X166153385Y-120685872D01*
X166145452Y-120620325D01*
X166136906Y-120549701D01*
X166108740Y-120475162D01*
X166086076Y-120415182D01*
X166086075Y-120415179D01*
X166083392Y-120408080D01*
X166034082Y-120336334D01*
X166001939Y-120289566D01*
X165997640Y-120283311D01*
X165884603Y-120182599D01*
X165877897Y-120179048D01*
X165877895Y-120179047D01*
X165807541Y-120141797D01*
X165756698Y-120092244D01*
X165740500Y-120030442D01*
X165740500Y-115299295D01*
X165760502Y-115231174D01*
X165777405Y-115210200D01*
X166162358Y-114825247D01*
X166224670Y-114791221D01*
X166253431Y-114788358D01*
X166295765Y-114789023D01*
X166295768Y-114789023D01*
X166303363Y-114789142D01*
X166450937Y-114755343D01*
X166563475Y-114698743D01*
X166579406Y-114690731D01*
X166579409Y-114690729D01*
X166586189Y-114687319D01*
X166701310Y-114588995D01*
X166765725Y-114499353D01*
X166785224Y-114472218D01*
X166785225Y-114472217D01*
X166789656Y-114466050D01*
X166846124Y-114325580D01*
X166867456Y-114175696D01*
X166867594Y-114162500D01*
X166849406Y-114012201D01*
X166795892Y-113870580D01*
X166710140Y-113745811D01*
X166597103Y-113645099D01*
X166590397Y-113641548D01*
X166590395Y-113641547D01*
X166486547Y-113586563D01*
X166463305Y-113574257D01*
X166316472Y-113537374D01*
X166308874Y-113537334D01*
X166308872Y-113537334D01*
X166244275Y-113536996D01*
X166165079Y-113536582D01*
X166157700Y-113538354D01*
X166157696Y-113538354D01*
X166025246Y-113570152D01*
X166025242Y-113570153D01*
X166017867Y-113571924D01*
X165966586Y-113598392D01*
X165897568Y-113634015D01*
X165883335Y-113641361D01*
X165877613Y-113646353D01*
X165877611Y-113646354D01*
X165774974Y-113735890D01*
X165774971Y-113735893D01*
X165769249Y-113740885D01*
X165682196Y-113864749D01*
X165627202Y-114005802D01*
X165607441Y-114155902D01*
X165607467Y-114156134D01*
X165587671Y-114221038D01*
X165571485Y-114240910D01*
X164984664Y-114827731D01*
X164980160Y-114836569D01*
X164980160Y-114836570D01*
X164974135Y-114848394D01*
X164963807Y-114865248D01*
X164950172Y-114884015D01*
X164945329Y-114898921D01*
X164943006Y-114906070D01*
X164935441Y-114924334D01*
X164929411Y-114936168D01*
X164929410Y-114936172D01*
X164924910Y-114945003D01*
X164923359Y-114954796D01*
X164921281Y-114967917D01*
X164916667Y-114987138D01*
X164909501Y-115009192D01*
X164909501Y-115042294D01*
X164909500Y-115042300D01*
X164909500Y-120532700D01*
X164909501Y-120532706D01*
X164909501Y-120565808D01*
X164908783Y-120565808D01*
X164909052Y-120586220D01*
X164904475Y-120620984D01*
X164896258Y-120683402D01*
X164894941Y-120693402D01*
X157102543Y-120693402D01*
X156988972Y-120664874D01*
X156981374Y-120664834D01*
X156981372Y-120664834D01*
X156916775Y-120664496D01*
X156837579Y-120664082D01*
X156830200Y-120665854D01*
X156830196Y-120665854D01*
X156697746Y-120697652D01*
X156697742Y-120697653D01*
X156690367Y-120699424D01*
X156683625Y-120702904D01*
X156683619Y-120702906D01*
X156591876Y-120750258D01*
X156522169Y-120763727D01*
X156456246Y-120737371D01*
X156444992Y-120727387D01*
X156197269Y-120479664D01*
X156188430Y-120475160D01*
X156176606Y-120469135D01*
X156159752Y-120458807D01*
X156149009Y-120451002D01*
X156149010Y-120451002D01*
X156140985Y-120445172D01*
X156118929Y-120438006D01*
X156100666Y-120430441D01*
X156088832Y-120424411D01*
X156088828Y-120424410D01*
X156079997Y-120419910D01*
X156057083Y-120416281D01*
X156037862Y-120411667D01*
X156015808Y-120404501D01*
X155982704Y-120404501D01*
X155982700Y-120404500D01*
X152671964Y-120404500D01*
X152603843Y-120384498D01*
X152588145Y-120372577D01*
X152515270Y-120307648D01*
X152515269Y-120307648D01*
X152509603Y-120302599D01*
X152502897Y-120299048D01*
X152502895Y-120299047D01*
X152401976Y-120245614D01*
X152375805Y-120231757D01*
X152228972Y-120194874D01*
X152221374Y-120194834D01*
X152221372Y-120194834D01*
X152156775Y-120194496D01*
X152077579Y-120194082D01*
X152070200Y-120195854D01*
X152070196Y-120195854D01*
X151937746Y-120227652D01*
X151937742Y-120227653D01*
X151930367Y-120229424D01*
X151795835Y-120298861D01*
X151790115Y-120303851D01*
X151790111Y-120303854D01*
X151687474Y-120393390D01*
X151687471Y-120393393D01*
X151681749Y-120398385D01*
X151659220Y-120430441D01*
X151608167Y-120503082D01*
X151594696Y-120522249D01*
X151539702Y-120663302D01*
X151534883Y-120699908D01*
X151521550Y-120801181D01*
X151519941Y-120813402D01*
X151536554Y-120963883D01*
X151588582Y-121106057D01*
X151592819Y-121112363D01*
X151592821Y-121112366D01*
X151611190Y-121139701D01*
X151673022Y-121231716D01*
X151678641Y-121236829D01*
X151683604Y-121242579D01*
X151681100Y-121244740D01*
X151710237Y-121292799D01*
X151708378Y-121363771D01*
X151671282Y-121420069D01*
X151661749Y-121428385D01*
X151639835Y-121459566D01*
X151585642Y-121536675D01*
X151574696Y-121552249D01*
X151519702Y-121693302D01*
X151516227Y-121719701D01*
X151502371Y-121824946D01*
X151499941Y-121843402D01*
X151516554Y-121993883D01*
X151568582Y-122136057D01*
X151572819Y-122142363D01*
X151572821Y-122142366D01*
X151650115Y-122257390D01*
X151671508Y-122325087D01*
X151652904Y-122393603D01*
X151632513Y-122417707D01*
X151632556Y-122417746D01*
X151631304Y-122419136D01*
X151628358Y-122422619D01*
X151627644Y-122423243D01*
X151621749Y-122428385D01*
X151599930Y-122459430D01*
X151542721Y-122540831D01*
X151534696Y-122552249D01*
X151479702Y-122693302D01*
X151459941Y-122843402D01*
X151476554Y-122993883D01*
X151528582Y-123136057D01*
X151532819Y-123142363D01*
X151532821Y-123142366D01*
X151555761Y-123176504D01*
X151613022Y-123261716D01*
X151639875Y-123286150D01*
X151676797Y-123346789D01*
X151675074Y-123417765D01*
X151637906Y-123474290D01*
X151621749Y-123488385D01*
X151589633Y-123534082D01*
X151548172Y-123593075D01*
X151534696Y-123612249D01*
X151479702Y-123753302D01*
X151477867Y-123767241D01*
X151464427Y-123869331D01*
X151459941Y-123903402D01*
X151476554Y-124053883D01*
X151528582Y-124196057D01*
X151532819Y-124202363D01*
X151532821Y-124202366D01*
X151569201Y-124256504D01*
X151613022Y-124321716D01*
X151618641Y-124326829D01*
X151624218Y-124331904D01*
X151661140Y-124392545D01*
X151659415Y-124463520D01*
X151640060Y-124497198D01*
X151641749Y-124498385D01*
X151554696Y-124622249D01*
X151499702Y-124763302D01*
X151498047Y-124775871D01*
X151481078Y-124904766D01*
X151479941Y-124913402D01*
X151496554Y-125063883D01*
X151548582Y-125206057D01*
X151552819Y-125212363D01*
X151552821Y-125212366D01*
X151568367Y-125235500D01*
X151633022Y-125331716D01*
X151638640Y-125336828D01*
X151639585Y-125337688D01*
X151640070Y-125338485D01*
X151643604Y-125342579D01*
X151642921Y-125343168D01*
X151676504Y-125398331D01*
X151674777Y-125469306D01*
X151637609Y-125525825D01*
X151611749Y-125548385D01*
X151589608Y-125579888D01*
X151538335Y-125652843D01*
X151524696Y-125672249D01*
X151469702Y-125813302D01*
X151464529Y-125852598D01*
X151452069Y-125947241D01*
X151449941Y-125963402D01*
X148244774Y-125963402D01*
X148241906Y-125939701D01*
X148210774Y-125857312D01*
X148191076Y-125805182D01*
X148191075Y-125805179D01*
X148188392Y-125798080D01*
X148102640Y-125673311D01*
X148096974Y-125668263D01*
X148096969Y-125668257D01*
X148079334Y-125652545D01*
X148041778Y-125592295D01*
X148042759Y-125521305D01*
X148060831Y-125484942D01*
X148069078Y-125473466D01*
X148095743Y-125436357D01*
X148144587Y-125368385D01*
X148144588Y-125368384D01*
X148149019Y-125362217D01*
X148205487Y-125221747D01*
X148226819Y-125071863D01*
X148226891Y-125065021D01*
X148226914Y-125062788D01*
X148226914Y-125062787D01*
X148226957Y-125058667D01*
X148225985Y-125050630D01*
X148214312Y-124954174D01*
X148208769Y-124908368D01*
X148168983Y-124803077D01*
X148157939Y-124773849D01*
X148157938Y-124773846D01*
X148155255Y-124766747D01*
X148069503Y-124641978D01*
X148063837Y-124636930D01*
X148063832Y-124636924D01*
X147975031Y-124557805D01*
X147937475Y-124497555D01*
X147938456Y-124426565D01*
X147977019Y-124367919D01*
X148008029Y-124341434D01*
X148008035Y-124341427D01*
X148013810Y-124336495D01*
X148102156Y-124213550D01*
X148158624Y-124073080D01*
X148179956Y-123923196D01*
X148180094Y-123910000D01*
X148179321Y-123903607D01*
X148168617Y-123815160D01*
X148161906Y-123759701D01*
X148127603Y-123668921D01*
X148111076Y-123625182D01*
X148111075Y-123625179D01*
X148108392Y-123618080D01*
X148022640Y-123493311D01*
X148016973Y-123488262D01*
X148011946Y-123482560D01*
X148013262Y-123481400D01*
X147980690Y-123429144D01*
X147981671Y-123358154D01*
X148008980Y-123310620D01*
X148013810Y-123306495D01*
X148024825Y-123291167D01*
X148097724Y-123189718D01*
X148097725Y-123189717D01*
X148102156Y-123183550D01*
X148158624Y-123043080D01*
X148179956Y-122893196D01*
X148180094Y-122880000D01*
X148161906Y-122729701D01*
X148144150Y-122682711D01*
X148111076Y-122595182D01*
X148111075Y-122595179D01*
X148108392Y-122588080D01*
X148022640Y-122463311D01*
X148025389Y-122461421D01*
X148001679Y-122410699D01*
X148011160Y-122340339D01*
X148033483Y-122306379D01*
X148038040Y-122301423D01*
X148043810Y-122296495D01*
X148077995Y-122248922D01*
X148127724Y-122179718D01*
X148127725Y-122179717D01*
X148132156Y-122173550D01*
X148188624Y-122033080D01*
X148209956Y-121883196D01*
X148210094Y-121870000D01*
X148206876Y-121843402D01*
X148192818Y-121727241D01*
X148191906Y-121719701D01*
X148179257Y-121686226D01*
X148141076Y-121585182D01*
X148141075Y-121585179D01*
X148138392Y-121578080D01*
X148052640Y-121453311D01*
X148021647Y-121425697D01*
X147984092Y-121365449D01*
X147985071Y-121294459D01*
X148011484Y-121248481D01*
X148013810Y-121246495D01*
X148026935Y-121228231D01*
X148097724Y-121129718D01*
X148097725Y-121129717D01*
X148102156Y-121123550D01*
X148158624Y-120983080D01*
X148179956Y-120833196D01*
X148180094Y-120820000D01*
X148176195Y-120787775D01*
X148165785Y-120701757D01*
X148161906Y-120669701D01*
X148143921Y-120622104D01*
X148111076Y-120535182D01*
X148111075Y-120535179D01*
X148108392Y-120528080D01*
X148022640Y-120403311D01*
X147909603Y-120302599D01*
X147902897Y-120299048D01*
X147902895Y-120299047D01*
X147801976Y-120245614D01*
X147775805Y-120231757D01*
X147628972Y-120194874D01*
X147621374Y-120194834D01*
X147621372Y-120194834D01*
X147556775Y-120194496D01*
X147477579Y-120194082D01*
X147470200Y-120195854D01*
X147470196Y-120195854D01*
X147337746Y-120227652D01*
X147337742Y-120227653D01*
X147330367Y-120229424D01*
X147195835Y-120298861D01*
X147110332Y-120373450D01*
X147045853Y-120403157D01*
X147027505Y-120404500D01*
X144564192Y-120404500D01*
X144542135Y-120411667D01*
X144522912Y-120416282D01*
X144500003Y-120419910D01*
X144485580Y-120427259D01*
X144479336Y-120430440D01*
X144461074Y-120438004D01*
X144448448Y-120442107D01*
X144448446Y-120442108D01*
X144439016Y-120445172D01*
X144430996Y-120450999D01*
X144430994Y-120451000D01*
X144420253Y-120458804D01*
X144403396Y-120469134D01*
X144391566Y-120475162D01*
X144391564Y-120475163D01*
X144382731Y-120479664D01*
X144359324Y-120503071D01*
X144359320Y-120503074D01*
X143554914Y-121307480D01*
X143492602Y-121341506D01*
X143465160Y-121344383D01*
X143453690Y-121344323D01*
X143407579Y-121344082D01*
X143400200Y-121345854D01*
X143400196Y-121345854D01*
X143267746Y-121377652D01*
X143267742Y-121377653D01*
X143260367Y-121379424D01*
X143125835Y-121448861D01*
X143120113Y-121453853D01*
X143120111Y-121453854D01*
X143017474Y-121543390D01*
X143017471Y-121543393D01*
X143011749Y-121548385D01*
X143007382Y-121554599D01*
X142937709Y-121653734D01*
X142924696Y-121672249D01*
X142869702Y-121813302D01*
X142849941Y-121963402D01*
X135178541Y-121963402D01*
X135189956Y-121883196D01*
X135190094Y-121870000D01*
X135186876Y-121843402D01*
X135172818Y-121727241D01*
X135171906Y-121719701D01*
X135159257Y-121686226D01*
X135121076Y-121585182D01*
X135121075Y-121585179D01*
X135118392Y-121578080D01*
X135032640Y-121453311D01*
X134919603Y-121352599D01*
X134912896Y-121349048D01*
X134912892Y-121349045D01*
X134859615Y-121320837D01*
X134808771Y-121271284D01*
X134792789Y-121202110D01*
X134816742Y-121135276D01*
X134836742Y-121113672D01*
X134933029Y-121031434D01*
X134933035Y-121031427D01*
X134938810Y-121026495D01*
X135027156Y-120903550D01*
X135076328Y-120781230D01*
X135080792Y-120770125D01*
X135083624Y-120763080D01*
X135104956Y-120613196D01*
X135105094Y-120600000D01*
X135086906Y-120449701D01*
X135079628Y-120430440D01*
X135036076Y-120315182D01*
X135036075Y-120315179D01*
X135033392Y-120308080D01*
X134947640Y-120183311D01*
X134834603Y-120082599D01*
X134836443Y-120080533D01*
X134800065Y-120035342D01*
X134790500Y-119987186D01*
X134790500Y-116675843D01*
X134810502Y-116607722D01*
X134828268Y-116587366D01*
X134827892Y-116587020D01*
X134833032Y-116581430D01*
X134838810Y-116576495D01*
X134927156Y-116453550D01*
X134983624Y-116313080D01*
X135004956Y-116163196D01*
X135005094Y-116150000D01*
X135003026Y-116132905D01*
X134987818Y-116007241D01*
X134986906Y-115999701D01*
X134979102Y-115979047D01*
X134936076Y-115865182D01*
X134936075Y-115865179D01*
X134933392Y-115858080D01*
X134847640Y-115733311D01*
X134734603Y-115632599D01*
X134727897Y-115629048D01*
X134727895Y-115629047D01*
X134653327Y-115589566D01*
X134600805Y-115561757D01*
X134453972Y-115524874D01*
X134446374Y-115524834D01*
X134446372Y-115524834D01*
X134381775Y-115524496D01*
X134302579Y-115524082D01*
X134295200Y-115525854D01*
X134295196Y-115525854D01*
X134162746Y-115557652D01*
X134162742Y-115557653D01*
X134155367Y-115559424D01*
X134020835Y-115628861D01*
X134015113Y-115633853D01*
X134015111Y-115633854D01*
X133912474Y-115723390D01*
X133912471Y-115723393D01*
X133906749Y-115728385D01*
X133902379Y-115734603D01*
X133844587Y-115816832D01*
X133789053Y-115861064D01*
X133718421Y-115868250D01*
X133655116Y-115836109D01*
X133619238Y-115774845D01*
X133615500Y-115744382D01*
X133615500Y-115044192D01*
X133608333Y-115022135D01*
X133603718Y-115002912D01*
X133603219Y-114999761D01*
X133600090Y-114980003D01*
X133589560Y-114959336D01*
X133581996Y-114941074D01*
X133577893Y-114928448D01*
X133577892Y-114928446D01*
X133574828Y-114919016D01*
X133561196Y-114900253D01*
X133550866Y-114883396D01*
X133544838Y-114871566D01*
X133544837Y-114871564D01*
X133540336Y-114862731D01*
X133516929Y-114839324D01*
X133516926Y-114839320D01*
X133376349Y-114698743D01*
X133342323Y-114636431D01*
X133340099Y-114619999D01*
X133340094Y-114620000D01*
X133340050Y-114619639D01*
X133321906Y-114469701D01*
X133268392Y-114328080D01*
X133182640Y-114203311D01*
X133069603Y-114102599D01*
X133062897Y-114099048D01*
X133062895Y-114099047D01*
X133002704Y-114067178D01*
X132935805Y-114031757D01*
X132788972Y-113994874D01*
X132781374Y-113994834D01*
X132781372Y-113994834D01*
X132716775Y-113994496D01*
X132637579Y-113994082D01*
X132630200Y-113995854D01*
X132630196Y-113995854D01*
X132497746Y-114027652D01*
X132497742Y-114027653D01*
X132490367Y-114029424D01*
X132355835Y-114098861D01*
X132350113Y-114103853D01*
X132350111Y-114103854D01*
X132247474Y-114193390D01*
X132247471Y-114193393D01*
X132241749Y-114198385D01*
X132154696Y-114322249D01*
X132099702Y-114463302D01*
X132098711Y-114470831D01*
X132082505Y-114593929D01*
X132079941Y-114613402D01*
X130350500Y-114613402D01*
X130350500Y-107793402D01*
X130669941Y-107793402D01*
X130686554Y-107943883D01*
X130738582Y-108086057D01*
X130742819Y-108092363D01*
X130742821Y-108092366D01*
X130774671Y-108139763D01*
X130823022Y-108211716D01*
X130843302Y-108230169D01*
X130880223Y-108290809D01*
X130884500Y-108323361D01*
X130884500Y-108830765D01*
X130861586Y-108903217D01*
X130844696Y-108927249D01*
X130789702Y-109068302D01*
X130769941Y-109218402D01*
X130786554Y-109368883D01*
X130838582Y-109511057D01*
X130842819Y-109517363D01*
X130842821Y-109517366D01*
X130881412Y-109574794D01*
X130923022Y-109636716D01*
X131034998Y-109738607D01*
X131041675Y-109742232D01*
X131041676Y-109742233D01*
X131072520Y-109758980D01*
X131122842Y-109809063D01*
X131138098Y-109878401D01*
X131129792Y-109915475D01*
X131089702Y-110018302D01*
X131088711Y-110025831D01*
X131071204Y-110158810D01*
X131069941Y-110168402D01*
X131086554Y-110318883D01*
X131138582Y-110461057D01*
X131142819Y-110467363D01*
X131142821Y-110467366D01*
X131159074Y-110491552D01*
X131223022Y-110586716D01*
X131334998Y-110688607D01*
X131341675Y-110692232D01*
X131341676Y-110692233D01*
X131461370Y-110757222D01*
X131461372Y-110757223D01*
X131468047Y-110760847D01*
X131475396Y-110762775D01*
X131607136Y-110797336D01*
X131607138Y-110797336D01*
X131614486Y-110799264D01*
X131694562Y-110800522D01*
X131758266Y-110801523D01*
X131758269Y-110801523D01*
X131765863Y-110801642D01*
X131913437Y-110767843D01*
X131994993Y-110726825D01*
X132041906Y-110703231D01*
X132041909Y-110703229D01*
X132048689Y-110699819D01*
X132163810Y-110601495D01*
X132252156Y-110478550D01*
X132308624Y-110338080D01*
X132329956Y-110188196D01*
X132330094Y-110175000D01*
X132316001Y-110058538D01*
X132316325Y-110040808D01*
X132315500Y-110040808D01*
X132315500Y-107625843D01*
X132335502Y-107557722D01*
X132353269Y-107537365D01*
X132352893Y-107537019D01*
X132358034Y-107531428D01*
X132363810Y-107526495D01*
X132366711Y-107522458D01*
X132426585Y-107486431D01*
X132497550Y-107488526D01*
X132556118Y-107528656D01*
X132583692Y-107594079D01*
X132584500Y-107608322D01*
X132584500Y-110875078D01*
X132564498Y-110943199D01*
X132541329Y-110970027D01*
X132537475Y-110973389D01*
X132537471Y-110973393D01*
X132531749Y-110978385D01*
X132503625Y-111018402D01*
X132450099Y-111094562D01*
X132444696Y-111102249D01*
X132389702Y-111243302D01*
X132385302Y-111276725D01*
X132371831Y-111379047D01*
X132369941Y-111393402D01*
X132386554Y-111543883D01*
X132438582Y-111686057D01*
X132442819Y-111692363D01*
X132442821Y-111692366D01*
X132472294Y-111736226D01*
X132523022Y-111811716D01*
X132634998Y-111913607D01*
X132641675Y-111917232D01*
X132641676Y-111917233D01*
X132761370Y-111982222D01*
X132761372Y-111982223D01*
X132768047Y-111985847D01*
X132775396Y-111987775D01*
X132907136Y-112022336D01*
X132907138Y-112022336D01*
X132914486Y-112024264D01*
X132994562Y-112025522D01*
X133058266Y-112026523D01*
X133058269Y-112026523D01*
X133065863Y-112026642D01*
X133213437Y-111992843D01*
X133321054Y-111938718D01*
X133341906Y-111928231D01*
X133341909Y-111928229D01*
X133348689Y-111924819D01*
X133441337Y-111845689D01*
X133506126Y-111816658D01*
X133523168Y-111815500D01*
X134121347Y-111815500D01*
X134189468Y-111835502D01*
X134233612Y-111884294D01*
X134235973Y-111888926D01*
X134238582Y-111896057D01*
X134323022Y-112021716D01*
X134434998Y-112123607D01*
X134441675Y-112127232D01*
X134441676Y-112127233D01*
X134561370Y-112192222D01*
X134561372Y-112192223D01*
X134568047Y-112195847D01*
X134575396Y-112197775D01*
X134707136Y-112232336D01*
X134707138Y-112232336D01*
X134714486Y-112234264D01*
X134794562Y-112235522D01*
X134858266Y-112236523D01*
X134858269Y-112236523D01*
X134865863Y-112236642D01*
X135013437Y-112202843D01*
X135080731Y-112168998D01*
X135141906Y-112138231D01*
X135141909Y-112138229D01*
X135148689Y-112134819D01*
X135263810Y-112036495D01*
X135352156Y-111913550D01*
X135360255Y-111893402D01*
X165244941Y-111893402D01*
X165261554Y-112043883D01*
X165313582Y-112186057D01*
X165317819Y-112192363D01*
X165317821Y-112192366D01*
X165344680Y-112232336D01*
X165398022Y-112311716D01*
X165509998Y-112413607D01*
X165516675Y-112417232D01*
X165516676Y-112417233D01*
X165636370Y-112482222D01*
X165636372Y-112482223D01*
X165643047Y-112485847D01*
X165650396Y-112487775D01*
X165782136Y-112522336D01*
X165782138Y-112522336D01*
X165789486Y-112524264D01*
X165862581Y-112525412D01*
X165930378Y-112546481D01*
X165949696Y-112562301D01*
X167347595Y-113960201D01*
X167381621Y-114022513D01*
X167384500Y-114049296D01*
X167384500Y-114415705D01*
X167364498Y-114483826D01*
X167347595Y-114504800D01*
X167099664Y-114752731D01*
X167095160Y-114761569D01*
X167095160Y-114761570D01*
X167089135Y-114773394D01*
X167078807Y-114790248D01*
X167065172Y-114809015D01*
X167059898Y-114825247D01*
X167058006Y-114831070D01*
X167050441Y-114849334D01*
X167044411Y-114861168D01*
X167044410Y-114861172D01*
X167039910Y-114870003D01*
X167038359Y-114879796D01*
X167036282Y-114892911D01*
X167031667Y-114912138D01*
X167024501Y-114934192D01*
X167024501Y-114957377D01*
X167022950Y-114977087D01*
X167019321Y-115000000D01*
X167020872Y-115009793D01*
X167022950Y-115022913D01*
X167024501Y-115042623D01*
X167024501Y-115065808D01*
X167027565Y-115075237D01*
X167031666Y-115087860D01*
X167036282Y-115107089D01*
X167039910Y-115129999D01*
X167035971Y-115130623D01*
X167037384Y-115182190D01*
X167029324Y-115203300D01*
X167025172Y-115209015D01*
X167022109Y-115218443D01*
X167018006Y-115231070D01*
X167010441Y-115249334D01*
X167004411Y-115261168D01*
X167004410Y-115261172D01*
X166999910Y-115270003D01*
X166998359Y-115279796D01*
X166996281Y-115292917D01*
X166991667Y-115312138D01*
X166984501Y-115334192D01*
X166984501Y-115367294D01*
X166984500Y-115367300D01*
X166984500Y-119032700D01*
X166984501Y-119032706D01*
X166984501Y-119065808D01*
X166991667Y-119087862D01*
X166996281Y-119107083D01*
X166999910Y-119129997D01*
X167004410Y-119138828D01*
X167004411Y-119138832D01*
X167010441Y-119150666D01*
X167018006Y-119168929D01*
X167025172Y-119190985D01*
X167036173Y-119206127D01*
X167038807Y-119209752D01*
X167049135Y-119226606D01*
X167059664Y-119247269D01*
X167083075Y-119270680D01*
X167347595Y-119535201D01*
X167381621Y-119597513D01*
X167384500Y-119624296D01*
X167384500Y-119675078D01*
X167364498Y-119743199D01*
X167341329Y-119770027D01*
X167337475Y-119773389D01*
X167337471Y-119773393D01*
X167331749Y-119778385D01*
X167244696Y-119902249D01*
X167189702Y-120043302D01*
X167183259Y-120092244D01*
X167171270Y-120183311D01*
X167169941Y-120193402D01*
X167186554Y-120343883D01*
X167238582Y-120486057D01*
X167242819Y-120492363D01*
X167242821Y-120492366D01*
X167272874Y-120537088D01*
X167323022Y-120611716D01*
X167434998Y-120713607D01*
X167441675Y-120717232D01*
X167441676Y-120717233D01*
X167561370Y-120782222D01*
X167561372Y-120782223D01*
X167568047Y-120785847D01*
X167575396Y-120787775D01*
X167707136Y-120822336D01*
X167707138Y-120822336D01*
X167714486Y-120824264D01*
X167794562Y-120825522D01*
X167858266Y-120826523D01*
X167858269Y-120826523D01*
X167865863Y-120826642D01*
X168013437Y-120792843D01*
X168098109Y-120750258D01*
X168141906Y-120728231D01*
X168141909Y-120728229D01*
X168148689Y-120724819D01*
X168263810Y-120626495D01*
X168343187Y-120516032D01*
X168347724Y-120509718D01*
X168347725Y-120509717D01*
X168352156Y-120503550D01*
X168408624Y-120363080D01*
X168429956Y-120213196D01*
X168430094Y-120200000D01*
X168429593Y-120195854D01*
X168422681Y-120138738D01*
X168411906Y-120049701D01*
X168358392Y-119908080D01*
X168272640Y-119783311D01*
X168257681Y-119769983D01*
X168220125Y-119709733D01*
X168215500Y-119675907D01*
X168215500Y-119367300D01*
X168215499Y-119367294D01*
X168215499Y-119334191D01*
X168212435Y-119324760D01*
X168212434Y-119324755D01*
X168208334Y-119312134D01*
X168203720Y-119292915D01*
X168201642Y-119279800D01*
X168201641Y-119279798D01*
X168200090Y-119270003D01*
X168189559Y-119249334D01*
X168181994Y-119231070D01*
X168177892Y-119218445D01*
X168174828Y-119209015D01*
X168161190Y-119190245D01*
X168150863Y-119173392D01*
X168144836Y-119161563D01*
X168140336Y-119152731D01*
X168133177Y-119145572D01*
X168133055Y-119145349D01*
X168127497Y-119137699D01*
X168128486Y-119136981D01*
X168099151Y-119083260D01*
X168104216Y-119012445D01*
X168146763Y-118955609D01*
X168194143Y-118933657D01*
X168288532Y-118912039D01*
X168295937Y-118910343D01*
X168363231Y-118876498D01*
X168424406Y-118845731D01*
X168424409Y-118845729D01*
X168431189Y-118842319D01*
X168546310Y-118743995D01*
X168634656Y-118621050D01*
X168691124Y-118480580D01*
X168702421Y-118401207D01*
X168731823Y-118336585D01*
X168791494Y-118298116D01*
X168799030Y-118296143D01*
X168806034Y-118294539D01*
X168806038Y-118294538D01*
X168813437Y-118292843D01*
X168828030Y-118285504D01*
X168941906Y-118228231D01*
X168941909Y-118228229D01*
X168948689Y-118224819D01*
X169063810Y-118126495D01*
X169152156Y-118003550D01*
X169208624Y-117863080D01*
X169229956Y-117713196D01*
X169230094Y-117700000D01*
X169228329Y-117685410D01*
X169222681Y-117638738D01*
X169211906Y-117549701D01*
X169208504Y-117540699D01*
X169161076Y-117415182D01*
X169161075Y-117415179D01*
X169158392Y-117408080D01*
X169072640Y-117283311D01*
X169057681Y-117269983D01*
X169020125Y-117209733D01*
X169015500Y-117175907D01*
X169015500Y-117025843D01*
X169035502Y-116957722D01*
X169053268Y-116937366D01*
X169052892Y-116937020D01*
X169058032Y-116931430D01*
X169063810Y-116926495D01*
X169152156Y-116803550D01*
X169208624Y-116663080D01*
X169229956Y-116513196D01*
X169230094Y-116500000D01*
X169228470Y-116486575D01*
X169212818Y-116357241D01*
X169211906Y-116349701D01*
X169195227Y-116305561D01*
X169161076Y-116215182D01*
X169161075Y-116215179D01*
X169158392Y-116208080D01*
X169072640Y-116083311D01*
X168959603Y-115982599D01*
X168952897Y-115979048D01*
X168952895Y-115979047D01*
X168832515Y-115915310D01*
X168825805Y-115911757D01*
X168818440Y-115909907D01*
X168818435Y-115909905D01*
X168789754Y-115902700D01*
X168728559Y-115866704D01*
X168702586Y-115825035D01*
X168661076Y-115715182D01*
X168661075Y-115715179D01*
X168658392Y-115708080D01*
X168572640Y-115583311D01*
X168509129Y-115526725D01*
X168465270Y-115487648D01*
X168465269Y-115487648D01*
X168459603Y-115482599D01*
X168452896Y-115479048D01*
X168452889Y-115479043D01*
X168411931Y-115457357D01*
X168361088Y-115407805D01*
X168345106Y-115338630D01*
X168353983Y-115299007D01*
X168405790Y-115170133D01*
X168405793Y-115170124D01*
X168408624Y-115163080D01*
X168429956Y-115013196D01*
X168430094Y-115000000D01*
X168428539Y-114987145D01*
X168418726Y-114906057D01*
X168411906Y-114849701D01*
X168388978Y-114789023D01*
X168361076Y-114715182D01*
X168361075Y-114715179D01*
X168358392Y-114708080D01*
X168272640Y-114583311D01*
X168257681Y-114569983D01*
X168220125Y-114509733D01*
X168215500Y-114475907D01*
X168215500Y-113792300D01*
X168215499Y-113792294D01*
X168215499Y-113759192D01*
X168208333Y-113737138D01*
X168203719Y-113717917D01*
X168201641Y-113704796D01*
X168200090Y-113695003D01*
X168195590Y-113686172D01*
X168195589Y-113686168D01*
X168189559Y-113674334D01*
X168181994Y-113656070D01*
X168177892Y-113643445D01*
X168174828Y-113634015D01*
X168161190Y-113615245D01*
X168150863Y-113598392D01*
X168144836Y-113586563D01*
X168140336Y-113577731D01*
X168116928Y-113554323D01*
X168116925Y-113554319D01*
X166541349Y-111978743D01*
X166507323Y-111916431D01*
X166505099Y-111899999D01*
X166505094Y-111900000D01*
X166505050Y-111899639D01*
X166486906Y-111749701D01*
X166433392Y-111608080D01*
X166347640Y-111483311D01*
X166234603Y-111382599D01*
X166227897Y-111379048D01*
X166227895Y-111379047D01*
X166144171Y-111334718D01*
X166100805Y-111311757D01*
X165953972Y-111274874D01*
X165946374Y-111274834D01*
X165946372Y-111274834D01*
X165881775Y-111274496D01*
X165802579Y-111274082D01*
X165795200Y-111275854D01*
X165795196Y-111275854D01*
X165662746Y-111307652D01*
X165662742Y-111307653D01*
X165655367Y-111309424D01*
X165520835Y-111378861D01*
X165515113Y-111383853D01*
X165515111Y-111383854D01*
X165412474Y-111473390D01*
X165412471Y-111473393D01*
X165406749Y-111478385D01*
X165319696Y-111602249D01*
X165264702Y-111743302D01*
X165263711Y-111750831D01*
X165251223Y-111845689D01*
X165244941Y-111893402D01*
X135360255Y-111893402D01*
X135408624Y-111773080D01*
X135429956Y-111623196D01*
X135430094Y-111610000D01*
X135411906Y-111459701D01*
X135386854Y-111393402D01*
X135361076Y-111325182D01*
X135361075Y-111325179D01*
X135358392Y-111318080D01*
X135272640Y-111193311D01*
X135159603Y-111092599D01*
X135152897Y-111089048D01*
X135152895Y-111089047D01*
X135092704Y-111057178D01*
X135025805Y-111021757D01*
X134919591Y-110995077D01*
X134858396Y-110959081D01*
X134826376Y-110895715D01*
X134833380Y-110825877D01*
X134855792Y-110770125D01*
X134858624Y-110763080D01*
X134879956Y-110613196D01*
X134880094Y-110600000D01*
X134879529Y-110595325D01*
X134869392Y-110511562D01*
X134861906Y-110449701D01*
X134822390Y-110345125D01*
X134811076Y-110315182D01*
X134811075Y-110315179D01*
X134808392Y-110308080D01*
X134722640Y-110183311D01*
X134707681Y-110169983D01*
X134670125Y-110109733D01*
X134665500Y-110075907D01*
X134665500Y-107623402D01*
X150489941Y-107623402D01*
X150506554Y-107773883D01*
X150558582Y-107916057D01*
X150562819Y-107922363D01*
X150562821Y-107922366D01*
X150595494Y-107970988D01*
X150643022Y-108041716D01*
X150663302Y-108060169D01*
X150700223Y-108120809D01*
X150704500Y-108153361D01*
X150704500Y-110061513D01*
X150704501Y-110061519D01*
X150704501Y-110094621D01*
X150711667Y-110116675D01*
X150716281Y-110135896D01*
X150719910Y-110158810D01*
X150724410Y-110167641D01*
X150724411Y-110167645D01*
X150730441Y-110179479D01*
X150738006Y-110197742D01*
X150745172Y-110219798D01*
X150751002Y-110227822D01*
X150758807Y-110238565D01*
X150769135Y-110255419D01*
X150779664Y-110276082D01*
X150803075Y-110299493D01*
X150995133Y-110491552D01*
X151029159Y-110553864D01*
X151031276Y-110566818D01*
X151047484Y-110713626D01*
X151099512Y-110855800D01*
X151103749Y-110862106D01*
X151103751Y-110862109D01*
X151119844Y-110886057D01*
X151183952Y-110981459D01*
X151295928Y-111083350D01*
X151302605Y-111086975D01*
X151302606Y-111086976D01*
X151422300Y-111151965D01*
X151422302Y-111151966D01*
X151428977Y-111155590D01*
X151436326Y-111157518D01*
X151568066Y-111192079D01*
X151568068Y-111192079D01*
X151575416Y-111194007D01*
X151655492Y-111195265D01*
X151719196Y-111196266D01*
X151719199Y-111196266D01*
X151726793Y-111196385D01*
X151874367Y-111162586D01*
X151941661Y-111128741D01*
X152002836Y-111097974D01*
X152002839Y-111097972D01*
X152009619Y-111094562D01*
X152098790Y-111018402D01*
X167169941Y-111018402D01*
X167186554Y-111168883D01*
X167238582Y-111311057D01*
X167242819Y-111317363D01*
X167242821Y-111317366D01*
X167281412Y-111374794D01*
X167323022Y-111436716D01*
X167434998Y-111538607D01*
X167441675Y-111542232D01*
X167441676Y-111542233D01*
X167561370Y-111607222D01*
X167561372Y-111607223D01*
X167568047Y-111610847D01*
X167575396Y-111612775D01*
X167707136Y-111647336D01*
X167707138Y-111647336D01*
X167714486Y-111649264D01*
X167794562Y-111650522D01*
X167858266Y-111651523D01*
X167858269Y-111651523D01*
X167865863Y-111651642D01*
X168013437Y-111617843D01*
X168080731Y-111583998D01*
X168141906Y-111553231D01*
X168141909Y-111553229D01*
X168148689Y-111549819D01*
X168263810Y-111451495D01*
X168352156Y-111328550D01*
X168408624Y-111188080D01*
X168429956Y-111038196D01*
X168430094Y-111025000D01*
X168426614Y-110996238D01*
X168412818Y-110882241D01*
X168411906Y-110874701D01*
X168404764Y-110855800D01*
X168361076Y-110740182D01*
X168361075Y-110740179D01*
X168358392Y-110733080D01*
X168272640Y-110608311D01*
X168257681Y-110594983D01*
X168220125Y-110534733D01*
X168215500Y-110500907D01*
X168215500Y-106325843D01*
X168235502Y-106257722D01*
X168253268Y-106237366D01*
X168252892Y-106237020D01*
X168258032Y-106231430D01*
X168263810Y-106226495D01*
X168352156Y-106103550D01*
X168408624Y-105963080D01*
X168429956Y-105813196D01*
X168430094Y-105800000D01*
X168428469Y-105786566D01*
X168422540Y-105737577D01*
X168411906Y-105649701D01*
X168395635Y-105606642D01*
X168361076Y-105515182D01*
X168361075Y-105515179D01*
X168358392Y-105508080D01*
X168315516Y-105445696D01*
X168276939Y-105389566D01*
X168272640Y-105383311D01*
X168175121Y-105296425D01*
X168165270Y-105287648D01*
X168165269Y-105287648D01*
X168159603Y-105282599D01*
X168152897Y-105279048D01*
X168152895Y-105279047D01*
X168073407Y-105236961D01*
X168025805Y-105211757D01*
X167878972Y-105174874D01*
X167871374Y-105174834D01*
X167871372Y-105174834D01*
X167806775Y-105174496D01*
X167727579Y-105174082D01*
X167720200Y-105175854D01*
X167720196Y-105175854D01*
X167587746Y-105207652D01*
X167587742Y-105207653D01*
X167580367Y-105209424D01*
X167445835Y-105278861D01*
X167440113Y-105283853D01*
X167440111Y-105283854D01*
X167337474Y-105373390D01*
X167337471Y-105373393D01*
X167331749Y-105378385D01*
X167315567Y-105401410D01*
X167250770Y-105493607D01*
X167244696Y-105502249D01*
X167189702Y-105643302D01*
X167169941Y-105793402D01*
X167186554Y-105943883D01*
X167238582Y-106086057D01*
X167242819Y-106092363D01*
X167242821Y-106092366D01*
X167261609Y-106120325D01*
X167323022Y-106211716D01*
X167343302Y-106230169D01*
X167380223Y-106290809D01*
X167384500Y-106323361D01*
X167384500Y-110500078D01*
X167364498Y-110568199D01*
X167341329Y-110595027D01*
X167337475Y-110598389D01*
X167337471Y-110598393D01*
X167331749Y-110603385D01*
X167321986Y-110617277D01*
X167267440Y-110694888D01*
X167244696Y-110727249D01*
X167189702Y-110868302D01*
X167188711Y-110875831D01*
X167173012Y-110995077D01*
X167169941Y-111018402D01*
X152098790Y-111018402D01*
X152124740Y-110996238D01*
X152213086Y-110873293D01*
X152269554Y-110732823D01*
X152290886Y-110582939D01*
X152291024Y-110569743D01*
X152289531Y-110557401D01*
X152280735Y-110484718D01*
X152272836Y-110419444D01*
X152243158Y-110340902D01*
X152222006Y-110284925D01*
X152222005Y-110284922D01*
X152219322Y-110277823D01*
X152151732Y-110179479D01*
X152137869Y-110159309D01*
X152133570Y-110153054D01*
X152020533Y-110052342D01*
X152013827Y-110048791D01*
X152013825Y-110048790D01*
X151953634Y-110016921D01*
X151886735Y-109981500D01*
X151739902Y-109944617D01*
X151732304Y-109944577D01*
X151732302Y-109944577D01*
X151674601Y-109944275D01*
X151606586Y-109923917D01*
X151586169Y-109907376D01*
X151572408Y-109893616D01*
X151538380Y-109831305D01*
X151535500Y-109804517D01*
X151535500Y-108155843D01*
X151555502Y-108087722D01*
X151573268Y-108067366D01*
X151572892Y-108067020D01*
X151578032Y-108061430D01*
X151583810Y-108056495D01*
X151648225Y-107966853D01*
X151667724Y-107939718D01*
X151667725Y-107939717D01*
X151672156Y-107933550D01*
X151728624Y-107793080D01*
X151749956Y-107643196D01*
X151750094Y-107630000D01*
X151731906Y-107479701D01*
X151678392Y-107338080D01*
X151592640Y-107213311D01*
X151479603Y-107112599D01*
X151472897Y-107109048D01*
X151472895Y-107109047D01*
X151470853Y-107107966D01*
X154868257Y-107107966D01*
X154898565Y-107242446D01*
X154901645Y-107252275D01*
X154981770Y-107449603D01*
X154986413Y-107458794D01*
X155097694Y-107640388D01*
X155103777Y-107648699D01*
X155243213Y-107809667D01*
X155250580Y-107816883D01*
X155418414Y-107956221D01*
X155416896Y-107958049D01*
X155455026Y-108005793D01*
X155462306Y-108076416D01*
X155430248Y-108139763D01*
X155369032Y-108175722D01*
X155338407Y-108179500D01*
X155316782Y-108179500D01*
X155312232Y-108180170D01*
X155312229Y-108180170D01*
X155257574Y-108188216D01*
X155257573Y-108188216D01*
X155247888Y-108189642D01*
X155215772Y-108205410D01*
X155152493Y-108236478D01*
X155152491Y-108236479D01*
X155143145Y-108241068D01*
X155060707Y-108323650D01*
X155009464Y-108428482D01*
X154999500Y-108496782D01*
X154999500Y-110263218D01*
X155000170Y-110267768D01*
X155000170Y-110267771D01*
X155008216Y-110322426D01*
X155009642Y-110332112D01*
X155013958Y-110340902D01*
X155056222Y-110426984D01*
X155061068Y-110436855D01*
X155078164Y-110453921D01*
X155115861Y-110491552D01*
X155143650Y-110519293D01*
X155248482Y-110570536D01*
X155278973Y-110574984D01*
X155312256Y-110579840D01*
X155312260Y-110579840D01*
X155316782Y-110580500D01*
X157083218Y-110580500D01*
X157087768Y-110579830D01*
X157087771Y-110579830D01*
X157142426Y-110571784D01*
X157142427Y-110571784D01*
X157152112Y-110570358D01*
X157224672Y-110534733D01*
X157247507Y-110523522D01*
X157247509Y-110523521D01*
X157256855Y-110518932D01*
X157317686Y-110457995D01*
X157331935Y-110443721D01*
X157331935Y-110443720D01*
X157339293Y-110436350D01*
X157390536Y-110331518D01*
X157397600Y-110283097D01*
X157399840Y-110267744D01*
X157399840Y-110267740D01*
X157400500Y-110263218D01*
X157400500Y-108496782D01*
X157391871Y-108438162D01*
X157391784Y-108437574D01*
X157391784Y-108437573D01*
X157390358Y-108427888D01*
X157338932Y-108323145D01*
X157256350Y-108240707D01*
X157151518Y-108189464D01*
X157121027Y-108185016D01*
X157087744Y-108180160D01*
X157087740Y-108180160D01*
X157083218Y-108179500D01*
X157054383Y-108179500D01*
X156986262Y-108159498D01*
X156939769Y-108105842D01*
X156929665Y-108035568D01*
X156959159Y-107970988D01*
X156981215Y-107950921D01*
X157075328Y-107883792D01*
X157083200Y-107877139D01*
X157234052Y-107726812D01*
X157240730Y-107718965D01*
X157365003Y-107546020D01*
X157370313Y-107537183D01*
X157464670Y-107346267D01*
X157468469Y-107336672D01*
X157530377Y-107132910D01*
X157532555Y-107122837D01*
X157533986Y-107111962D01*
X157531775Y-107097778D01*
X157518617Y-107094000D01*
X154883225Y-107094000D01*
X154869694Y-107097973D01*
X154868257Y-107107966D01*
X151470853Y-107107966D01*
X151412704Y-107077178D01*
X151345805Y-107041757D01*
X151198972Y-107004874D01*
X151191374Y-107004834D01*
X151191372Y-107004834D01*
X151126775Y-107004496D01*
X151047579Y-107004082D01*
X151040200Y-107005854D01*
X151040196Y-107005854D01*
X150907746Y-107037652D01*
X150907742Y-107037653D01*
X150900367Y-107039424D01*
X150765835Y-107108861D01*
X150760113Y-107113853D01*
X150760111Y-107113854D01*
X150657474Y-107203390D01*
X150657471Y-107203393D01*
X150651749Y-107208385D01*
X150647382Y-107214599D01*
X150598709Y-107283854D01*
X150564696Y-107332249D01*
X150509702Y-107473302D01*
X150508711Y-107480831D01*
X150500129Y-107546020D01*
X150489941Y-107623402D01*
X134665500Y-107623402D01*
X134665500Y-106574183D01*
X154864389Y-106574183D01*
X154865912Y-106582607D01*
X154878292Y-106586000D01*
X157518344Y-106586000D01*
X157531875Y-106582027D01*
X157533180Y-106572947D01*
X157491214Y-106405875D01*
X157487894Y-106396124D01*
X157402972Y-106200814D01*
X157398105Y-106191739D01*
X157282426Y-106012926D01*
X157276136Y-106004757D01*
X157132806Y-105847240D01*
X157125273Y-105840215D01*
X156958139Y-105708222D01*
X156949552Y-105702517D01*
X156763115Y-105599598D01*
X156754687Y-105595810D01*
X156700752Y-105549641D01*
X156680340Y-105481642D01*
X156699932Y-105413402D01*
X156744771Y-105370949D01*
X156877843Y-105296425D01*
X156882884Y-105293602D01*
X156894971Y-105283550D01*
X157048086Y-105156204D01*
X157052518Y-105152518D01*
X157117753Y-105074082D01*
X157189908Y-104987326D01*
X157189910Y-104987323D01*
X157193602Y-104982884D01*
X157301410Y-104790379D01*
X157303266Y-104784912D01*
X157303268Y-104784907D01*
X157370475Y-104586921D01*
X157370476Y-104586916D01*
X157372331Y-104581452D01*
X157373159Y-104575743D01*
X157373160Y-104575738D01*
X157397690Y-104406553D01*
X157403991Y-104363098D01*
X157405643Y-104300000D01*
X157385454Y-104080289D01*
X157377823Y-104053229D01*
X157331246Y-103888080D01*
X157325565Y-103867936D01*
X157227980Y-103670053D01*
X157220390Y-103659888D01*
X157099420Y-103497891D01*
X157099420Y-103497890D01*
X157095967Y-103493267D01*
X156960781Y-103368302D01*
X156938189Y-103347418D01*
X156938186Y-103347416D01*
X156933949Y-103343499D01*
X156747350Y-103225764D01*
X156542421Y-103144006D01*
X156536761Y-103142880D01*
X156536757Y-103142879D01*
X156331691Y-103102089D01*
X156331688Y-103102089D01*
X156326024Y-103100962D01*
X156320249Y-103100886D01*
X156320245Y-103100886D01*
X156209504Y-103099437D01*
X156105406Y-103098074D01*
X156099709Y-103099053D01*
X156099708Y-103099053D01*
X155893654Y-103134459D01*
X155893653Y-103134459D01*
X155887957Y-103135438D01*
X155680957Y-103211804D01*
X155675996Y-103214756D01*
X155675995Y-103214756D01*
X155512510Y-103312020D01*
X155491341Y-103324614D01*
X155325457Y-103470090D01*
X155188863Y-103643360D01*
X155086131Y-103838620D01*
X155036473Y-103998546D01*
X155024034Y-104038607D01*
X155020703Y-104049333D01*
X154994770Y-104268440D01*
X155009200Y-104488604D01*
X155010621Y-104494200D01*
X155010622Y-104494205D01*
X155055729Y-104671809D01*
X155063511Y-104702452D01*
X155065928Y-104707694D01*
X155065928Y-104707695D01*
X155102616Y-104787277D01*
X155155883Y-104902821D01*
X155283222Y-105083002D01*
X155441264Y-105236961D01*
X155446060Y-105240166D01*
X155446063Y-105240168D01*
X155527855Y-105294819D01*
X155624717Y-105359540D01*
X155630020Y-105361818D01*
X155630023Y-105361820D01*
X155642546Y-105367200D01*
X155697239Y-105412469D01*
X155718776Y-105480120D01*
X155700319Y-105548675D01*
X155650988Y-105594731D01*
X155478463Y-105684542D01*
X155469738Y-105690036D01*
X155299433Y-105817905D01*
X155291726Y-105824748D01*
X155144590Y-105978717D01*
X155138104Y-105986727D01*
X155018098Y-106162649D01*
X155013000Y-106171623D01*
X154923338Y-106364783D01*
X154919775Y-106374470D01*
X154864389Y-106574183D01*
X134665500Y-106574183D01*
X134665500Y-106421404D01*
X134685502Y-106353283D01*
X134739158Y-106306790D01*
X134763370Y-106298584D01*
X134781036Y-106294538D01*
X134788437Y-106292843D01*
X134803030Y-106285504D01*
X134916906Y-106228231D01*
X134916909Y-106228229D01*
X134923689Y-106224819D01*
X135038810Y-106126495D01*
X135127156Y-106003550D01*
X135183624Y-105863080D01*
X135204956Y-105713196D01*
X135205094Y-105700000D01*
X135203889Y-105690036D01*
X135197377Y-105636226D01*
X135186906Y-105549701D01*
X135173862Y-105515182D01*
X135136076Y-105415182D01*
X135136075Y-105415179D01*
X135133392Y-105408080D01*
X135047640Y-105283311D01*
X134950200Y-105196495D01*
X134940270Y-105187648D01*
X134940269Y-105187648D01*
X134934603Y-105182599D01*
X134927897Y-105179048D01*
X134927895Y-105179047D01*
X134809449Y-105116334D01*
X134800805Y-105111757D01*
X134653972Y-105074874D01*
X134646374Y-105074834D01*
X134646372Y-105074834D01*
X134581775Y-105074496D01*
X134502579Y-105074082D01*
X134495200Y-105075854D01*
X134495196Y-105075854D01*
X134362746Y-105107652D01*
X134362742Y-105107653D01*
X134355367Y-105109424D01*
X134348622Y-105112905D01*
X134348623Y-105112905D01*
X134228560Y-105174874D01*
X134220835Y-105178861D01*
X134215113Y-105183853D01*
X134215111Y-105183854D01*
X134112474Y-105273390D01*
X134112471Y-105273393D01*
X134106749Y-105278385D01*
X134095199Y-105294819D01*
X134024829Y-105394946D01*
X134019696Y-105402249D01*
X133964702Y-105543302D01*
X133944941Y-105693402D01*
X133944968Y-105693650D01*
X133921821Y-105763638D01*
X133916676Y-105770719D01*
X133909664Y-105777731D01*
X133905163Y-105786565D01*
X133905162Y-105786566D01*
X133899135Y-105798394D01*
X133888807Y-105815248D01*
X133875172Y-105834015D01*
X133870875Y-105847240D01*
X133868006Y-105856070D01*
X133860441Y-105874334D01*
X133854411Y-105886168D01*
X133854410Y-105886172D01*
X133849910Y-105895003D01*
X133848359Y-105904796D01*
X133846281Y-105917917D01*
X133841667Y-105937138D01*
X133834501Y-105959192D01*
X133834501Y-105992294D01*
X133834500Y-105992300D01*
X133834500Y-110075078D01*
X133814498Y-110143199D01*
X133791329Y-110170027D01*
X133787475Y-110173389D01*
X133787471Y-110173393D01*
X133781749Y-110178385D01*
X133747004Y-110227822D01*
X133706872Y-110284925D01*
X133694696Y-110302249D01*
X133676738Y-110348310D01*
X133658893Y-110394080D01*
X133615512Y-110450281D01*
X133548633Y-110474108D01*
X133479489Y-110457995D01*
X133430033Y-110407057D01*
X133415500Y-110348310D01*
X133415500Y-105297194D01*
X133435502Y-105229073D01*
X133459665Y-105201388D01*
X133488810Y-105176495D01*
X133506040Y-105152518D01*
X133572724Y-105059718D01*
X133572725Y-105059717D01*
X133577156Y-105053550D01*
X133609375Y-104973402D01*
X140409941Y-104973402D01*
X140426554Y-105123883D01*
X140478582Y-105266057D01*
X140482819Y-105272363D01*
X140482821Y-105272366D01*
X140499505Y-105297194D01*
X140563022Y-105391716D01*
X140674998Y-105493607D01*
X140681675Y-105497232D01*
X140681676Y-105497233D01*
X140801370Y-105562222D01*
X140801372Y-105562223D01*
X140808047Y-105565847D01*
X140815396Y-105567775D01*
X140947136Y-105602336D01*
X140947138Y-105602336D01*
X140954486Y-105604264D01*
X141034562Y-105605522D01*
X141098266Y-105606523D01*
X141098269Y-105606523D01*
X141105863Y-105606642D01*
X141253437Y-105572843D01*
X141326243Y-105536226D01*
X141381906Y-105508231D01*
X141381909Y-105508229D01*
X141388689Y-105504819D01*
X141503810Y-105406495D01*
X141592156Y-105283550D01*
X141594987Y-105276507D01*
X141594991Y-105276500D01*
X141599812Y-105264506D01*
X141643777Y-105208761D01*
X141716720Y-105185500D01*
X142438435Y-105185500D01*
X142506556Y-105205502D01*
X142523235Y-105218307D01*
X142594998Y-105283607D01*
X142601675Y-105287232D01*
X142601676Y-105287233D01*
X142721370Y-105352222D01*
X142721372Y-105352223D01*
X142728047Y-105355847D01*
X142735396Y-105357775D01*
X142867136Y-105392336D01*
X142867138Y-105392336D01*
X142874486Y-105394264D01*
X142954562Y-105395522D01*
X143018266Y-105396523D01*
X143018269Y-105396523D01*
X143025863Y-105396642D01*
X143173437Y-105362843D01*
X143240731Y-105328998D01*
X143301906Y-105298231D01*
X143301909Y-105298229D01*
X143308689Y-105294819D01*
X143423810Y-105196495D01*
X143512156Y-105073550D01*
X143568624Y-104933080D01*
X143589956Y-104783196D01*
X143590094Y-104770000D01*
X143588173Y-104754121D01*
X143572818Y-104627241D01*
X143571906Y-104619701D01*
X143561665Y-104592598D01*
X143521076Y-104485182D01*
X143521075Y-104485179D01*
X143518392Y-104478080D01*
X143432640Y-104353311D01*
X143319603Y-104252599D01*
X143312897Y-104249048D01*
X143312895Y-104249047D01*
X143252704Y-104217178D01*
X143185805Y-104181757D01*
X143038972Y-104144874D01*
X143031374Y-104144834D01*
X143031372Y-104144834D01*
X142966775Y-104144496D01*
X142887579Y-104144082D01*
X142880200Y-104145854D01*
X142880196Y-104145854D01*
X142747746Y-104177652D01*
X142747742Y-104177653D01*
X142740367Y-104179424D01*
X142733622Y-104182905D01*
X142733623Y-104182905D01*
X142613533Y-104244888D01*
X142605835Y-104248861D01*
X142520332Y-104323450D01*
X142455853Y-104353157D01*
X142437505Y-104354500D01*
X141184192Y-104354500D01*
X141174762Y-104357564D01*
X141172546Y-104357915D01*
X141134063Y-104356202D01*
X141133877Y-104357677D01*
X141126339Y-104356725D01*
X141118972Y-104354874D01*
X141111378Y-104354834D01*
X141111376Y-104354834D01*
X141043948Y-104354482D01*
X140967579Y-104354082D01*
X140960200Y-104355854D01*
X140960196Y-104355854D01*
X140827746Y-104387652D01*
X140827742Y-104387653D01*
X140820367Y-104389424D01*
X140685835Y-104458861D01*
X140680113Y-104463853D01*
X140680111Y-104463854D01*
X140577474Y-104553390D01*
X140577471Y-104553393D01*
X140571749Y-104558385D01*
X140484696Y-104682249D01*
X140429702Y-104823302D01*
X140428711Y-104830831D01*
X140417883Y-104913080D01*
X140409941Y-104973402D01*
X133609375Y-104973402D01*
X133633624Y-104913080D01*
X133654956Y-104763196D01*
X133655094Y-104750000D01*
X133653173Y-104734121D01*
X133645632Y-104671809D01*
X133636906Y-104599701D01*
X133597600Y-104495680D01*
X133586076Y-104465182D01*
X133586075Y-104465179D01*
X133583392Y-104458080D01*
X133513373Y-104356202D01*
X133501939Y-104339566D01*
X133497640Y-104333311D01*
X133412762Y-104257688D01*
X133390270Y-104237648D01*
X133390269Y-104237648D01*
X133384603Y-104232599D01*
X133377897Y-104229048D01*
X133377895Y-104229047D01*
X133290747Y-104182905D01*
X133250805Y-104161757D01*
X133103972Y-104124874D01*
X133096375Y-104124834D01*
X133096373Y-104124834D01*
X133078465Y-104124740D01*
X133040839Y-104124544D01*
X132972826Y-104104186D01*
X132926614Y-104050288D01*
X132915500Y-103998546D01*
X132915500Y-103518402D01*
X134919941Y-103518402D01*
X134936554Y-103668883D01*
X134988582Y-103811057D01*
X134992819Y-103817363D01*
X134992821Y-103817366D01*
X135026803Y-103867936D01*
X135073022Y-103936716D01*
X135184998Y-104038607D01*
X135191675Y-104042232D01*
X135191676Y-104042233D01*
X135311370Y-104107222D01*
X135311372Y-104107223D01*
X135318047Y-104110847D01*
X135325396Y-104112775D01*
X135457136Y-104147336D01*
X135457138Y-104147336D01*
X135464486Y-104149264D01*
X135544562Y-104150522D01*
X135608266Y-104151523D01*
X135608269Y-104151523D01*
X135615863Y-104151642D01*
X135763437Y-104117843D01*
X135881722Y-104058353D01*
X135891909Y-104053229D01*
X135898689Y-104049819D01*
X135904458Y-104044892D01*
X135908505Y-104042203D01*
X135976313Y-104021167D01*
X136044730Y-104040130D01*
X136082811Y-104076876D01*
X136123022Y-104136716D01*
X136234998Y-104238607D01*
X136241675Y-104242232D01*
X136241676Y-104242233D01*
X136361370Y-104307222D01*
X136361372Y-104307223D01*
X136368047Y-104310847D01*
X136375396Y-104312775D01*
X136507136Y-104347336D01*
X136507138Y-104347336D01*
X136514486Y-104349264D01*
X136594562Y-104350522D01*
X136658266Y-104351523D01*
X136658269Y-104351523D01*
X136665863Y-104351642D01*
X136813437Y-104317843D01*
X136886913Y-104280889D01*
X136941906Y-104253231D01*
X136941909Y-104253229D01*
X136948689Y-104249819D01*
X137063810Y-104151495D01*
X137134662Y-104052895D01*
X137147724Y-104034718D01*
X137147725Y-104034717D01*
X137152156Y-104028550D01*
X137208624Y-103888080D01*
X137229956Y-103738196D01*
X137230005Y-103733488D01*
X137230056Y-103733321D01*
X137230312Y-103729959D01*
X137231064Y-103730016D01*
X137250714Y-103665580D01*
X137266903Y-103645702D01*
X137599860Y-103312746D01*
X137662172Y-103278721D01*
X137690933Y-103275858D01*
X137733265Y-103276523D01*
X137733268Y-103276523D01*
X137740863Y-103276642D01*
X137888437Y-103242843D01*
X137980911Y-103196334D01*
X138016906Y-103178231D01*
X138016909Y-103178229D01*
X138023689Y-103174819D01*
X138138810Y-103076495D01*
X138155404Y-103053402D01*
X149349941Y-103053402D01*
X149366554Y-103203883D01*
X149418582Y-103346057D01*
X149422819Y-103352363D01*
X149422821Y-103352366D01*
X149431855Y-103365809D01*
X149503022Y-103471716D01*
X149614998Y-103573607D01*
X149621675Y-103577232D01*
X149621676Y-103577233D01*
X149741370Y-103642222D01*
X149741372Y-103642223D01*
X149748047Y-103645847D01*
X149755396Y-103647775D01*
X149887136Y-103682336D01*
X149887138Y-103682336D01*
X149894486Y-103684264D01*
X149974562Y-103685522D01*
X150038266Y-103686523D01*
X150038269Y-103686523D01*
X150045863Y-103686642D01*
X150193437Y-103652843D01*
X150328689Y-103584819D01*
X150334464Y-103579887D01*
X150339485Y-103576551D01*
X150409211Y-103555500D01*
X150438435Y-103555500D01*
X150506556Y-103575502D01*
X150523235Y-103588307D01*
X150594998Y-103653607D01*
X150601675Y-103657232D01*
X150601676Y-103657233D01*
X150721370Y-103722222D01*
X150721372Y-103722223D01*
X150728047Y-103725847D01*
X150735396Y-103727775D01*
X150867136Y-103762336D01*
X150867138Y-103762336D01*
X150874486Y-103764264D01*
X150954562Y-103765522D01*
X151018266Y-103766523D01*
X151018269Y-103766523D01*
X151025863Y-103766642D01*
X151173437Y-103732843D01*
X151264392Y-103687098D01*
X151301906Y-103668231D01*
X151301909Y-103668229D01*
X151308689Y-103664819D01*
X151423810Y-103566495D01*
X151512156Y-103443550D01*
X151568624Y-103303080D01*
X151589956Y-103153196D01*
X151590094Y-103140000D01*
X151589424Y-103134459D01*
X151579778Y-103054752D01*
X151571906Y-102989701D01*
X151531993Y-102884073D01*
X151521076Y-102855182D01*
X151521075Y-102855179D01*
X151518392Y-102848080D01*
X151432640Y-102723311D01*
X151337321Y-102638385D01*
X151325270Y-102627648D01*
X151325269Y-102627648D01*
X151319603Y-102622599D01*
X151312897Y-102619048D01*
X151312895Y-102619047D01*
X151209315Y-102564205D01*
X151185805Y-102551757D01*
X151038972Y-102514874D01*
X151031374Y-102514834D01*
X151031372Y-102514834D01*
X150966775Y-102514496D01*
X150887579Y-102514082D01*
X150880200Y-102515854D01*
X150880196Y-102515854D01*
X150747746Y-102547652D01*
X150747742Y-102547653D01*
X150740367Y-102549424D01*
X150605835Y-102618861D01*
X150598273Y-102625458D01*
X150596653Y-102626204D01*
X150593830Y-102628123D01*
X150593510Y-102627652D01*
X150533794Y-102655167D01*
X150463486Y-102645299D01*
X150431624Y-102624586D01*
X150345275Y-102547651D01*
X150345267Y-102547645D01*
X150339603Y-102542599D01*
X150332897Y-102539048D01*
X150332895Y-102539047D01*
X150245167Y-102492598D01*
X150205805Y-102471757D01*
X150058972Y-102434874D01*
X150051374Y-102434834D01*
X150051372Y-102434834D01*
X149986775Y-102434496D01*
X149907579Y-102434082D01*
X149900200Y-102435854D01*
X149900196Y-102435854D01*
X149767746Y-102467652D01*
X149767742Y-102467653D01*
X149760367Y-102469424D01*
X149625835Y-102538861D01*
X149620113Y-102543853D01*
X149620111Y-102543854D01*
X149517474Y-102633390D01*
X149517471Y-102633393D01*
X149511749Y-102638385D01*
X149477177Y-102687576D01*
X149455611Y-102718262D01*
X149424696Y-102762249D01*
X149369702Y-102903302D01*
X149364014Y-102946504D01*
X149351031Y-103045125D01*
X149349941Y-103053402D01*
X138155404Y-103053402D01*
X138227156Y-102953550D01*
X138283624Y-102813080D01*
X138304956Y-102663196D01*
X138305094Y-102650000D01*
X138304441Y-102644599D01*
X138293205Y-102551757D01*
X138286906Y-102499701D01*
X138267517Y-102448390D01*
X138236076Y-102365182D01*
X138236075Y-102365179D01*
X138233392Y-102358080D01*
X138219894Y-102338440D01*
X159644770Y-102338440D01*
X159659200Y-102558604D01*
X159660621Y-102564200D01*
X159660622Y-102564205D01*
X159709341Y-102756032D01*
X159713511Y-102772452D01*
X159715928Y-102777694D01*
X159715928Y-102777695D01*
X159732241Y-102813080D01*
X159805883Y-102972821D01*
X159933222Y-103153002D01*
X160091264Y-103306961D01*
X160096060Y-103310166D01*
X160096063Y-103310168D01*
X160228054Y-103398361D01*
X160274717Y-103429540D01*
X160280020Y-103431818D01*
X160280023Y-103431820D01*
X160433808Y-103497891D01*
X160477436Y-103516635D01*
X160557088Y-103534658D01*
X160686995Y-103564054D01*
X160687001Y-103564055D01*
X160692632Y-103565329D01*
X160698403Y-103565556D01*
X160698405Y-103565556D01*
X160766211Y-103568220D01*
X160913098Y-103573991D01*
X161022275Y-103558161D01*
X161125738Y-103543160D01*
X161125743Y-103543159D01*
X161131452Y-103542331D01*
X161136916Y-103540476D01*
X161136921Y-103540475D01*
X161334907Y-103473268D01*
X161334912Y-103473266D01*
X161340379Y-103471410D01*
X161532884Y-103363602D01*
X161553980Y-103346057D01*
X161682184Y-103239430D01*
X161702518Y-103222518D01*
X161706204Y-103218086D01*
X161706209Y-103218081D01*
X161809127Y-103094336D01*
X161868065Y-103054752D01*
X161939047Y-103053316D01*
X161999537Y-103090483D01*
X162030330Y-103154454D01*
X162032001Y-103174905D01*
X162032001Y-103264669D01*
X162032371Y-103271490D01*
X162037895Y-103322352D01*
X162041521Y-103337604D01*
X162086676Y-103458054D01*
X162095214Y-103473649D01*
X162171715Y-103575724D01*
X162184276Y-103588285D01*
X162286351Y-103664786D01*
X162301946Y-103673324D01*
X162422394Y-103718478D01*
X162437649Y-103722105D01*
X162488514Y-103727631D01*
X162495328Y-103728000D01*
X163117885Y-103728000D01*
X163133124Y-103723525D01*
X163134329Y-103722135D01*
X163136000Y-103714452D01*
X163136000Y-103709884D01*
X163644000Y-103709884D01*
X163648475Y-103725123D01*
X163649865Y-103726328D01*
X163657548Y-103727999D01*
X164284669Y-103727999D01*
X164291490Y-103727629D01*
X164342352Y-103722105D01*
X164357604Y-103718479D01*
X164478054Y-103673324D01*
X164493649Y-103664786D01*
X164595724Y-103588285D01*
X164608285Y-103575724D01*
X164684786Y-103473649D01*
X164693324Y-103458054D01*
X164738478Y-103337606D01*
X164742105Y-103322351D01*
X164747631Y-103271486D01*
X164748000Y-103264672D01*
X164748000Y-102642115D01*
X164743525Y-102626876D01*
X164742135Y-102625671D01*
X164734452Y-102624000D01*
X163662115Y-102624000D01*
X163646876Y-102628475D01*
X163645671Y-102629865D01*
X163644000Y-102637548D01*
X163644000Y-103709884D01*
X163136000Y-103709884D01*
X163136000Y-102097885D01*
X163644000Y-102097885D01*
X163648475Y-102113124D01*
X163649865Y-102114329D01*
X163657548Y-102116000D01*
X164729884Y-102116000D01*
X164745123Y-102111525D01*
X164746328Y-102110135D01*
X164747999Y-102102452D01*
X164747999Y-101475331D01*
X164747629Y-101468510D01*
X164742105Y-101417648D01*
X164738479Y-101402396D01*
X164693324Y-101281946D01*
X164684786Y-101266351D01*
X164608285Y-101164276D01*
X164595724Y-101151715D01*
X164493649Y-101075214D01*
X164478054Y-101066676D01*
X164357606Y-101021522D01*
X164342351Y-101017895D01*
X164291486Y-101012369D01*
X164284672Y-101012000D01*
X163662115Y-101012000D01*
X163646876Y-101016475D01*
X163645671Y-101017865D01*
X163644000Y-101025548D01*
X163644000Y-102097885D01*
X163136000Y-102097885D01*
X163136000Y-101030116D01*
X163131525Y-101014877D01*
X163130135Y-101013672D01*
X163122452Y-101012001D01*
X162495331Y-101012001D01*
X162488510Y-101012371D01*
X162437648Y-101017895D01*
X162422396Y-101021521D01*
X162301946Y-101066676D01*
X162286351Y-101075214D01*
X162184276Y-101151715D01*
X162171715Y-101164276D01*
X162095214Y-101266351D01*
X162086676Y-101281946D01*
X162041522Y-101402394D01*
X162037895Y-101417649D01*
X162032369Y-101468514D01*
X162032000Y-101475328D01*
X162032000Y-101566989D01*
X162011998Y-101635110D01*
X161958342Y-101681603D01*
X161888068Y-101691707D01*
X161823488Y-101662213D01*
X161805042Y-101642378D01*
X161749420Y-101567891D01*
X161749420Y-101567890D01*
X161745967Y-101563267D01*
X161643460Y-101468510D01*
X161588189Y-101417418D01*
X161588186Y-101417416D01*
X161583949Y-101413499D01*
X161397350Y-101295764D01*
X161192421Y-101214006D01*
X161186761Y-101212880D01*
X161186757Y-101212879D01*
X160981691Y-101172089D01*
X160981688Y-101172089D01*
X160976024Y-101170962D01*
X160970249Y-101170886D01*
X160970245Y-101170886D01*
X160859504Y-101169437D01*
X160755406Y-101168074D01*
X160749709Y-101169053D01*
X160749708Y-101169053D01*
X160543654Y-101204459D01*
X160543653Y-101204459D01*
X160537957Y-101205438D01*
X160330957Y-101281804D01*
X160141341Y-101394614D01*
X159975457Y-101540090D01*
X159838863Y-101713360D01*
X159736131Y-101908620D01*
X159670703Y-102119333D01*
X159644770Y-102338440D01*
X138219894Y-102338440D01*
X138162708Y-102255235D01*
X138151939Y-102239566D01*
X138147640Y-102233311D01*
X138034603Y-102132599D01*
X138027897Y-102129048D01*
X138027895Y-102129047D01*
X137967704Y-102097178D01*
X137900805Y-102061757D01*
X137753972Y-102024874D01*
X137746374Y-102024834D01*
X137746372Y-102024834D01*
X137681775Y-102024496D01*
X137602579Y-102024082D01*
X137595200Y-102025854D01*
X137595196Y-102025854D01*
X137462746Y-102057652D01*
X137462742Y-102057653D01*
X137455367Y-102059424D01*
X137320835Y-102128861D01*
X137315113Y-102133853D01*
X137315111Y-102133854D01*
X137265854Y-102176824D01*
X137206749Y-102228385D01*
X137204556Y-102225871D01*
X137156841Y-102255235D01*
X137085858Y-102253849D01*
X137026893Y-102214306D01*
X137012047Y-102192041D01*
X137011077Y-102190185D01*
X137008392Y-102183080D01*
X136922640Y-102058311D01*
X136809603Y-101957599D01*
X136802897Y-101954048D01*
X136802895Y-101954047D01*
X136717097Y-101908620D01*
X136675805Y-101886757D01*
X136528972Y-101849874D01*
X136521374Y-101849834D01*
X136521372Y-101849834D01*
X136456775Y-101849496D01*
X136377579Y-101849082D01*
X136370200Y-101850854D01*
X136370196Y-101850854D01*
X136237746Y-101882652D01*
X136237742Y-101882653D01*
X136230367Y-101884424D01*
X136095835Y-101953861D01*
X136090113Y-101958853D01*
X136090111Y-101958854D01*
X135987474Y-102048390D01*
X135987471Y-102048393D01*
X135981749Y-102053385D01*
X135977382Y-102059599D01*
X135926077Y-102132599D01*
X135894696Y-102177249D01*
X135839702Y-102318302D01*
X135834465Y-102358080D01*
X135821100Y-102459599D01*
X135819941Y-102468402D01*
X135829899Y-102558604D01*
X135833092Y-102587525D01*
X135820686Y-102657429D01*
X135796948Y-102690446D01*
X135624913Y-102862481D01*
X135562601Y-102896506D01*
X135535159Y-102899383D01*
X135524238Y-102899326D01*
X135477579Y-102899082D01*
X135470200Y-102900854D01*
X135470196Y-102900854D01*
X135337746Y-102932652D01*
X135337742Y-102932653D01*
X135330367Y-102934424D01*
X135293311Y-102953550D01*
X135223270Y-102989701D01*
X135195835Y-103003861D01*
X135190113Y-103008853D01*
X135190111Y-103008854D01*
X135087474Y-103098390D01*
X135087471Y-103098393D01*
X135081749Y-103103385D01*
X134994696Y-103227249D01*
X134939702Y-103368302D01*
X134938711Y-103375831D01*
X134923766Y-103489351D01*
X134919941Y-103518402D01*
X132915500Y-103518402D01*
X132915500Y-103400843D01*
X132935502Y-103332722D01*
X132953268Y-103312366D01*
X132952892Y-103312020D01*
X132958032Y-103306430D01*
X132963810Y-103301495D01*
X133052156Y-103178550D01*
X133108624Y-103038080D01*
X133129956Y-102888196D01*
X133130094Y-102875000D01*
X133126837Y-102848080D01*
X133117007Y-102766857D01*
X133111906Y-102724701D01*
X133086486Y-102657429D01*
X133061076Y-102590182D01*
X133061075Y-102590179D01*
X133058392Y-102583080D01*
X132984764Y-102475952D01*
X132976939Y-102464566D01*
X132972640Y-102458311D01*
X132859603Y-102357599D01*
X132852897Y-102354048D01*
X132852895Y-102354047D01*
X132772019Y-102311226D01*
X132725805Y-102286757D01*
X132578972Y-102249874D01*
X132571374Y-102249834D01*
X132571372Y-102249834D01*
X132506775Y-102249496D01*
X132427579Y-102249082D01*
X132420200Y-102250854D01*
X132420196Y-102250854D01*
X132287746Y-102282652D01*
X132287742Y-102282653D01*
X132280367Y-102284424D01*
X132145835Y-102353861D01*
X132140113Y-102358853D01*
X132140111Y-102358854D01*
X132037474Y-102448390D01*
X132037471Y-102448393D01*
X132031749Y-102453385D01*
X132018837Y-102471757D01*
X131960116Y-102555309D01*
X131944696Y-102577249D01*
X131889702Y-102718302D01*
X131869941Y-102868402D01*
X131886554Y-103018883D01*
X131938582Y-103161057D01*
X131942819Y-103167363D01*
X131942821Y-103167366D01*
X131976901Y-103218081D01*
X132023022Y-103286716D01*
X132043302Y-103305169D01*
X132080223Y-103365809D01*
X132084500Y-103398361D01*
X132084500Y-104257700D01*
X132084501Y-104257706D01*
X132084501Y-104290808D01*
X132091667Y-104312862D01*
X132096281Y-104332083D01*
X132099910Y-104354997D01*
X132104410Y-104363828D01*
X132104411Y-104363832D01*
X132110441Y-104375666D01*
X132118006Y-104393929D01*
X132125172Y-104415985D01*
X132131002Y-104424009D01*
X132138807Y-104434752D01*
X132149135Y-104451606D01*
X132159664Y-104472269D01*
X132183075Y-104495680D01*
X132359203Y-104671809D01*
X132393229Y-104734121D01*
X132395346Y-104747075D01*
X132411554Y-104893883D01*
X132463582Y-105036057D01*
X132467819Y-105042363D01*
X132467821Y-105042366D01*
X132538863Y-105148086D01*
X132548022Y-105161716D01*
X132553641Y-105166829D01*
X132553881Y-105167107D01*
X132583251Y-105231744D01*
X132584500Y-105249438D01*
X132584500Y-106591549D01*
X132564498Y-106659670D01*
X132510842Y-106706163D01*
X132440568Y-106716267D01*
X132375988Y-106686773D01*
X132372948Y-106683759D01*
X132372640Y-106683311D01*
X132367112Y-106678385D01*
X132265270Y-106587648D01*
X132265269Y-106587648D01*
X132259603Y-106582599D01*
X132252897Y-106579048D01*
X132252895Y-106579047D01*
X132192704Y-106547178D01*
X132125805Y-106511757D01*
X131978972Y-106474874D01*
X131971374Y-106474834D01*
X131971372Y-106474834D01*
X131906775Y-106474496D01*
X131827579Y-106474082D01*
X131820200Y-106475854D01*
X131820196Y-106475854D01*
X131687746Y-106507652D01*
X131687742Y-106507653D01*
X131680367Y-106509424D01*
X131545835Y-106578861D01*
X131540113Y-106583853D01*
X131540111Y-106583854D01*
X131437474Y-106673390D01*
X131437471Y-106673393D01*
X131431749Y-106678385D01*
X131344696Y-106802249D01*
X131289702Y-106943302D01*
X131276741Y-107041757D01*
X131271659Y-107080356D01*
X131242937Y-107145283D01*
X131183672Y-107184375D01*
X131176155Y-107186428D01*
X131080367Y-107209424D01*
X130945835Y-107278861D01*
X130940113Y-107283853D01*
X130940111Y-107283854D01*
X130837474Y-107373390D01*
X130837471Y-107373393D01*
X130831749Y-107378385D01*
X130827382Y-107384599D01*
X130754341Y-107488526D01*
X130744696Y-107502249D01*
X130689702Y-107643302D01*
X130688711Y-107650831D01*
X130671572Y-107781015D01*
X130669941Y-107793402D01*
X130350500Y-107793402D01*
X130350500Y-96152966D01*
X136168257Y-96152966D01*
X136198565Y-96287446D01*
X136201645Y-96297275D01*
X136281770Y-96494603D01*
X136286413Y-96503794D01*
X136397694Y-96685388D01*
X136403777Y-96693699D01*
X136543213Y-96854667D01*
X136550580Y-96861883D01*
X136718414Y-97001221D01*
X136716896Y-97003049D01*
X136755026Y-97050793D01*
X136762306Y-97121416D01*
X136730248Y-97184763D01*
X136669032Y-97220722D01*
X136638407Y-97224500D01*
X136616782Y-97224500D01*
X136612232Y-97225170D01*
X136612229Y-97225170D01*
X136557574Y-97233216D01*
X136557573Y-97233216D01*
X136547888Y-97234642D01*
X136497992Y-97259140D01*
X136452493Y-97281478D01*
X136452491Y-97281479D01*
X136443145Y-97286068D01*
X136360707Y-97368650D01*
X136309464Y-97473482D01*
X136299500Y-97541782D01*
X136299500Y-99308218D01*
X136300170Y-99312768D01*
X136300170Y-99312771D01*
X136308216Y-99367426D01*
X136309642Y-99377112D01*
X136331878Y-99422401D01*
X136354455Y-99468385D01*
X136361068Y-99481855D01*
X136443650Y-99564293D01*
X136548482Y-99615536D01*
X136578973Y-99619984D01*
X136612256Y-99624840D01*
X136612260Y-99624840D01*
X136616782Y-99625500D01*
X138383218Y-99625500D01*
X138387768Y-99624830D01*
X138387771Y-99624830D01*
X138442426Y-99616784D01*
X138442427Y-99616784D01*
X138452112Y-99615358D01*
X138502008Y-99590860D01*
X138547507Y-99568522D01*
X138547509Y-99568521D01*
X138556855Y-99563932D01*
X138639293Y-99481350D01*
X138645631Y-99468385D01*
X138686240Y-99385306D01*
X138690536Y-99376518D01*
X138696908Y-99332843D01*
X138699840Y-99312744D01*
X138699840Y-99312740D01*
X138700500Y-99308218D01*
X138700500Y-98733402D01*
X147929941Y-98733402D01*
X147946554Y-98883883D01*
X147998582Y-99026057D01*
X148002819Y-99032363D01*
X148002821Y-99032366D01*
X148031952Y-99075716D01*
X148083022Y-99151716D01*
X148194998Y-99253607D01*
X148201675Y-99257232D01*
X148201676Y-99257233D01*
X148321370Y-99322222D01*
X148321372Y-99322223D01*
X148328047Y-99325847D01*
X148335396Y-99327775D01*
X148467136Y-99362336D01*
X148467138Y-99362336D01*
X148474486Y-99364264D01*
X148554562Y-99365522D01*
X148618266Y-99366523D01*
X148618269Y-99366523D01*
X148625863Y-99366642D01*
X148773437Y-99332843D01*
X148844131Y-99297288D01*
X148901906Y-99268231D01*
X148901909Y-99268229D01*
X148908689Y-99264819D01*
X149001337Y-99185689D01*
X149066126Y-99156658D01*
X149083168Y-99155500D01*
X149945705Y-99155500D01*
X150013826Y-99175502D01*
X150034800Y-99192405D01*
X150224711Y-99382316D01*
X150258737Y-99444628D01*
X150253672Y-99515443D01*
X150238703Y-99543862D01*
X150221372Y-99568522D01*
X150204696Y-99592249D01*
X150149702Y-99733302D01*
X150129941Y-99883402D01*
X150146554Y-100033883D01*
X150198582Y-100176057D01*
X150202819Y-100182363D01*
X150202821Y-100182366D01*
X150241412Y-100239794D01*
X150283022Y-100301716D01*
X150394998Y-100403607D01*
X150401675Y-100407232D01*
X150401676Y-100407233D01*
X150521370Y-100472222D01*
X150521372Y-100472223D01*
X150528047Y-100475847D01*
X150535396Y-100477775D01*
X150667136Y-100512336D01*
X150667138Y-100512336D01*
X150674486Y-100514264D01*
X150754562Y-100515522D01*
X150818266Y-100516523D01*
X150818269Y-100516523D01*
X150825863Y-100516642D01*
X150973437Y-100482843D01*
X151040731Y-100448998D01*
X151101906Y-100418231D01*
X151101909Y-100418229D01*
X151108689Y-100414819D01*
X151223810Y-100316495D01*
X151312156Y-100193550D01*
X151368624Y-100053080D01*
X151389956Y-99903196D01*
X151390094Y-99890000D01*
X151371906Y-99739701D01*
X151318392Y-99598080D01*
X151232640Y-99473311D01*
X151217681Y-99459983D01*
X151180125Y-99399733D01*
X151175500Y-99365907D01*
X151175500Y-99297300D01*
X151175499Y-99297294D01*
X151175499Y-99264192D01*
X151168333Y-99242138D01*
X151163719Y-99222917D01*
X151161641Y-99209796D01*
X151160090Y-99200003D01*
X151155590Y-99191172D01*
X151155589Y-99191168D01*
X151149559Y-99179334D01*
X151141994Y-99161070D01*
X151140616Y-99156828D01*
X151134828Y-99139015D01*
X151121193Y-99120248D01*
X151110865Y-99103394D01*
X151104840Y-99091570D01*
X151104840Y-99091569D01*
X151100336Y-99082731D01*
X150417269Y-98399664D01*
X150408430Y-98395160D01*
X150396606Y-98389135D01*
X150379752Y-98378807D01*
X150369009Y-98371002D01*
X150369010Y-98371002D01*
X150360985Y-98365172D01*
X150338929Y-98358006D01*
X150320666Y-98350441D01*
X150308832Y-98344411D01*
X150308828Y-98344410D01*
X150299997Y-98339910D01*
X150277083Y-98336281D01*
X150257862Y-98331667D01*
X150235808Y-98324501D01*
X150202704Y-98324501D01*
X150202700Y-98324500D01*
X149081964Y-98324500D01*
X149013843Y-98304498D01*
X148998145Y-98292577D01*
X148925270Y-98227648D01*
X148925269Y-98227648D01*
X148919603Y-98222599D01*
X148912897Y-98219048D01*
X148912895Y-98219047D01*
X148852704Y-98187178D01*
X148785805Y-98151757D01*
X148638972Y-98114874D01*
X148631374Y-98114834D01*
X148631372Y-98114834D01*
X148566775Y-98114496D01*
X148487579Y-98114082D01*
X148480200Y-98115854D01*
X148480196Y-98115854D01*
X148347746Y-98147652D01*
X148347742Y-98147653D01*
X148340367Y-98149424D01*
X148205835Y-98218861D01*
X148200113Y-98223853D01*
X148200111Y-98223854D01*
X148097474Y-98313390D01*
X148097471Y-98313393D01*
X148091749Y-98318385D01*
X148004696Y-98442249D01*
X147949702Y-98583302D01*
X147929941Y-98733402D01*
X138700500Y-98733402D01*
X138700500Y-97541782D01*
X138691871Y-97483162D01*
X138691784Y-97482574D01*
X138691784Y-97482573D01*
X138690358Y-97472888D01*
X138638932Y-97368145D01*
X138556350Y-97285707D01*
X138451518Y-97234464D01*
X138421027Y-97230016D01*
X138387744Y-97225160D01*
X138387740Y-97225160D01*
X138383218Y-97224500D01*
X138354383Y-97224500D01*
X138286262Y-97204498D01*
X138239769Y-97150842D01*
X138229665Y-97080568D01*
X138259159Y-97015988D01*
X138281215Y-96995921D01*
X138375328Y-96928792D01*
X138383200Y-96922139D01*
X138534052Y-96771812D01*
X138540730Y-96763965D01*
X138665003Y-96591020D01*
X138670313Y-96582183D01*
X138764670Y-96391267D01*
X138768469Y-96381672D01*
X138830377Y-96177910D01*
X138832555Y-96167837D01*
X138833986Y-96156962D01*
X138831775Y-96142778D01*
X138818617Y-96139000D01*
X136183225Y-96139000D01*
X136169694Y-96142973D01*
X136168257Y-96152966D01*
X130350500Y-96152966D01*
X130350500Y-95619183D01*
X136164389Y-95619183D01*
X136165912Y-95627607D01*
X136178292Y-95631000D01*
X137227885Y-95631000D01*
X137243124Y-95626525D01*
X137244329Y-95625135D01*
X137246000Y-95617452D01*
X137246000Y-95612885D01*
X137754000Y-95612885D01*
X137758475Y-95628124D01*
X137759865Y-95629329D01*
X137767548Y-95631000D01*
X138818344Y-95631000D01*
X138831875Y-95627027D01*
X138833180Y-95617947D01*
X138791214Y-95450875D01*
X138787894Y-95441124D01*
X138702972Y-95245814D01*
X138698105Y-95236739D01*
X138582426Y-95057926D01*
X138576136Y-95049757D01*
X138432806Y-94892240D01*
X138425273Y-94885215D01*
X138258139Y-94753222D01*
X138249552Y-94747517D01*
X138063117Y-94644599D01*
X138053705Y-94640369D01*
X137852959Y-94569280D01*
X137842988Y-94566646D01*
X137771837Y-94553972D01*
X137758540Y-94555432D01*
X137754000Y-94569989D01*
X137754000Y-95612885D01*
X137246000Y-95612885D01*
X137246000Y-94568102D01*
X137242082Y-94554758D01*
X137227806Y-94552771D01*
X137189324Y-94558660D01*
X137179288Y-94561051D01*
X136976868Y-94627212D01*
X136967359Y-94631209D01*
X136778463Y-94729542D01*
X136769738Y-94735036D01*
X136599433Y-94862905D01*
X136591726Y-94869748D01*
X136444590Y-95023717D01*
X136438104Y-95031727D01*
X136318098Y-95207649D01*
X136313000Y-95216623D01*
X136223338Y-95409783D01*
X136219775Y-95419470D01*
X136164389Y-95619183D01*
X130350500Y-95619183D01*
X130350500Y-94243402D01*
X153649941Y-94243402D01*
X153666554Y-94393883D01*
X153718582Y-94536057D01*
X153722819Y-94542363D01*
X153722821Y-94542366D01*
X153750021Y-94582843D01*
X153803022Y-94661716D01*
X153914998Y-94763607D01*
X153921675Y-94767232D01*
X153921676Y-94767233D01*
X154041370Y-94832222D01*
X154041372Y-94832223D01*
X154048047Y-94835847D01*
X154055396Y-94837775D01*
X154187136Y-94872336D01*
X154187138Y-94872336D01*
X154194486Y-94874264D01*
X154274562Y-94875522D01*
X154338266Y-94876523D01*
X154338269Y-94876523D01*
X154345863Y-94876642D01*
X154493437Y-94842843D01*
X154628689Y-94774819D01*
X154651088Y-94755688D01*
X154715876Y-94726658D01*
X154732917Y-94725500D01*
X155752627Y-94725500D01*
X155763723Y-94726739D01*
X155763771Y-94726141D01*
X155772717Y-94726861D01*
X155781473Y-94728842D01*
X155831441Y-94725742D01*
X155839242Y-94725500D01*
X155854145Y-94725500D01*
X155863514Y-94724158D01*
X155873566Y-94723129D01*
X155917417Y-94720408D01*
X155925862Y-94717359D01*
X155932098Y-94716068D01*
X155939849Y-94714135D01*
X155945938Y-94712354D01*
X155954829Y-94711081D01*
X155966751Y-94705660D01*
X155994836Y-94692892D01*
X156004201Y-94689080D01*
X156037083Y-94677209D01*
X156037086Y-94677207D01*
X156045530Y-94674159D01*
X156052777Y-94668864D01*
X156058407Y-94665871D01*
X156065257Y-94661868D01*
X156070642Y-94658424D01*
X156078820Y-94654706D01*
X156091162Y-94644072D01*
X156146654Y-94620095D01*
X156145863Y-94616642D01*
X156293437Y-94582843D01*
X156360731Y-94548998D01*
X156421906Y-94518231D01*
X156421909Y-94518229D01*
X156428689Y-94514819D01*
X156543810Y-94416495D01*
X156632156Y-94293550D01*
X156688624Y-94153080D01*
X156709956Y-94003196D01*
X156710094Y-93990000D01*
X156691906Y-93839701D01*
X156651436Y-93732599D01*
X156641076Y-93705182D01*
X156641075Y-93705179D01*
X156638392Y-93698080D01*
X156552640Y-93573311D01*
X156439603Y-93472599D01*
X156432897Y-93469048D01*
X156432895Y-93469047D01*
X156372704Y-93437178D01*
X156305805Y-93401757D01*
X156158972Y-93364874D01*
X156151374Y-93364834D01*
X156151372Y-93364834D01*
X156086775Y-93364496D01*
X156007579Y-93364082D01*
X156000200Y-93365854D01*
X156000196Y-93365854D01*
X155867746Y-93397652D01*
X155867742Y-93397653D01*
X155860367Y-93399424D01*
X155725835Y-93468861D01*
X155720113Y-93473853D01*
X155720111Y-93473854D01*
X155617474Y-93563390D01*
X155617471Y-93563393D01*
X155611749Y-93568385D01*
X155607382Y-93574599D01*
X155543630Y-93665309D01*
X155524696Y-93692249D01*
X155521935Y-93699330D01*
X155518349Y-93706019D01*
X155515871Y-93704690D01*
X155480508Y-93750485D01*
X155406515Y-93774500D01*
X154734621Y-93774500D01*
X154666500Y-93754498D01*
X154650802Y-93742576D01*
X154645275Y-93737651D01*
X154645267Y-93737646D01*
X154639603Y-93732599D01*
X154632897Y-93729048D01*
X154632895Y-93729047D01*
X154551653Y-93686032D01*
X154505805Y-93661757D01*
X154358972Y-93624874D01*
X154351374Y-93624834D01*
X154351372Y-93624834D01*
X154286775Y-93624496D01*
X154207579Y-93624082D01*
X154200200Y-93625854D01*
X154200196Y-93625854D01*
X154067746Y-93657652D01*
X154067742Y-93657653D01*
X154060367Y-93659424D01*
X153925835Y-93728861D01*
X153920113Y-93733853D01*
X153920111Y-93733854D01*
X153817474Y-93823390D01*
X153817471Y-93823393D01*
X153811749Y-93828385D01*
X153724696Y-93952249D01*
X153669702Y-94093302D01*
X153649941Y-94243402D01*
X130350500Y-94243402D01*
X130350500Y-91012335D01*
X148054680Y-91012335D01*
X148071293Y-91162816D01*
X148123321Y-91304990D01*
X148127558Y-91311296D01*
X148127560Y-91311299D01*
X148157536Y-91355907D01*
X148207761Y-91430649D01*
X148319737Y-91532540D01*
X148326414Y-91536165D01*
X148326415Y-91536166D01*
X148446109Y-91601155D01*
X148446111Y-91601156D01*
X148452786Y-91604780D01*
X148460135Y-91606708D01*
X148591879Y-91641270D01*
X148591880Y-91641270D01*
X148596031Y-91642359D01*
X148596033Y-91642360D01*
X148599225Y-91643197D01*
X148599078Y-91643756D01*
X148660717Y-91672009D01*
X148697504Y-91704498D01*
X148703192Y-91709845D01*
X148713721Y-91720374D01*
X148717308Y-91723062D01*
X148721291Y-91726047D01*
X148729133Y-91732432D01*
X148762061Y-91761513D01*
X148770187Y-91765328D01*
X148775512Y-91768826D01*
X148782352Y-91772936D01*
X148787928Y-91775988D01*
X148795111Y-91781372D01*
X148803519Y-91784524D01*
X148836260Y-91796798D01*
X148845580Y-91800725D01*
X148885354Y-91819399D01*
X148894224Y-91820780D01*
X148900304Y-91822639D01*
X148908025Y-91824665D01*
X148914238Y-91826031D01*
X148922649Y-91829184D01*
X148949686Y-91831193D01*
X148966482Y-91832441D01*
X148976529Y-91833595D01*
X148983951Y-91834751D01*
X148983953Y-91834751D01*
X148988762Y-91835500D01*
X149002968Y-91835500D01*
X149012306Y-91835846D01*
X149058480Y-91839277D01*
X149067256Y-91837404D01*
X149076213Y-91836793D01*
X149076220Y-91836899D01*
X149089473Y-91835500D01*
X149964373Y-91835500D01*
X150032494Y-91855502D01*
X150049171Y-91868304D01*
X150054998Y-91873607D01*
X150061675Y-91877232D01*
X150061676Y-91877233D01*
X150181370Y-91942222D01*
X150181372Y-91942223D01*
X150188047Y-91945847D01*
X150195396Y-91947775D01*
X150327136Y-91982336D01*
X150327138Y-91982336D01*
X150334486Y-91984264D01*
X150414562Y-91985522D01*
X150478266Y-91986523D01*
X150478269Y-91986523D01*
X150485863Y-91986642D01*
X150633437Y-91952843D01*
X150700731Y-91918998D01*
X150761906Y-91888231D01*
X150761909Y-91888229D01*
X150768689Y-91884819D01*
X150883810Y-91786495D01*
X150972156Y-91663550D01*
X151028624Y-91523080D01*
X151049956Y-91373196D01*
X151050094Y-91360000D01*
X151031906Y-91209701D01*
X150978392Y-91068080D01*
X150892640Y-90943311D01*
X150779603Y-90842599D01*
X150772897Y-90839048D01*
X150772895Y-90839047D01*
X150704883Y-90803037D01*
X150645805Y-90771757D01*
X150498972Y-90734874D01*
X150491374Y-90734834D01*
X150491372Y-90734834D01*
X150426775Y-90734496D01*
X150347579Y-90734082D01*
X150340200Y-90735854D01*
X150340196Y-90735854D01*
X150207746Y-90767652D01*
X150207742Y-90767653D01*
X150200367Y-90769424D01*
X150065835Y-90838861D01*
X150060113Y-90843853D01*
X150060111Y-90843854D01*
X150049111Y-90853450D01*
X149984628Y-90883157D01*
X149966283Y-90884500D01*
X149389724Y-90884500D01*
X149321603Y-90864498D01*
X149275110Y-90810842D01*
X149271858Y-90803037D01*
X149245816Y-90734117D01*
X149245814Y-90734113D01*
X149243131Y-90727013D01*
X149157379Y-90602244D01*
X149044342Y-90501532D01*
X149037636Y-90497981D01*
X149037634Y-90497980D01*
X148977443Y-90466111D01*
X148910544Y-90430690D01*
X148763711Y-90393807D01*
X148756113Y-90393767D01*
X148756111Y-90393767D01*
X148691514Y-90393429D01*
X148612318Y-90393015D01*
X148604939Y-90394787D01*
X148604935Y-90394787D01*
X148472485Y-90426585D01*
X148472481Y-90426586D01*
X148465106Y-90428357D01*
X148330574Y-90497794D01*
X148324852Y-90502786D01*
X148324850Y-90502787D01*
X148222213Y-90592323D01*
X148222210Y-90592326D01*
X148216488Y-90597318D01*
X148129435Y-90721182D01*
X148074441Y-90862235D01*
X148073450Y-90869764D01*
X148062944Y-90949566D01*
X148054680Y-91012335D01*
X130350500Y-91012335D01*
X130350500Y-89547181D01*
X144502000Y-89547181D01*
X144502077Y-89550233D01*
X144503233Y-89559445D01*
X144540162Y-89742591D01*
X144543752Y-89754333D01*
X144614978Y-89925443D01*
X144620778Y-89936259D01*
X144723885Y-90090279D01*
X144731678Y-90099766D01*
X144862734Y-90230822D01*
X144872221Y-90238615D01*
X145026241Y-90341722D01*
X145037057Y-90347522D01*
X145208172Y-90418750D01*
X145219904Y-90422337D01*
X145238242Y-90426035D01*
X145251059Y-90424921D01*
X145255412Y-90411500D01*
X145764000Y-90411500D01*
X145767624Y-90423844D01*
X145783533Y-90425677D01*
X145800096Y-90422337D01*
X145811828Y-90418750D01*
X145982943Y-90347522D01*
X145993759Y-90341722D01*
X146147779Y-90238615D01*
X146157266Y-90230822D01*
X146288322Y-90099766D01*
X146296115Y-90090279D01*
X146399222Y-89936259D01*
X146405022Y-89925443D01*
X146476248Y-89754333D01*
X146479838Y-89742591D01*
X146516767Y-89559445D01*
X146517923Y-89550233D01*
X146518000Y-89547181D01*
X146518000Y-88963333D01*
X146538002Y-88895212D01*
X146591658Y-88848719D01*
X146661932Y-88838615D01*
X146692218Y-88846924D01*
X146779764Y-88883187D01*
X146892280Y-88898000D01*
X146967720Y-88898000D01*
X147080236Y-88883187D01*
X147220233Y-88825198D01*
X147340451Y-88732951D01*
X147432698Y-88612733D01*
X147490687Y-88472736D01*
X147510466Y-88322500D01*
X147490687Y-88172264D01*
X147432698Y-88032267D01*
X147340451Y-87912049D01*
X147220233Y-87819802D01*
X147080236Y-87761813D01*
X146967720Y-87747000D01*
X146892280Y-87747000D01*
X146779764Y-87761813D01*
X146639767Y-87819802D01*
X146604583Y-87846800D01*
X146538364Y-87872399D01*
X146468816Y-87858134D01*
X146418020Y-87808533D01*
X146411556Y-87795257D01*
X146405017Y-87779549D01*
X146399222Y-87768741D01*
X146296115Y-87614721D01*
X146288322Y-87605234D01*
X146286490Y-87603402D01*
X150069941Y-87603402D01*
X150086554Y-87753883D01*
X150138582Y-87896057D01*
X150142819Y-87902363D01*
X150142821Y-87902366D01*
X150175279Y-87950667D01*
X150223022Y-88021716D01*
X150334998Y-88123607D01*
X150341675Y-88127232D01*
X150341676Y-88127233D01*
X150461370Y-88192222D01*
X150461372Y-88192223D01*
X150468047Y-88195847D01*
X150475396Y-88197775D01*
X150607136Y-88232336D01*
X150607138Y-88232336D01*
X150614486Y-88234264D01*
X150693038Y-88235498D01*
X150758265Y-88236523D01*
X150758268Y-88236523D01*
X150765863Y-88236642D01*
X150773267Y-88234946D01*
X150773269Y-88234946D01*
X150843015Y-88218972D01*
X150913882Y-88223261D01*
X150960239Y-88252697D01*
X151164733Y-88457191D01*
X151198759Y-88519503D01*
X151200877Y-88532460D01*
X151206554Y-88583883D01*
X151258582Y-88726057D01*
X151262819Y-88732363D01*
X151262821Y-88732366D01*
X151266592Y-88737977D01*
X151343022Y-88851716D01*
X151454998Y-88953607D01*
X151461675Y-88957232D01*
X151461676Y-88957233D01*
X151581370Y-89022222D01*
X151581372Y-89022223D01*
X151588047Y-89025847D01*
X151595396Y-89027775D01*
X151727136Y-89062336D01*
X151727138Y-89062336D01*
X151734486Y-89064264D01*
X151814562Y-89065522D01*
X151878266Y-89066523D01*
X151878269Y-89066523D01*
X151885863Y-89066642D01*
X152033437Y-89032843D01*
X152100731Y-88998998D01*
X152161906Y-88968231D01*
X152161909Y-88968229D01*
X152168689Y-88964819D01*
X152283810Y-88866495D01*
X152288244Y-88860325D01*
X152293383Y-88854736D01*
X152295633Y-88856804D01*
X152340570Y-88821765D01*
X152411272Y-88815309D01*
X152439479Y-88825894D01*
X152439767Y-88825198D01*
X152579764Y-88883187D01*
X152692280Y-88898000D01*
X152767720Y-88898000D01*
X152880236Y-88883187D01*
X152967782Y-88846924D01*
X153038371Y-88839335D01*
X153101858Y-88871114D01*
X153138086Y-88932172D01*
X153142000Y-88963333D01*
X153142000Y-89547181D01*
X153142077Y-89550233D01*
X153143233Y-89559445D01*
X153180162Y-89742591D01*
X153183752Y-89754333D01*
X153254978Y-89925443D01*
X153260778Y-89936259D01*
X153363885Y-90090279D01*
X153371678Y-90099766D01*
X153502734Y-90230822D01*
X153512221Y-90238615D01*
X153666241Y-90341722D01*
X153677057Y-90347522D01*
X153848172Y-90418750D01*
X153859904Y-90422337D01*
X153878242Y-90426035D01*
X153891059Y-90424921D01*
X153895412Y-90411500D01*
X154404000Y-90411500D01*
X154407624Y-90423844D01*
X154423533Y-90425677D01*
X154440096Y-90422337D01*
X154451828Y-90418750D01*
X154622943Y-90347522D01*
X154633759Y-90341722D01*
X154787779Y-90238615D01*
X154797266Y-90230822D01*
X154928322Y-90099766D01*
X154936115Y-90090279D01*
X155039222Y-89936259D01*
X155045022Y-89925443D01*
X155116248Y-89754333D01*
X155119838Y-89742591D01*
X155156767Y-89559445D01*
X155157923Y-89550233D01*
X155158000Y-89547181D01*
X155158000Y-89124615D01*
X155153525Y-89109376D01*
X155152135Y-89108171D01*
X155144452Y-89106500D01*
X154422115Y-89106500D01*
X154406876Y-89110975D01*
X154405671Y-89112365D01*
X154404000Y-89120048D01*
X154404000Y-90411500D01*
X153895412Y-90411500D01*
X153896000Y-90409688D01*
X153896000Y-88580385D01*
X154404000Y-88580385D01*
X154408475Y-88595624D01*
X154409865Y-88596829D01*
X154417548Y-88598500D01*
X155139885Y-88598500D01*
X155155124Y-88594025D01*
X155156329Y-88592635D01*
X155158000Y-88584952D01*
X155158000Y-88157819D01*
X155157923Y-88154767D01*
X155156767Y-88145555D01*
X155119838Y-87962409D01*
X155116248Y-87950667D01*
X155045022Y-87779557D01*
X155039222Y-87768741D01*
X154936115Y-87614721D01*
X154928322Y-87605234D01*
X154797266Y-87474178D01*
X154787779Y-87466385D01*
X154633759Y-87363278D01*
X154622943Y-87357478D01*
X154451828Y-87286250D01*
X154440096Y-87282663D01*
X154421758Y-87278965D01*
X154408941Y-87280079D01*
X154404000Y-87295312D01*
X154404000Y-88580385D01*
X153896000Y-88580385D01*
X153896000Y-87293500D01*
X153892376Y-87281156D01*
X153876467Y-87279323D01*
X153859904Y-87282663D01*
X153848172Y-87286250D01*
X153677057Y-87357478D01*
X153666241Y-87363278D01*
X153512221Y-87466385D01*
X153502734Y-87474178D01*
X153371678Y-87605234D01*
X153363885Y-87614721D01*
X153260778Y-87768741D01*
X153254983Y-87779549D01*
X153248444Y-87795257D01*
X153203799Y-87850460D01*
X153136397Y-87872763D01*
X153067636Y-87855086D01*
X153055424Y-87846805D01*
X153020233Y-87819802D01*
X152880236Y-87761813D01*
X152767720Y-87747000D01*
X152692280Y-87747000D01*
X152579764Y-87761813D01*
X152439767Y-87819802D01*
X152319549Y-87912049D01*
X152317641Y-87909562D01*
X152268369Y-87936467D01*
X152197554Y-87931402D01*
X152179849Y-87922135D01*
X152179603Y-87922599D01*
X152045805Y-87851757D01*
X151898972Y-87814874D01*
X151899299Y-87813570D01*
X151841533Y-87788378D01*
X151833305Y-87780847D01*
X151373872Y-87321414D01*
X151366900Y-87312688D01*
X151366442Y-87313077D01*
X151360626Y-87306243D01*
X151355835Y-87298650D01*
X151318293Y-87265494D01*
X151312606Y-87260148D01*
X151302085Y-87249627D01*
X151294513Y-87243952D01*
X151286682Y-87237576D01*
X151260474Y-87214430D01*
X151260475Y-87214430D01*
X151253745Y-87208487D01*
X151245618Y-87204671D01*
X151240281Y-87201166D01*
X151233463Y-87197070D01*
X151227880Y-87194013D01*
X151220695Y-87188628D01*
X151212290Y-87185477D01*
X151212288Y-87185476D01*
X151179546Y-87173202D01*
X151170233Y-87169278D01*
X151134885Y-87152682D01*
X151104618Y-87132705D01*
X151065275Y-87097652D01*
X151065272Y-87097650D01*
X151059603Y-87092599D01*
X150925805Y-87021757D01*
X150778972Y-86984874D01*
X150771374Y-86984834D01*
X150771372Y-86984834D01*
X150706775Y-86984496D01*
X150627579Y-86984082D01*
X150620200Y-86985854D01*
X150620196Y-86985854D01*
X150487746Y-87017652D01*
X150487742Y-87017653D01*
X150480367Y-87019424D01*
X150345835Y-87088861D01*
X150340113Y-87093853D01*
X150340111Y-87093854D01*
X150237474Y-87183390D01*
X150237471Y-87183393D01*
X150231749Y-87188385D01*
X150217621Y-87208487D01*
X150154254Y-87298650D01*
X150144696Y-87312249D01*
X150089702Y-87453302D01*
X150069941Y-87603402D01*
X146286490Y-87603402D01*
X146157266Y-87474178D01*
X146147779Y-87466385D01*
X145993759Y-87363278D01*
X145982943Y-87357478D01*
X145811828Y-87286250D01*
X145800096Y-87282663D01*
X145781758Y-87278965D01*
X145768941Y-87280079D01*
X145764000Y-87295312D01*
X145764000Y-90411500D01*
X145255412Y-90411500D01*
X145256000Y-90409688D01*
X145256000Y-89124615D01*
X145251525Y-89109376D01*
X145250135Y-89108171D01*
X145242452Y-89106500D01*
X144520115Y-89106500D01*
X144504876Y-89110975D01*
X144503671Y-89112365D01*
X144502000Y-89120048D01*
X144502000Y-89547181D01*
X130350500Y-89547181D01*
X130350500Y-88580385D01*
X144502000Y-88580385D01*
X144506475Y-88595624D01*
X144507865Y-88596829D01*
X144515548Y-88598500D01*
X145237885Y-88598500D01*
X145253124Y-88594025D01*
X145254329Y-88592635D01*
X145256000Y-88584952D01*
X145256000Y-87293500D01*
X145252376Y-87281156D01*
X145236467Y-87279323D01*
X145219904Y-87282663D01*
X145208172Y-87286250D01*
X145037057Y-87357478D01*
X145026241Y-87363278D01*
X144872221Y-87466385D01*
X144862734Y-87474178D01*
X144731678Y-87605234D01*
X144723885Y-87614721D01*
X144620778Y-87768741D01*
X144614978Y-87779557D01*
X144543752Y-87950667D01*
X144540162Y-87962409D01*
X144503233Y-88145555D01*
X144502077Y-88154767D01*
X144502000Y-88157819D01*
X144502000Y-88580385D01*
X130350500Y-88580385D01*
X130350500Y-85067181D01*
X144502000Y-85067181D01*
X144502077Y-85070233D01*
X144503233Y-85079445D01*
X144540162Y-85262591D01*
X144543752Y-85274333D01*
X144614978Y-85445443D01*
X144620778Y-85456259D01*
X144723885Y-85610279D01*
X144731678Y-85619766D01*
X144862734Y-85750822D01*
X144872221Y-85758615D01*
X145026241Y-85861722D01*
X145037057Y-85867522D01*
X145208172Y-85938750D01*
X145219904Y-85942337D01*
X145238242Y-85946035D01*
X145251059Y-85944921D01*
X145255412Y-85931500D01*
X145764000Y-85931500D01*
X145767624Y-85943844D01*
X145783533Y-85945677D01*
X145800096Y-85942337D01*
X145811828Y-85938750D01*
X145982943Y-85867522D01*
X145993759Y-85861722D01*
X146147779Y-85758615D01*
X146157266Y-85750822D01*
X146288322Y-85619766D01*
X146296115Y-85610279D01*
X146399222Y-85456259D01*
X146405022Y-85445443D01*
X146476248Y-85274333D01*
X146479838Y-85262591D01*
X146516767Y-85079445D01*
X146517923Y-85070233D01*
X146518000Y-85067181D01*
X153142000Y-85067181D01*
X153142077Y-85070233D01*
X153143233Y-85079445D01*
X153180162Y-85262591D01*
X153183752Y-85274333D01*
X153254978Y-85445443D01*
X153260778Y-85456259D01*
X153363885Y-85610279D01*
X153371678Y-85619766D01*
X153502734Y-85750822D01*
X153512221Y-85758615D01*
X153666241Y-85861722D01*
X153677057Y-85867522D01*
X153848172Y-85938750D01*
X153859904Y-85942337D01*
X153878242Y-85946035D01*
X153891059Y-85944921D01*
X153895412Y-85931500D01*
X154404000Y-85931500D01*
X154407624Y-85943844D01*
X154423533Y-85945677D01*
X154440096Y-85942337D01*
X154451828Y-85938750D01*
X154622943Y-85867522D01*
X154633759Y-85861722D01*
X154787779Y-85758615D01*
X154797266Y-85750822D01*
X154928322Y-85619766D01*
X154936115Y-85610279D01*
X155039222Y-85456259D01*
X155045022Y-85445443D01*
X155116248Y-85274333D01*
X155119838Y-85262591D01*
X155156767Y-85079445D01*
X155157923Y-85070233D01*
X155158000Y-85067181D01*
X155158000Y-84944615D01*
X155153525Y-84929376D01*
X155152135Y-84928171D01*
X155144452Y-84926500D01*
X154422115Y-84926500D01*
X154406876Y-84930975D01*
X154405671Y-84932365D01*
X154404000Y-84940048D01*
X154404000Y-85931500D01*
X153895412Y-85931500D01*
X153896000Y-85929688D01*
X153896000Y-84944615D01*
X153891525Y-84929376D01*
X153890135Y-84928171D01*
X153882452Y-84926500D01*
X153160115Y-84926500D01*
X153144876Y-84930975D01*
X153143671Y-84932365D01*
X153142000Y-84940048D01*
X153142000Y-85067181D01*
X146518000Y-85067181D01*
X146518000Y-84944615D01*
X146513525Y-84929376D01*
X146512135Y-84928171D01*
X146504452Y-84926500D01*
X145782115Y-84926500D01*
X145766876Y-84930975D01*
X145765671Y-84932365D01*
X145764000Y-84940048D01*
X145764000Y-85931500D01*
X145255412Y-85931500D01*
X145256000Y-85929688D01*
X145256000Y-84944615D01*
X145251525Y-84929376D01*
X145250135Y-84928171D01*
X145242452Y-84926500D01*
X144520115Y-84926500D01*
X144504876Y-84930975D01*
X144503671Y-84932365D01*
X144502000Y-84940048D01*
X144502000Y-85067181D01*
X130350500Y-85067181D01*
X130350500Y-83476500D01*
X130370502Y-83408379D01*
X130424158Y-83361886D01*
X130476500Y-83350500D01*
X144809867Y-83350500D01*
X144877988Y-83370502D01*
G37*
%TD.AperFunction*%
%TD*%
M02*
